ISO-10303-21;
HEADER;
FILE_DESCRIPTION (( 'STEP AP214' ),
    '1' );
FILE_NAME ('EMF107B7104KAHT.STEP',
    '2019-12-26T22:42:27',
    ( '' ),
    ( '' ),
    'SwSTEP 2.0',
    'SolidWorks 2018',
    '' );
FILE_SCHEMA (( 'AUTOMOTIVE_DESIGN' ));
ENDSEC;

DATA;
#1 = CARTESIAN_POINT ( 'NONE',  ( -0.7999999999999994893, 0.03999999999999999389, -0.3599999999999995426 ) ) ;
#2 = CIRCLE ( 'NONE', #1059, 0.03999999999999999389 ) ;
#3 = ORIENTED_EDGE ( 'NONE', *, *, #707, .F. ) ;
#4 = LINE ( 'NONE', #322, #289 ) ;
#5 = ORIENTED_EDGE ( 'NONE', *, *, #538, .F. ) ;
#6 = AXIS2_PLACEMENT_3D ( 'NONE', #235, #936, #646 ) ;
#7 = ORIENTED_EDGE ( 'NONE', *, *, #1131, .T. ) ;
#8 = EDGE_CURVE ( 'NONE', #841, #496, #590, .T. ) ;
#9 = EDGE_CURVE ( 'NONE', #682, #1065, #1096, .T. ) ;
#10 = DIRECTION ( 'NONE',  ( 1.000000000000000000, 0.0000000000000000000, -8.673617379884036705E-17 ) ) ;
#11 = CARTESIAN_POINT ( 'NONE',  ( 0.4499999999999994560, 0.03999999999999999389, -0.3599999999999996536 ) ) ;
#12 = CARTESIAN_POINT ( 'NONE',  ( 1.115179377413661070E-16, 0.8599999999999999867, -0.3599999999999998201 ) ) ;
#13 = DIRECTION ( 'NONE',  ( 1.000000000000000000, 0.0000000000000000000, 0.0000000000000000000 ) ) ;
#14 = CARTESIAN_POINT ( 'NONE',  ( 0.7599999999999993427, 0.04000000000000000083, 0.3599999999999999867 ) ) ;
#15 = CIRCLE ( 'NONE', #719, 0.03999999999999999389 ) ;
#16 = FACE_OUTER_BOUND ( 'NONE', #190, .T. ) ;
#17 = ORIENTED_EDGE ( 'NONE', *, *, #763, .T. ) ;
#18 = ORIENTED_EDGE ( 'NONE', *, *, #678, .T. ) ;
#19 = ORIENTED_EDGE ( 'NONE', *, *, #299, .F. ) ;
#20 = ORIENTED_EDGE ( 'NONE', *, *, #983, .T. ) ;
#21 = AXIS2_PLACEMENT_3D ( 'NONE', #1242, #1041, #656 ) ;
#22 = CYLINDRICAL_SURFACE ( 'NONE', #243, 0.03999999999999999389 ) ;
#23 = CARTESIAN_POINT ( 'NONE',  ( 0.7999999999999994893, 0.9000000000000000222, -0.3999999999999995226 ) ) ;
#24 = ORIENTED_EDGE ( 'NONE', *, *, #570, .T. ) ;
#25 = CARTESIAN_POINT ( 'NONE',  ( 0.4499999999999994560, 0.8599999999999999867, -0.3999999999999996336 ) ) ;
#26 = EDGE_CURVE ( 'NONE', #1204, #1046, #354, .T. ) ;
#27 = LINE ( 'NONE', #401, #268 ) ;
#28 = LINE ( 'NONE', #442, #692 ) ;
#29 = DIRECTION ( 'NONE',  ( -0.0000000000000000000, -0.0000000000000000000, 1.000000000000000000 ) ) ;
#30 = ORIENTED_EDGE ( 'NONE', *, *, #806, .T. ) ;
#31 = PRODUCT ( 'EMF107B7104KAHT', 'EMF107B7104KAHT', '', ( #1246 ) ) ;
#32 = EDGE_LOOP ( 'NONE', ( #7, #120, #611, #353 ) ) ;
#33 = ORIENTED_EDGE ( 'NONE', *, *, #1272, .T. ) ;
#34 = CARTESIAN_POINT ( 'NONE',  ( 0.7599999999999993427, 0.04000000000000000083, 0.3599999999999999867 ) ) ;
#35 = CARTESIAN_POINT ( 'NONE',  ( -0.4499999999999994560, 0.9000000000000000222, -0.3999999999999996336 ) ) ;
#36 = VERTEX_POINT ( 'NONE', #954 ) ;
#37 = AXIS2_PLACEMENT_3D ( 'NONE', #1051, #564, #267 ) ;
#38 = ADVANCED_FACE ( 'NONE', ( #325 ), #388, .T. ) ;
#39 = CYLINDRICAL_SURFACE ( 'NONE', #497, 0.03999999999999999389 ) ;
#40 = FACE_OUTER_BOUND ( 'NONE', #602, .T. ) ;
#41 = DIRECTION ( 'NONE',  ( 0.0000000000000000000, 0.0000000000000000000, -1.000000000000000000 ) ) ;
#42 = EDGE_CURVE ( 'NONE', #398, #87, #642, .T. ) ;
#43 = ORIENTED_EDGE ( 'NONE', *, *, #100, .T. ) ;
#44 = CARTESIAN_POINT ( 'NONE',  ( 500000.0000000000582, 0.01333333333333334286, 0.3599999999566318443 ) ) ;
#45 = CARTESIAN_POINT ( 'NONE',  ( -0.4499999999999994005, 0.03999999999999999389, 0.3599999999999999867 ) ) ;
#46 = ORIENTED_EDGE ( 'NONE', *, *, #747, .T. ) ;
#47 = FILL_AREA_STYLE_COLOUR ( '', #903 ) ;
#48 = SPHERICAL_SURFACE ( 'NONE', #198, 0.04000000000000000083 ) ;
#49 = VERTEX_POINT ( 'NONE', #1151 ) ;
#50 = EDGE_LOOP ( 'NONE', ( #443, #336, #915, #1111 ) ) ;
#51 = ORIENTED_EDGE ( 'NONE', *, *, #895, .T. ) ;
#52 = VERTEX_POINT ( 'NONE', #284 ) ;
#53 = CARTESIAN_POINT ( 'NONE',  ( -1.115179377413661070E-16, 0.8599999999999999867, -0.3599999999999998201 ) ) ;
#54 = DIRECTION ( 'NONE',  ( 1.000000000000000000, 0.0000000000000000000, 0.0000000000000000000 ) ) ;
#55 = CYLINDRICAL_SURFACE ( 'NONE', #807, 0.03999999999999999389 ) ;
#56 = PLANE ( 'NONE',  #408 ) ;
#57 = DIRECTION ( 'NONE',  ( 0.0000000000000000000, -1.000000000000000000, 0.0000000000000000000 ) ) ;
#58 = DIRECTION ( 'NONE',  ( 0.0000000000000000000, 0.0000000000000000000, -1.000000000000000000 ) ) ;
#59 = CARTESIAN_POINT ( 'NONE',  ( 0.7999999999999994893, 0.9000000000000000222, -0.3599999999999995426 ) ) ;
#60 = ADVANCED_FACE ( 'NONE', ( #1191 ), #579, .T. ) ;
#61 = CARTESIAN_POINT ( 'NONE',  ( 0.7599999999999993427, 0.8599999999999999867, 0.3599999999999999867 ) ) ;
#62 = CARTESIAN_POINT ( 'NONE',  ( -0.7599999999999994538, 0.9000000000000000222, -0.3599999999999995426 ) ) ;
#63 = EDGE_LOOP ( 'NONE', ( #350, #766, #324, #46 ) ) ;
#64 = VECTOR ( 'NONE', #487, 1000.000000000000000 ) ;
#65 = ORIENTED_EDGE ( 'NONE', *, *, #76, .T. ) ;
#66 = ADVANCED_FACE ( 'NONE', ( #177 ), #934, .T. ) ;
#67 = DIRECTION ( 'NONE',  ( -0.0000000000000000000, 1.000000000000000000, -0.0000000000000000000 ) ) ;
#68 = EDGE_LOOP ( 'NONE', ( #254, #1176, #507, #1018 ) ) ;
#69 = CARTESIAN_POINT ( 'NONE',  ( -0.7999999999999993783, 0.8599999999999999867, 0.3599999999999999867 ) ) ;
#70 = MECHANICAL_DESIGN_GEOMETRIC_PRESENTATION_REPRESENTATION (  '', ( #435 ), #213 ) ;
#71 = ORIENTED_EDGE ( 'NONE', *, *, #506, .F. ) ;
#72 = DIRECTION ( 'NONE',  ( 1.355252715606881529E-16, 0.0000000000000000000, -1.000000000000000000 ) ) ;
#73 = AXIS2_PLACEMENT_3D ( 'NONE', #231, #1112, #259 ) ;
#74 = DIRECTION ( 'NONE',  ( 1.000000000000000000, -0.0000000000000000000, 0.0000000000000000000 ) ) ;
#75 = SURFACE_STYLE_USAGE ( .BOTH. , #381 ) ;
#76 = EDGE_CURVE ( 'NONE', #1053, #1120, #816, .T. ) ;
#77 = ADVANCED_FACE ( 'NONE', ( #1038 ), #22, .T. ) ;
#78 = AXIS2_PLACEMENT_3D ( 'NONE', #23, #817, #1196 ) ;
#79 = DIRECTION ( 'NONE',  ( 1.000000000000000000, 0.0000000000000000000, 0.0000000000000000000 ) ) ;
#80 = DIRECTION ( 'NONE',  ( 0.0000000000000000000, 0.0000000000000000000, 1.000000000000000000 ) ) ;
#81 = DIRECTION ( 'NONE',  ( 1.000000000000000000, -0.0000000000000000000, -6.776263578034406410E-17 ) ) ;
#82 = DIRECTION ( 'NONE',  ( 0.0000000000000000000, 0.0000000000000000000, 1.000000000000000000 ) ) ;
#83 = CIRCLE ( 'NONE', #437, 0.03999999999999999389 ) ;
#84 = ORIENTED_EDGE ( 'NONE', *, *, #280, .T. ) ;
#85 = ORIENTED_EDGE ( 'NONE', *, *, #881, .T. ) ;
#86 = LINE ( 'NONE', #482, #320 ) ;
#87 = VERTEX_POINT ( 'NONE', #788 ) ;
#88 = ORIENTED_EDGE ( 'NONE', *, *, #940, .F. ) ;
#89 = EDGE_LOOP ( 'NONE', ( #812, #1171, #751, #1081 ) ) ;
#90 = DIRECTION ( 'NONE',  ( -1.000000000000000000, -0.0000000000000000000, -0.0000000000000000000 ) ) ;
#91 = PRODUCT_DEFINITION_FORMATION_WITH_SPECIFIED_SOURCE ( 'ANY', '', #31, .NOT_KNOWN. ) ;
#92 = CYLINDRICAL_SURFACE ( 'NONE', #1214, 0.02666666666666664756 ) ;
#93 = AXIS2_PLACEMENT_3D ( 'NONE', #731, #1021, #340 ) ;
#94 = EDGE_CURVE ( 'NONE', #126, #749, #1219, .T. ) ;
#95 = VECTOR ( 'NONE', #1108, 1000.000000000000000 ) ;
#96 = FACE_OUTER_BOUND ( 'NONE', #509, .T. ) ;
#97 = FACE_OUTER_BOUND ( 'NONE', #219, .T. ) ;
#98 = DIRECTION ( 'NONE',  ( 0.0000000000000000000, -0.0000000000000000000, -1.000000000000000000 ) ) ;
#99 = VERTEX_POINT ( 'NONE', #592 ) ;
#100 = EDGE_CURVE ( 'NONE', #405, #49, #525, .T. ) ;
#101 = ORIENTED_EDGE ( 'NONE', *, *, #681, .T. ) ;
#102 = DIRECTION ( 'NONE',  ( -1.000000000000000000, -0.0000000000000000000, -0.0000000000000000000 ) ) ;
#103 = CIRCLE ( 'NONE', #582, 0.03999999999999999389 ) ;
#104 = ORIENTED_EDGE ( 'NONE', *, *, #436, .F. ) ;
#105 =( NAMED_UNIT ( * ) SI_UNIT ( $, .STERADIAN. ) SOLID_ANGLE_UNIT ( ) );
#106 = VECTOR ( 'NONE', #896, 1000.000000000000000 ) ;
#107 = LINE ( 'NONE', #1056, #872 ) ;
#108 = VERTEX_POINT ( 'NONE', #776 ) ;
#109 = CIRCLE ( 'NONE', #804, 0.03999999999999999389 ) ;
#110 = ORIENTED_EDGE ( 'NONE', *, *, #1198, .T. ) ;
#111 = CIRCLE ( 'NONE', #1144, 0.03999999999999999389 ) ;
#112 = CLOSED_SHELL ( 'NONE', ( #479, #862, #693, #258, #448, #652, #66, #488, #565, #372, #201, #854, #77, #757, #551, #578, #245, #264 ) ) ;
#113 = VERTEX_POINT ( 'NONE', #1270 ) ;
#114 = VECTOR ( 'NONE', #874, 1000.000000000000000 ) ;
#115 = EDGE_CURVE ( 'NONE', #725, #496, #685, .T. ) ;
#116 = DIRECTION ( 'NONE',  ( 0.0000000000000000000, 1.000000000000000000, 0.0000000000000000000 ) ) ;
#117 = EDGE_CURVE ( 'NONE', #431, #798, #1276, .T. ) ;
#118 = CARTESIAN_POINT ( 'NONE',  ( 500000.0000000000582, 0.8866666666666667140, -0.3600000000433677960 ) ) ;
#119 = CIRCLE ( 'NONE', #1210, 0.03999999999999999389 ) ;
#120 = ORIENTED_EDGE ( 'NONE', *, *, #707, .T. ) ;
#121 = CIRCLE ( 'NONE', #384, 0.03999999999999999389 ) ;
#122 = DIRECTION ( 'NONE',  ( -1.000000000000000000, -0.0000000000000000000, 8.673617379884036705E-17 ) ) ;
#123 = EDGE_LOOP ( 'NONE', ( #332, #1243, #71 ) ) ;
#124 = SURFACE_STYLE_FILL_AREA ( #1130 ) ;
#125 = ORIENTED_EDGE ( 'NONE', *, *, #280, .F. ) ;
#126 = VERTEX_POINT ( 'NONE', #690 ) ;
#127 = PLANE ( 'NONE',  #425 ) ;
#128 = DIRECTION ( 'NONE',  ( 1.000000000000000000, 0.0000000000000000000, -8.673617379884036705E-17 ) ) ;
#129 = MECHANICAL_DESIGN_GEOMETRIC_PRESENTATION_REPRESENTATION (  '', ( #407 ), #293 ) ;
#130 = LINE ( 'NONE', #349, #621 ) ;
#131 = AXIS2_PLACEMENT_3D ( 'NONE', #11, #715, #987 ) ;
#132 = EDGE_CURVE ( 'NONE', #36, #478, #164, .T. ) ;
#133 = EDGE_CURVE ( 'NONE', #1065, #572, #1195, .T. ) ;
#134 = DIRECTION ( 'NONE',  ( 1.355252715606881529E-16, -0.0000000000000000000, 1.000000000000000000 ) ) ;
#135 = CARTESIAN_POINT ( 'NONE',  ( 0.4499999999999994005, 0.03999999999999999389, 0.3999999999999999667 ) ) ;
#136 = VERTEX_POINT ( 'NONE', #1054 ) ;
#137 = DIRECTION ( 'NONE',  ( 0.0000000000000000000, 0.0000000000000000000, -1.000000000000000000 ) ) ;
#138 = ORIENTED_EDGE ( 'NONE', *, *, #527, .F. ) ;
#139 = DIRECTION ( 'NONE',  ( -8.673617379884036705E-17, 0.0000000000000000000, -1.000000000000000000 ) ) ;
#140 = VECTOR ( 'NONE', #434, 1000.000000000000000 ) ;
#141 = DIRECTION ( 'NONE',  ( 1.000000000000000000, 0.0000000000000000000, -8.673617379884036705E-17 ) ) ;
#142 = EDGE_LOOP ( 'NONE', ( #887, #1091, #232 ) ) ;
#143 = CARTESIAN_POINT ( 'NONE',  ( -0.7999999999999993783, 0.03999999999999999389, 0.3599999999999999867 ) ) ;
#144 = DIRECTION ( 'NONE',  ( 0.0000000000000000000, 1.000000000000000000, 0.0000000000000000000 ) ) ;
#145 = SPHERICAL_SURFACE ( 'NONE', #873, 0.04000000000000000083 ) ;
#146 =( LENGTH_UNIT ( ) NAMED_UNIT ( * ) SI_UNIT ( .MILLI., .METRE. ) );
#147 = DIRECTION ( 'NONE',  ( -1.000000000000000000, 0.0000000000000000000, -0.0000000000000000000 ) ) ;
#148 = CARTESIAN_POINT ( 'NONE',  ( 500000.0000000000582, 0.8599999999999997646, -0.3866666667100344124 ) ) ;
#149 = AXIS2_PLACEMENT_3D ( 'NONE', #45, #355, #653 ) ;
#150 = FACE_OUTER_BOUND ( 'NONE', #366, .T. ) ;
#151 = AXIS2_PLACEMENT_3D ( 'NONE', #62, #499, #770 ) ;
#152 = VERTEX_POINT ( 'NONE', #778 ) ;
#153 = DIRECTION ( 'NONE',  ( 1.000000000000000000, -0.0000000000000000000, -0.0000000000000000000 ) ) ;
#154 = DIRECTION ( 'NONE',  ( 0.0000000000000000000, -0.0000000000000000000, 1.000000000000000000 ) ) ;
#155 = CARTESIAN_POINT ( 'NONE',  ( 0.0000000000000000000, 0.0000000000000000000, 0.0000000000000000000 ) ) ;
#156 = FACE_OUTER_BOUND ( 'NONE', #1217, .T. ) ;
#157 = ORIENTED_EDGE ( 'NONE', *, *, #133, .F. ) ;
#158 = ORIENTED_EDGE ( 'NONE', *, *, #1264, .T. ) ;
#159 = VECTOR ( 'NONE', #920, 1000.000000000000000 ) ;
#160 = DIRECTION ( 'NONE',  ( 1.355252715606881529E-16, 0.0000000000000000000, -1.000000000000000000 ) ) ;
#161 = DIRECTION ( 'NONE',  ( -1.000000000000000000, -0.0000000000000000000, 8.673617379884036705E-17 ) ) ;
#162 = EDGE_CURVE ( 'NONE', #1036, #601, #1073, .T. ) ;
#163 = ADVANCED_FACE ( 'NONE', ( #818 ), #92, .T. ) ;
#164 = LINE ( 'NONE', #581, #1180 ) ;
#165 = CARTESIAN_POINT ( 'NONE',  ( -0.4499999999999994005, 0.9000000000000000222, 0.3999999999999999667 ) ) ;
#166 = PLANE ( 'NONE',  #371 ) ;
#167 = DIRECTION ( 'NONE',  ( 1.000000000000000000, 0.0000000000000000000, 0.0000000000000000000 ) ) ;
#168 = DIRECTION ( 'NONE',  ( -1.355252715606881529E-16, 0.0000000000000000000, -1.000000000000000000 ) ) ;
#169 = ADVANCED_FACE ( 'NONE', ( #1163 ), #55, .T. ) ;
#170 = LINE ( 'NONE', #512, #106 ) ;
#171 = VERTEX_POINT ( 'NONE', #999 ) ;
#172 = DIRECTION ( 'NONE',  ( -1.000000000000000000, 0.0000000000000000000, 1.355252715606879063E-16 ) ) ;
#173 = ORIENTED_EDGE ( 'NONE', *, *, #740, .T. ) ;
#174 = UNCERTAINTY_MEASURE_WITH_UNIT (LENGTH_MEASURE( 1.000000000000000082E-05 ), #808, 'distance_accuracy_value', 'NONE');
#175 = CARTESIAN_POINT ( 'NONE',  ( 0.4500000000007275958, 0.03999999999999999389, 0.3599999999999998757 ) ) ;
#176 = VERTEX_POINT ( 'NONE', #910 ) ;
#177 = FACE_OUTER_BOUND ( 'NONE', #1251, .T. ) ;
#178 = DIRECTION ( 'NONE',  ( -0.0000000000000000000, 1.000000000000000000, -0.0000000000000000000 ) ) ;
#179 = EDGE_CURVE ( 'NONE', #1204, #398, #705, .T. ) ;
#180 = DIRECTION ( 'NONE',  ( -0.0000000000000000000, -0.0000000000000000000, -1.000000000000000000 ) ) ;
#181 =( NAMED_UNIT ( * ) PLANE_ANGLE_UNIT ( ) SI_UNIT ( $, .RADIAN. ) );
#182 = VECTOR ( 'NONE', #337, 1000.000000000000000 ) ;
#183 = DIRECTION ( 'NONE',  ( 0.0000000000000000000, 0.0000000000000000000, -1.000000000000000000 ) ) ;
#184 = VECTOR ( 'NONE', #660, 1000.000000000000000 ) ;
#185 = FACE_OUTER_BOUND ( 'NONE', #1218, .T. ) ;
#186 = ORIENTED_EDGE ( 'NONE', *, *, #1131, .F. ) ;
#187 = SURFACE_SIDE_STYLE ('',( #382 ) ) ;
#188 = VECTOR ( 'NONE', #864, 1000.000000000000000 ) ;
#189 = CLOSED_SHELL ( 'NONE', ( #667, #1223, #648, #195, #1022, #309, #276, #472, #948, #1145, #752, #971, #38, #169, #465, #1181, #764, #378 ) ) ;
#190 = EDGE_LOOP ( 'NONE', ( #5, #589, #1095, #616 ) ) ;
#191 = SPHERICAL_SURFACE ( 'NONE', #93, 0.04000000000000000083 ) ;
#192 = DIRECTION ( 'NONE',  ( 0.0000000000000000000, 0.0000000000000000000, 1.000000000000000000 ) ) ;
#193 = ORIENTED_EDGE ( 'NONE', *, *, #453, .F. ) ;
#194 = VECTOR ( 'NONE', #178, 1000.000000000000000 ) ;
#195 = ADVANCED_FACE ( 'NONE', ( #559 ), #317, .F. ) ;
#196 = CARTESIAN_POINT ( 'NONE',  ( 0.7599999999999994538, 0.8599999999999999867, -0.3599999999999995426 ) ) ;
#197 = DIRECTION ( 'NONE',  ( 0.0000000000000000000, 0.0000000000000000000, -1.000000000000000000 ) ) ;
#198 = AXIS2_PLACEMENT_3D ( 'NONE', #1162, #963, #686 ) ;
#199 = DIRECTION ( 'NONE',  ( -1.000000000000000000, 0.0000000000000000000, 0.0000000000000000000 ) ) ;
#200 = CYLINDRICAL_SURFACE ( 'NONE', #296, 0.03999999999999999389 ) ;
#201 = ADVANCED_FACE ( 'NONE', ( #847 ), #145, .T. ) ;
#202 = AXIS2_PLACEMENT_3D ( 'NONE', #943, #10, #292 ) ;
#203 = EDGE_LOOP ( 'NONE', ( #481, #173, #838, #386 ) ) ;
#204 = EDGE_LOOP ( 'NONE', ( #534, #224, #964, #966 ) ) ;
#205 = SHAPE_DEFINITION_REPRESENTATION ( #671, #825 ) ;
#206 = EDGE_CURVE ( 'NONE', #108, #152, #1128, .T. ) ;
#207 = CARTESIAN_POINT ( 'NONE',  ( -0.4499999999999995115, 0.03999999999999999389, -0.3866666666666662699 ) ) ;
#208 = VERTEX_POINT ( 'NONE', #265 ) ;
#209 = CARTESIAN_POINT ( 'NONE',  ( 0.7599999999999994538, 0.04000000000000000083, -0.3599999999999995426 ) ) ;
#210 = CARTESIAN_POINT ( 'NONE',  ( 500000.0000000000582, 0.8599999999999999867, 0.3866666666232985161 ) ) ;
#211 = CARTESIAN_POINT ( 'NONE',  ( 0.4499999999999994560, 0.0000000000000000000, -0.3599999999999996536 ) ) ;
#212 = DIRECTION ( 'NONE',  ( 0.0000000000000000000, 1.000000000000000000, 0.0000000000000000000 ) ) ;
#214 = CIRCLE ( 'NONE', #279, 0.02666666666666669960 ) ;
#213 =( GEOMETRIC_REPRESENTATION_CONTEXT ( 3 ) GLOBAL_UNCERTAINTY_ASSIGNED_CONTEXT ( ( #174 ) ) GLOBAL_UNIT_ASSIGNED_CONTEXT ( ( #808, #413, #105 ) ) REPRESENTATION_CONTEXT ( 'NONE', 'WORKASPACE' ) );
#215 = ORIENTED_EDGE ( 'NONE', *, *, #960, .T. ) ;
#216 = DIRECTION ( 'NONE',  ( -1.000000000000000000, 0.0000000000000000000, -3.097720492815726673E-16 ) ) ;
#217 = FACE_OUTER_BOUND ( 'NONE', #520, .T. ) ;
#218 = AXIS2_PLACEMENT_3D ( 'NONE', #12, #216, #912 ) ;
#219 = EDGE_LOOP ( 'NONE', ( #352, #676, #664, #85 ) ) ;
#220 = VERTEX_POINT ( 'NONE', #558 ) ;
#221 = AXIS2_PLACEMENT_3D ( 'NONE', #391, #1068, #80 ) ;
#222 = CARTESIAN_POINT ( 'NONE',  ( 0.4500000000007275958, 0.8599999999999999867, 0.3866666666666665475 ) ) ;
#223 = FACE_OUTER_BOUND ( 'NONE', #416, .T. ) ;
#224 = ORIENTED_EDGE ( 'NONE', *, *, #851, .F. ) ;
#225 = MECHANICAL_DESIGN_GEOMETRIC_PRESENTATION_REPRESENTATION (  '', ( #718 ), #339 ) ;
#226 = CARTESIAN_POINT ( 'NONE',  ( 0.7999999999999993783, 0.8599999999999999867, 0.3599999999999999867 ) ) ;
#227 = EDGE_CURVE ( 'NONE', #811, #1269, #298, .T. ) ;
#228 = UNCERTAINTY_MEASURE_WITH_UNIT (LENGTH_MEASURE( 1.000000000000000082E-05 ), #756, 'distance_accuracy_value', 'NONE');
#229 = DIRECTION ( 'NONE',  ( -1.000000000000000000, 0.0000000000000000000, 0.0000000000000000000 ) ) ;
#230 = DIRECTION ( 'NONE',  ( -1.000000000000000000, -0.0000000000000000000, 8.673617379884036705E-17 ) ) ;
#231 = CARTESIAN_POINT ( 'NONE',  ( -0.4499999999999995115, 0.03999999999999999389, -0.3599999999999996536 ) ) ;
#232 = ORIENTED_EDGE ( 'NONE', *, *, #1272, .F. ) ;
#233 = CARTESIAN_POINT ( 'NONE',  ( 0.4499999999999994005, 0.8599999999999999867, 0.3999999999999999667 ) ) ;
#234 = EDGE_LOOP ( 'NONE', ( #33, #84, #1049, #1156 ) ) ;
#235 = CARTESIAN_POINT ( 'NONE',  ( 0.7599999999999994538, 0.9000000000000000222, -0.3599999999999995426 ) ) ;
#236 = ORIENTED_EDGE ( 'NONE', *, *, #591, .F. ) ;
#237 = CARTESIAN_POINT ( 'NONE',  ( -0.4499999999999994005, 0.04000000000000021594, 0.3866666666666666030 ) ) ;
#238 = CARTESIAN_POINT ( 'NONE',  ( 0.4499999999999994560, 0.9000000000000000222, -0.3999999999999996336 ) ) ;
#239 = CARTESIAN_POINT ( 'NONE',  ( 500000.0000000000582, 0.8599999999999999867, 0.3866666666232984606 ) ) ;
#240 = APPLICATION_CONTEXT ( 'automotive_design' ) ;
#241 = AXIS2_PLACEMENT_3D ( 'NONE', #1042, #759, #160 ) ;
#242 = FACE_OUTER_BOUND ( 'NONE', #1109, .T. ) ;
#243 = AXIS2_PLACEMENT_3D ( 'NONE', #1261, #168, #172 ) ;
#244 = DIRECTION ( 'NONE',  ( 6.776263578034406410E-17, 0.0000000000000000000, 1.000000000000000000 ) ) ;
#245 = ADVANCED_FACE ( 'NONE', ( #185 ), #519, .T. ) ;
#246 = VECTOR ( 'NONE', #607, 1000.000000000000000 ) ;
#247 = CIRCLE ( 'NONE', #21, 0.03999999999999999389 ) ;
#248 =( NAMED_UNIT ( * ) PLANE_ANGLE_UNIT ( ) SI_UNIT ( $, .RADIAN. ) );
#249 = ORIENTED_EDGE ( 'NONE', *, *, #206, .T. ) ;
#250 = EDGE_LOOP ( 'NONE', ( #157, #1094, #696, #367 ) ) ;
#251 = CYLINDRICAL_SURFACE ( 'NONE', #647, 0.03999999999999999389 ) ;
#252 = ORIENTED_EDGE ( 'NONE', *, *, #573, .F. ) ;
#253 = PLANE ( 'NONE',  #972 ) ;
#254 = ORIENTED_EDGE ( 'NONE', *, *, #678, .F. ) ;
#255 = CARTESIAN_POINT ( 'NONE',  ( 0.7999999999999993783, 0.03999999999999999389, 0.3599999999999999867 ) ) ;
#256 = EDGE_CURVE ( 'NONE', #87, #176, #762, .T. ) ;
#257 = LINE ( 'NONE', #1100, #1048 ) ;
#258 = ADVANCED_FACE ( 'NONE', ( #330 ), #466, .F. ) ;
#259 = DIRECTION ( 'NONE',  ( 0.0000000000000000000, 0.0000000000000000000, -1.000000000000000000 ) ) ;
#260 = DIRECTION ( 'NONE',  ( 1.000000000000000000, 0.0000000000000000000, 6.776263578034406410E-17 ) ) ;
#261 = CARTESIAN_POINT ( 'NONE',  ( -0.7599999999999994538, 0.8599999999999999867, -0.3599999999999995426 ) ) ;
#262 = LINE ( 'NONE', #458, #1009 ) ;
#263 = DIRECTION ( 'NONE',  ( -0.0000000000000000000, 1.000000000000000000, 0.0000000000000000000 ) ) ;
#264 = ADVANCED_FACE ( 'NONE', ( #40 ), #583, .T. ) ;
#265 = CARTESIAN_POINT ( 'NONE',  ( -0.4499999999999995115, 0.8866666666666667140, -0.3599999999999996536 ) ) ;
#266 = CARTESIAN_POINT ( 'NONE',  ( 0.7599999999999994538, 0.03999999999999999389, -0.3599999999999995426 ) ) ;
#267 = DIRECTION ( 'NONE',  ( 0.0000000000000000000, -0.0000000000000000000, 1.000000000000000000 ) ) ;
#268 = VECTOR ( 'NONE', #703, 1000.000000000000000 ) ;
#269 = VECTOR ( 'NONE', #539, 1000.000000000000000 ) ;
#270 = CARTESIAN_POINT ( 'NONE',  ( 0.4500000000007275958, 0.03999999999999999389, -0.3866666666666663810 ) ) ;
#271 = ORIENTED_EDGE ( 'NONE', *, *, #9, .F. ) ;
#272 = DIRECTION ( 'NONE',  ( -1.000000000000000000, -0.0000000000000000000, -0.0000000000000000000 ) ) ;
#273 = COLOUR_RGB ( '',0.7921568627450980005, 0.8196078431372548767, 0.9333333333333333481 ) ;
#274 = ORIENTED_EDGE ( 'NONE', *, *, #461, .F. ) ;
#275 = MECHANICAL_DESIGN_GEOMETRIC_PRESENTATION_REPRESENTATION (  '', ( #761 ), #993 ) ;
#276 = ADVANCED_FACE ( 'NONE', ( #634 ), #657, .T. ) ;
#277 = EDGE_LOOP ( 'NONE', ( #991, #782, #1067 ) ) ;
#278 = DIRECTION ( 'NONE',  ( 0.0000000000000000000, -1.000000000000000000, 0.0000000000000000000 ) ) ;
#279 = AXIS2_PLACEMENT_3D ( 'NONE', #633, #345, #58 ) ;
#280 = EDGE_CURVE ( 'NONE', #1269, #841, #545, .T. ) ;
#281 = EDGE_CURVE ( 'NONE', #1125, #136, #1200, .T. ) ;
#282 = ADVANCED_FACE ( 'NONE', ( #150 ), #944, .T. ) ;
#283 = FILL_AREA_STYLE_COLOUR ( '', #1202 ) ;
#284 = CARTESIAN_POINT ( 'NONE',  ( -0.7999999999999994893, 0.03999999999999999389, -0.3599999999999995426 ) ) ;
#285 = DIRECTION ( 'NONE',  ( -1.000000000000000000, 0.0000000000000000000, 3.097720492815726673E-16 ) ) ;
#286 = LINE ( 'NONE', #846, #1026 ) ;
#287 = ORIENTED_EDGE ( 'NONE', *, *, #1264, .F. ) ;
#288 = ORIENTED_EDGE ( 'NONE', *, *, #206, .F. ) ;
#289 = VECTOR ( 'NONE', #116, 1000.000000000000000 ) ;
#290 = EDGE_LOOP ( 'NONE', ( #521, #477, #857, #547 ) ) ;
#291 = DIRECTION ( 'NONE',  ( -6.776263578034406410E-17, 0.0000000000000000000, 1.000000000000000000 ) ) ;
#292 = DIRECTION ( 'NONE',  ( 0.0000000000000000000, 0.0000000000000000000, -1.000000000000000000 ) ) ;
#293 =( GEOMETRIC_REPRESENTATION_CONTEXT ( 3 ) GLOBAL_UNCERTAINTY_ASSIGNED_CONTEXT ( ( #1197 ) ) GLOBAL_UNIT_ASSIGNED_CONTEXT ( ( #973, #181, #1072 ) ) REPRESENTATION_CONTEXT ( 'NONE', 'WORKASPACE' ) );
#294 = VERTEX_POINT ( 'NONE', #554 ) ;
#295 = ORIENTED_EDGE ( 'NONE', *, *, #394, .T. ) ;
#296 = AXIS2_PLACEMENT_3D ( 'NONE', #1122, #1220, #834 ) ;
#297 = CARTESIAN_POINT ( 'NONE',  ( 0.7999999999999993783, 0.9000000000000000222, 0.3999999999999999667 ) ) ;
#298 = CIRCLE ( 'NONE', #1237, 0.03999999999999999389 ) ;
#299 = EDGE_CURVE ( 'NONE', #879, #1234, #107, .T. ) ;
#300 = DIRECTION ( 'NONE',  ( 0.0000000000000000000, 0.0000000000000000000, 1.000000000000000000 ) ) ;
#301 = CARTESIAN_POINT ( 'NONE',  ( 0.7599999999999993427, 0.8599999999999999867, 0.3599999999999999867 ) ) ;
#302 = CARTESIAN_POINT ( 'NONE',  ( 0.4500000000007275958, 0.03999999999999999389, -0.3866666666666663810 ) ) ;
#303 = FACE_OUTER_BOUND ( 'NONE', #714, .T. ) ;
#304 = EDGE_CURVE ( 'NONE', #464, #1079, #286, .T. ) ;
#305 = ORIENTED_EDGE ( 'NONE', *, *, #1212, .T. ) ;
#306 = DIRECTION ( 'NONE',  ( -1.000000000000000000, 0.0000000000000000000, 3.097720492815726673E-16 ) ) ;
#307 = VERTEX_POINT ( 'NONE', #502 ) ;
#308 = ORIENTED_EDGE ( 'NONE', *, *, #540, .T. ) ;
#309 = ADVANCED_FACE ( 'NONE', ( #16 ), #166, .F. ) ;
#310 = DIRECTION ( 'NONE',  ( 1.000000000000000000, -0.0000000000000000000, -0.0000000000000000000 ) ) ;
#311 = EDGE_LOOP ( 'NONE', ( #976, #532, #927, #1107 ) ) ;
#312 = CARTESIAN_POINT ( 'NONE',  ( -0.7599999999999993427, 0.0000000000000000000, 0.3599999999999999867 ) ) ;
#313 = CARTESIAN_POINT ( 'NONE',  ( -0.7599999999999993427, 0.9000000000000000222, 0.3999999999999999667 ) ) ;
#314 = DIRECTION ( 'NONE',  ( -1.000000000000000000, 0.0000000000000000000, 6.776263578034406410E-17 ) ) ;
#315 = DIRECTION ( 'NONE',  ( -1.000000000000000000, -0.0000000000000000000, 8.673617379884036705E-17 ) ) ;
#316 = AXIS2_PLACEMENT_3D ( 'NONE', #238, #745, #1030 ) ;
#317 = PLANE ( 'NONE',  #78 ) ;
#318 = ORIENTED_EDGE ( 'NONE', *, *, #983, .F. ) ;
#319 = ORIENTED_EDGE ( 'NONE', *, *, #411, .T. ) ;
#320 = VECTOR ( 'NONE', #1060, 1000.000000000000000 ) ;
#321 = EDGE_CURVE ( 'NONE', #725, #1126, #1136, .T. ) ;
#322 = CARTESIAN_POINT ( 'NONE',  ( -0.4499999999999995115, 0.03999999999999999389, -0.3866666666666662699 ) ) ;
#323 = ORIENTED_EDGE ( 'NONE', *, *, #94, .T. ) ;
#324 = ORIENTED_EDGE ( 'NONE', *, *, #1177, .T. ) ;
#325 = FACE_OUTER_BOUND ( 'NONE', #641, .T. ) ;
#326 = ORIENTED_EDGE ( 'NONE', *, *, #917, .T. ) ;
#327 = FILL_AREA_STYLE_COLOUR ( '', #273 ) ;
#328 = EDGE_CURVE ( 'NONE', #176, #171, #598, .T. ) ;
#329 = VECTOR ( 'NONE', #542, 1000.000000000000000 ) ;
#330 = FACE_OUTER_BOUND ( 'NONE', #311, .T. ) ;
#331 = DIRECTION ( 'NONE',  ( -0.0000000000000000000, 0.0000000000000000000, -1.000000000000000000 ) ) ;
#332 = ORIENTED_EDGE ( 'NONE', *, *, #390, .F. ) ;
#333 = VECTOR ( 'NONE', #877, 1000.000000000000000 ) ;
#334 = ORIENTED_EDGE ( 'NONE', *, *, #1169, .F. ) ;
#335 = CARTESIAN_POINT ( 'NONE',  ( -0.7599999999999993427, 0.9000000000000000222, 0.3599999999999999867 ) ) ;
#336 = ORIENTED_EDGE ( 'NONE', *, *, #1043, .T. ) ;
#337 = DIRECTION ( 'NONE',  ( 1.000000000000000000, -0.0000000000000000000, -3.097720492815726673E-16 ) ) ;
#338 = ORIENTED_EDGE ( 'NONE', *, *, #227, .F. ) ;
#339 =( GEOMETRIC_REPRESENTATION_CONTEXT ( 3 ) GLOBAL_UNCERTAINTY_ASSIGNED_CONTEXT ( ( #867 ) ) GLOBAL_UNIT_ASSIGNED_CONTEXT ( ( #146, #556, #750 ) ) REPRESENTATION_CONTEXT ( 'NONE', 'WORKASPACE' ) );
#340 = DIRECTION ( 'NONE',  ( -1.000000000000000000, 0.0000000000000000000, 0.0000000000000000000 ) ) ;
#341 = CARTESIAN_POINT ( 'NONE',  ( -0.4499999999999994005, 0.8599999999999999867, 0.3866666666666666585 ) ) ;
#342 = EDGE_CURVE ( 'NONE', #601, #698, #28, .T. ) ;
#343 = AXIS2_PLACEMENT_3D ( 'NONE', #1257, #674, #880 ) ;
#344 = CARTESIAN_POINT ( 'NONE',  ( 500000.0000000000582, 0.01333333333333333245, 0.3599999999566318443 ) ) ;
#345 = DIRECTION ( 'NONE',  ( 1.000000000000000000, 0.0000000000000000000, 6.776263578034406410E-17 ) ) ;
#346 = FACE_OUTER_BOUND ( 'NONE', #523, .T. ) ;
#347 = VECTOR ( 'NONE', #638, 1000.000000000000000 ) ;
#348 = ORIENTED_EDGE ( 'NONE', *, *, #570, .F. ) ;
#349 = CARTESIAN_POINT ( 'NONE',  ( 0.7599999999999994538, 0.9000000000000000222, -0.3999999999999995226 ) ) ;
#350 = ORIENTED_EDGE ( 'NONE', *, *, #573, .T. ) ;
#351 = DIRECTION ( 'NONE',  ( 1.000000000000000000, 0.0000000000000000000, 0.0000000000000000000 ) ) ;
#352 = ORIENTED_EDGE ( 'NONE', *, *, #1247, .F. ) ;
#353 = ORIENTED_EDGE ( 'NONE', *, *, #179, .T. ) ;
#354 = LINE ( 'NONE', #165, #790 ) ;
#355 = DIRECTION ( 'NONE',  ( 1.000000000000000000, 0.0000000000000000000, -8.673617379884036705E-17 ) ) ;
#356 = FACE_OUTER_BOUND ( 'NONE', #463, .T. ) ;
#357 = CARTESIAN_POINT ( 'NONE',  ( -0.7599999999999994538, 0.04000000000000000083, -0.3599999999999995426 ) ) ;
#358 = APPLICATION_PROTOCOL_DEFINITION ( 'draft international standard', 'automotive_design', 1998, #1244 ) ;
#359 = AXIS2_PLACEMENT_3D ( 'NONE', #996, #614, #410 ) ;
#360 = LINE ( 'NONE', #823, #95 ) ;
#361 = AXIS2_PLACEMENT_3D ( 'NONE', #1252, #672, #1138 ) ;
#362 = VECTOR ( 'NONE', #644, 1000.000000000000000 ) ;
#363 = CIRCLE ( 'NONE', #893, 0.02666666666666664756 ) ;
#364 = VECTOR ( 'NONE', #285, 1000.000000000000000 ) ;
#365 = DIRECTION ( 'NONE',  ( 0.0000000000000000000, 0.0000000000000000000, 1.000000000000000000 ) ) ;
#366 = EDGE_LOOP ( 'NONE', ( #617, #110, #890, #1064 ) ) ;
#367 = ORIENTED_EDGE ( 'NONE', *, *, #806, .F. ) ;
#368 = CARTESIAN_POINT ( 'NONE',  ( 0.4499999999999994560, 0.9000000000000000222, -0.3599999999999996536 ) ) ;
#369 = EDGE_CURVE ( 'NONE', #601, #398, #83, .T. ) ;
#370 = CARTESIAN_POINT ( 'NONE',  ( -0.7599999999999993427, 0.03999999999999999389, 0.3599999999999999867 ) ) ;
#371 = AXIS2_PLACEMENT_3D ( 'NONE', #599, #795, #192 ) ;
#372 = ADVANCED_FACE ( 'NONE', ( #748 ), #797, .T. ) ;
#373 =( NAMED_UNIT ( * ) SI_UNIT ( $, .STERADIAN. ) SOLID_ANGLE_UNIT ( ) );
#374 = CARTESIAN_POINT ( 'NONE',  ( -0.7599999999999993427, 0.03999999999999999389, 0.3599999999999999867 ) ) ;
#375 = CARTESIAN_POINT ( 'NONE',  ( 0.4499999999999994005, 0.03999999999999999389, 0.3599999999999999867 ) ) ;
#376 = CARTESIAN_POINT ( 'NONE',  ( 500000.0000000000582, 0.8599999999999999867, 0.3599999999566318443 ) ) ;
#377 =( LENGTH_UNIT ( ) NAMED_UNIT ( * ) SI_UNIT ( .MILLI., .METRE. ) );
#378 = ADVANCED_FACE ( 'NONE', ( #97 ), #914, .T. ) ;
#379 = DIRECTION ( 'NONE',  ( 6.776263578034406410E-17, -0.0000000000000000000, -1.000000000000000000 ) ) ;
#380 = FACE_OUTER_BOUND ( 'NONE', #950, .T. ) ;
#381 = SURFACE_SIDE_STYLE ('',( #946 ) ) ;
#382 = SURFACE_STYLE_FILL_AREA ( #1266 ) ;
#383 = ORIENTED_EDGE ( 'NONE', *, *, #618, .F. ) ;
#384 = AXIS2_PLACEMENT_3D ( 'NONE', #577, #665, #866 ) ;
#385 = ORIENTED_EDGE ( 'NONE', *, *, #1070, .T. ) ;
#386 = ORIENTED_EDGE ( 'NONE', *, *, #162, .T. ) ;
#387 = AXIS2_PLACEMENT_3D ( 'NONE', #957, #314, #244 ) ;
#388 = CYLINDRICAL_SURFACE ( 'NONE', #786, 0.03999999999999999389 ) ;
#389 =( NAMED_UNIT ( * ) PLANE_ANGLE_UNIT ( ) SI_UNIT ( $, .RADIAN. ) );
#390 = EDGE_CURVE ( 'NONE', #1238, #916, #623, .T. ) ;
#391 = CARTESIAN_POINT ( 'NONE',  ( -0.7599999999999993427, 0.8599999999999999867, 0.3599999999999999867 ) ) ;
#392 = CARTESIAN_POINT ( 'NONE',  ( 0.7599999999999994538, 0.8599999999999999867, -0.3599999999999995426 ) ) ;
#393 = DIRECTION ( 'NONE',  ( 0.0000000000000000000, -1.000000000000000000, 0.0000000000000000000 ) ) ;
#394 = EDGE_CURVE ( 'NONE', #1079, #722, #780, .T. ) ;
#395 = SURFACE_STYLE_USAGE ( .BOTH. , #187 ) ;
#396 = LINE ( 'NONE', #1124, #925 ) ;
#397 = FACE_OUTER_BOUND ( 'NONE', #905, .T. ) ;
#398 = VERTEX_POINT ( 'NONE', #536 ) ;
#399 = ORIENTED_EDGE ( 'NONE', *, *, #1198, .F. ) ;
#400 = DIRECTION ( 'NONE',  ( -1.505836350674312974E-16, 0.0000000000000000000, -1.000000000000000000 ) ) ;
#401 = CARTESIAN_POINT ( 'NONE',  ( 0.7999999999999994893, 0.03999999999999999389, -0.3999999999999995226 ) ) ;
#402 = ORIENTED_EDGE ( 'NONE', *, *, #42, .F. ) ;
#403 = CARTESIAN_POINT ( 'NONE',  ( -0.7999999999999993783, 0.03999999999999999389, 0.3599999999999999867 ) ) ;
#404 = CYLINDRICAL_SURFACE ( 'NONE', #622, 0.03999999999999999389 ) ;
#405 = VERTEX_POINT ( 'NONE', #135 ) ;
#406 = DIRECTION ( 'NONE',  ( -1.000000000000000000, 0.0000000000000000000, 0.0000000000000000000 ) ) ;
#407 = STYLED_ITEM ( 'NONE', ( #711 ), #1182 ) ;
#408 = AXIS2_PLACEMENT_3D ( 'NONE', #1224, #1024, #449 ) ;
#409 = EDGE_CURVE ( 'NONE', #1065, #99, #1089, .T. ) ;
#410 = DIRECTION ( 'NONE',  ( 0.0000000000000000000, 0.0000000000000000000, 1.000000000000000000 ) ) ;
#411 = EDGE_CURVE ( 'NONE', #426, #801, #214, .T. ) ;
#412 = ORIENTED_EDGE ( 'NONE', *, *, #162, .F. ) ;
#413 =( NAMED_UNIT ( * ) PLANE_ANGLE_UNIT ( ) SI_UNIT ( $, .RADIAN. ) );
#414 = CYLINDRICAL_SURFACE ( 'NONE', #821, 0.02666666666666664756 ) ;
#415 = ORIENTED_EDGE ( 'NONE', *, *, #897, .F. ) ;
#416 = EDGE_LOOP ( 'NONE', ( #348, #326, #1186, #1003 ) ) ;
#417 = LINE ( 'NONE', #628, #140 ) ;
#418 = VECTOR ( 'NONE', #278, 1000.000000000000000 ) ;
#419 = CARTESIAN_POINT ( 'NONE',  ( -0.7599999999999994538, 0.8599999999999999867, -0.3599999999999995426 ) ) ;
#420 = CARTESIAN_POINT ( 'NONE',  ( -0.4499999999999994560, 0.8599999999999999867, -0.3999999999999996336 ) ) ;
#421 = PRODUCT_RELATED_PRODUCT_CATEGORY ( 'part', '', ( #31 ) ) ;
#422 = CARTESIAN_POINT ( 'NONE',  ( 0.7599999999999994538, 0.0000000000000000000, -0.3599999999999995426 ) ) ;
#423 = LINE ( 'NONE', #977, #1117 ) ;
#424 = VECTOR ( 'NONE', #1139, 1000.000000000000000 ) ;
#425 = AXIS2_PLACEMENT_3D ( 'NONE', #1129, #530, #1229 ) ;
#426 = VERTEX_POINT ( 'NONE', #1032 ) ;
#427 = ORIENTED_EDGE ( 'NONE', *, *, #595, .F. ) ;
#428 = EDGE_CURVE ( 'NONE', #113, #307, #1231, .T. ) ;
#429 = CARTESIAN_POINT ( 'NONE',  ( -0.7999999999999994893, 0.8599999999999999867, -0.3599999999999995426 ) ) ;
#430 = ORIENTED_EDGE ( 'NONE', *, *, #1106, .F. ) ;
#431 = VERTEX_POINT ( 'NONE', #341 ) ;
#432 = FACE_OUTER_BOUND ( 'NONE', #123, .T. ) ;
#433 = AXIS2_PLACEMENT_3D ( 'NONE', #658, #837, #1033 ) ;
#434 = DIRECTION ( 'NONE',  ( -1.000000000000000000, -0.0000000000000000000, -3.097720492815726673E-16 ) ) ;
#435 = STYLED_ITEM ( 'NONE', ( #1005 ), #974 ) ;
#436 = EDGE_CURVE ( 'NONE', #749, #478, #247, .T. ) ;
#437 = AXIS2_PLACEMENT_3D ( 'NONE', #450, #1225, #533 ) ;
#438 = DIRECTION ( 'NONE',  ( 0.0000000000000000000, 0.0000000000000000000, -1.000000000000000000 ) ) ;
#439 = DIRECTION ( 'NONE',  ( -1.355252715606881529E-16, -0.0000000000000000000, -1.000000000000000000 ) ) ;
#440 = CIRCLE ( 'NONE', #1098, 0.03999999999999999389 ) ;
#441 = DIRECTION ( 'NONE',  ( 1.000000000000000000, -0.0000000000000000000, 0.0000000000000000000 ) ) ;
#442 = CARTESIAN_POINT ( 'NONE',  ( -0.7999999999999994893, 0.8599999999999999867, -0.3999999999999995226 ) ) ;
#443 = ORIENTED_EDGE ( 'NONE', *, *, #328, .T. ) ;
#444 = ORIENTED_EDGE ( 'NONE', *, *, #369, .F. ) ;
#445 = ORIENTED_EDGE ( 'NONE', *, *, #8, .T. ) ;
#446 = DIRECTION ( 'NONE',  ( 1.000000000000000000, 0.0000000000000000000, 0.0000000000000000000 ) ) ;
#447 = ORIENTED_EDGE ( 'NONE', *, *, #100, .F. ) ;
#448 = ADVANCED_FACE ( 'NONE', ( #1076 ), #253, .T. ) ;
#449 = DIRECTION ( 'NONE',  ( -8.673617379884036705E-17, 0.0000000000000000000, -1.000000000000000000 ) ) ;
#450 = CARTESIAN_POINT ( 'NONE',  ( -0.7599999999999993427, 0.8599999999999999867, 0.3599999999999999867 ) ) ;
#451 = SURFACE_SIDE_STYLE ('',( #124 ) ) ;
#452 = CARTESIAN_POINT ( 'NONE',  ( -0.4499999999999994560, 0.03999999999999999389, -0.3999999999999996336 ) ) ;
#453 = EDGE_CURVE ( 'NONE', #126, #980, #491, .T. ) ;
#454 = PLANE ( 'NONE',  #516 ) ;
#455 =( NAMED_UNIT ( * ) SI_UNIT ( $, .STERADIAN. ) SOLID_ANGLE_UNIT ( ) );
#456 = CIRCLE ( 'NONE', #131, 0.03999999999999999389 ) ;
#457 = ORIENTED_EDGE ( 'NONE', *, *, #765, .F. ) ;
#458 = CARTESIAN_POINT ( 'NONE',  ( 0.7999999999999993783, 0.8599999999999999867, 0.3999999999999999667 ) ) ;
#459 = ORIENTED_EDGE ( 'NONE', *, *, #871, .T. ) ;
#460 = CARTESIAN_POINT ( 'NONE',  ( 500000.0000000000582, 0.03999999999999999389, -0.3866666667100344124 ) ) ;
#461 = EDGE_CURVE ( 'NONE', #1079, #682, #363, .T. ) ;
#462 = LINE ( 'NONE', #1148, #188 ) ;
#463 = EDGE_LOOP ( 'NONE', ( #427, #88, #430, #1093 ) ) ;
#464 = VERTEX_POINT ( 'NONE', #828 ) ;
#465 = ADVANCED_FACE ( 'NONE', ( #856 ), #200, .T. ) ;
#466 = PLANE ( 'NONE',  #361 ) ;
#467 = DIRECTION ( 'NONE',  ( 0.0000000000000000000, 0.0000000000000000000, 1.000000000000000000 ) ) ;
#468 = DIRECTION ( 'NONE',  ( -1.000000000000000000, 0.0000000000000000000, 0.0000000000000000000 ) ) ;
#469 = DIRECTION ( 'NONE',  ( 0.0000000000000000000, 0.0000000000000000000, 1.000000000000000000 ) ) ;
#470 = CARTESIAN_POINT ( 'NONE',  ( -0.4499999999999994005, 0.8599999999999999867, 0.3599999999999999867 ) ) ;
#471 = DIRECTION ( 'NONE',  ( 1.000000000000000000, 0.0000000000000000000, 6.776263578034406410E-17 ) ) ;
#472 = ADVANCED_FACE ( 'NONE', ( #886 ), #39, .T. ) ;
#473 = DIRECTION ( 'NONE',  ( -1.000000000000000000, 0.0000000000000000000, 0.0000000000000000000 ) ) ;
#474 = CARTESIAN_POINT ( 'NONE',  ( 0.4499999999999994005, 0.9000000000000000222, 0.3999999999999999667 ) ) ;
#475 = CARTESIAN_POINT ( 'NONE',  ( -0.7999999999999994893, 0.03999999999999999389, -0.3999999999999995226 ) ) ;
#476 = PRESENTATION_LAYER_ASSIGNMENT (  '', '', ( #407 ) ) ;
#477 = ORIENTED_EDGE ( 'NONE', *, *, #608, .T. ) ;
#478 = VERTEX_POINT ( 'NONE', #452 ) ;
#479 = ADVANCED_FACE ( 'NONE', ( #1088 ), #127, .F. ) ;
#480 = AXIS2_PLACEMENT_3D ( 'NONE', #746, #941, #645 ) ;
#481 = ORIENTED_EDGE ( 'NONE', *, *, #342, .T. ) ;
#482 = CARTESIAN_POINT ( 'NONE',  ( -0.7599999999999993427, 0.9000000000000000222, 0.3999999999999999667 ) ) ;
#483 = EDGE_CURVE ( 'NONE', #722, #961, #885, .T. ) ;
#484 = FACE_OUTER_BOUND ( 'NONE', #32, .T. ) ;
#485 = EDGE_CURVE ( 'NONE', #108, #220, #779, .T. ) ;
#486 = CARTESIAN_POINT ( 'NONE',  ( 0.0000000000000000000, 0.8599999999999999867, 0.3599999999999999867 ) ) ;
#487 = DIRECTION ( 'NONE',  ( 0.0000000000000000000, -1.000000000000000000, -0.0000000000000000000 ) ) ;
#488 = ADVANCED_FACE ( 'NONE', ( #96 ), #1062, .T. ) ;
#489 = DIRECTION ( 'NONE',  ( -1.000000000000000000, 0.0000000000000000000, 0.0000000000000000000 ) ) ;
#490 = LINE ( 'NONE', #475, #184 ) ;
#491 = LINE ( 'NONE', #1023, #269 ) ;
#492 = ORIENTED_EDGE ( 'NONE', *, *, #618, .T. ) ;
#493 = LINE ( 'NONE', #25, #859 ) ;
#494 = DIRECTION ( 'NONE',  ( 1.000000000000000000, 0.0000000000000000000, 3.097720492815726673E-16 ) ) ;
#495 = EDGE_LOOP ( 'NONE', ( #889, #318, #574, #511 ) ) ;
#496 = VERTEX_POINT ( 'NONE', #1090 ) ;
#497 = AXIS2_PLACEMENT_3D ( 'NONE', #1222, #921, #41 ) ;
#498 = DIRECTION ( 'NONE',  ( 0.0000000000000000000, 0.0000000000000000000, -1.000000000000000000 ) ) ;
#499 = DIRECTION ( 'NONE',  ( 0.0000000000000000000, -1.000000000000000000, 0.0000000000000000000 ) ) ;
#500 = EDGE_CURVE ( 'NONE', #49, #981, #170, .T. ) ;
#501 = DIRECTION ( 'NONE',  ( -1.000000000000000000, 0.0000000000000000000, 0.0000000000000000000 ) ) ;
#502 = CARTESIAN_POINT ( 'NONE',  ( 0.4499999999999994560, 0.03999999999999999389, -0.3999999999999996336 ) ) ;
#503 = PLANE ( 'NONE',  #316 ) ;
#504 = PRESENTATION_LAYER_ASSIGNMENT (  '', '', ( #435 ) ) ;
#505 = EDGE_CURVE ( 'NONE', #981, #307, #456, .T. ) ;
#506 = EDGE_CURVE ( 'NONE', #916, #1234, #15, .T. ) ;
#507 = ORIENTED_EDGE ( 'NONE', *, *, #827, .T. ) ;
#508 = SURFACE_STYLE_FILL_AREA ( #717 ) ;
#509 = EDGE_LOOP ( 'NONE', ( #1037, #186, #444, #412 ) ) ;
#510 = DIRECTION ( 'NONE',  ( 0.0000000000000000000, 1.000000000000000000, 0.0000000000000000000 ) ) ;
#511 = ORIENTED_EDGE ( 'NONE', *, *, #681, .F. ) ;
#512 = CARTESIAN_POINT ( 'NONE',  ( 0.4499999999999994560, 0.0000000000000000000, -0.3999999999999996336 ) ) ;
#513 = DIRECTION ( 'NONE',  ( 1.000000000000000000, -0.0000000000000000000, -3.097720492815726673E-16 ) ) ;
#514 = CARTESIAN_POINT ( 'NONE',  ( -0.7599999999999993427, 0.04000000000000000083, 0.3599999999999999867 ) ) ;
#515 = CARTESIAN_POINT ( 'NONE',  ( 0.7999999999999993783, 0.03999999999999999389, 0.3599999999999999867 ) ) ;
#516 = AXIS2_PLACEMENT_3D ( 'NONE', #835, #743, #147 ) ;
#517 = DIRECTION ( 'NONE',  ( -1.000000000000000000, -0.0000000000000000000, -0.0000000000000000000 ) ) ;
#518 = CYLINDRICAL_SURFACE ( 'NONE', #561, 0.03999999999999999389 ) ;
#519 = SPHERICAL_SURFACE ( 'NONE', #997, 0.04000000000000000083 ) ;
#520 = EDGE_LOOP ( 'NONE', ( #43, #1188, #215, #1137 ) ) ;
#521 = ORIENTED_EDGE ( 'NONE', *, *, #304, .F. ) ;
#522 = FACE_OUTER_BOUND ( 'NONE', #1004, .T. ) ;
#523 = EDGE_LOOP ( 'NONE', ( #878, #3, #769, #193 ) ) ;
#524 = ORIENTED_EDGE ( 'NONE', *, *, #1169, .T. ) ;
#525 = CIRCLE ( 'NONE', #1150, 0.03999999999999999389 ) ;
#526 = SURFACE_STYLE_USAGE ( .BOTH. , #998 ) ;
#527 = EDGE_CURVE ( 'NONE', #841, #1125, #610, .T. ) ;
#528 = LINE ( 'NONE', #313, #984 ) ;
#529 = LINE ( 'NONE', #210, #888 ) ;
#530 = DIRECTION ( 'NONE',  ( 1.000000000000000000, 0.0000000000000000000, -1.355252715606881529E-16 ) ) ;
#531 = ORIENTED_EDGE ( 'NONE', *, *, #1177, .F. ) ;
#532 = ORIENTED_EDGE ( 'NONE', *, *, #591, .T. ) ;
#533 = DIRECTION ( 'NONE',  ( 0.0000000000000000000, 0.0000000000000000000, 1.000000000000000000 ) ) ;
#534 = ORIENTED_EDGE ( 'NONE', *, *, #630, .T. ) ;
#535 = CARTESIAN_POINT ( 'NONE',  ( -0.4499999999999995115, 0.01333333333333333245, -0.3599999999999994316 ) ) ;
#536 = CARTESIAN_POINT ( 'NONE',  ( -0.7599999999999993427, 0.8599999999999999867, 0.3999999999999999667 ) ) ;
#537 = AXIS2_PLACEMENT_3D ( 'NONE', #14, #609, #805 ) ;
#538 = EDGE_CURVE ( 'NONE', #811, #916, #1104, .T. ) ;
#539 = DIRECTION ( 'NONE',  ( -1.000000000000000000, 0.0000000000000000000, -0.0000000000000000000 ) ) ;
#540 = EDGE_CURVE ( 'NONE', #721, #1036, #119, .T. ) ;
#541 = CARTESIAN_POINT ( 'NONE',  ( 500000.0000000000582, 0.01333333333333333245, -0.3600000000433675740 ) ) ;
#542 = DIRECTION ( 'NONE',  ( -0.0000000000000000000, 1.000000000000000000, -0.0000000000000000000 ) ) ;
#543 = CARTESIAN_POINT ( 'NONE',  ( -0.7599999999999994538, 0.8599999999999999867, -0.3599999999999995426 ) ) ;
#544 = DIRECTION ( 'NONE',  ( 0.0000000000000000000, 0.0000000000000000000, 1.000000000000000000 ) ) ;
#545 = LINE ( 'NONE', #568, #1063 ) ;
#546 = EDGE_LOOP ( 'NONE', ( #662, #101, #627, #17 ) ) ;
#547 = ORIENTED_EDGE ( 'NONE', *, *, #394, .F. ) ;
#548 = DIRECTION ( 'NONE',  ( -0.0000000000000000000, -1.000000000000000000, -0.0000000000000000000 ) ) ;
#549 = CARTESIAN_POINT ( 'NONE',  ( 0.7999999999999994893, 0.03999999999999999389, -0.3999999999999995226 ) ) ;
#550 = ORIENTED_EDGE ( 'NONE', *, *, #179, .F. ) ;
#551 = ADVANCED_FACE ( 'NONE', ( #855 ), #518, .T. ) ;
#552 = DIRECTION ( 'NONE',  ( 1.000000000000000000, 0.0000000000000000000, 3.097720492815726673E-16 ) ) ;
#553 = DIRECTION ( 'NONE',  ( -0.0000000000000000000, 1.000000000000000000, -0.0000000000000000000 ) ) ;
#554 = CARTESIAN_POINT ( 'NONE',  ( -0.4499999999999994005, 0.01333333333333334286, 0.3599999999999999867 ) ) ;
#555 = ORIENTED_EDGE ( 'NONE', *, *, #911, .F. ) ;
#556 =( NAMED_UNIT ( * ) PLANE_ANGLE_UNIT ( ) SI_UNIT ( $, .RADIAN. ) );
#557 = VECTOR ( 'NONE', #379, 1000.000000000000000 ) ;
#558 = CARTESIAN_POINT ( 'NONE',  ( -0.7599999999999994538, 0.8599999999999999867, -0.3999999999999995226 ) ) ;
#559 = FACE_OUTER_BOUND ( 'NONE', #495, .T. ) ;
#560 = DIRECTION ( 'NONE',  ( 0.0000000000000000000, 1.000000000000000000, 0.0000000000000000000 ) ) ;
#561 = AXIS2_PLACEMENT_3D ( 'NONE', #1, #306, #300 ) ;
#562 = ADVANCED_FACE ( 'NONE', ( #380 ), #1077, .F. ) ;
#563 = AXIS2_PLACEMENT_3D ( 'NONE', #196, #102, #544 ) ;
#564 = DIRECTION ( 'NONE',  ( 0.0000000000000000000, 1.000000000000000000, 0.0000000000000000000 ) ) ;
#565 = ADVANCED_FACE ( 'NONE', ( #346 ), #1267, .T. ) ;
#566 = AXIS2_PLACEMENT_3D ( 'NONE', #335, #1277, #1183 ) ;
#567 = EDGE_LOOP ( 'NONE', ( #1047, #965, #876, #1078 ) ) ;
#568 = CARTESIAN_POINT ( 'NONE',  ( 0.7999999999999993783, 0.9000000000000000222, 0.3599999999999999867 ) ) ;
#569 = CARTESIAN_POINT ( 'NONE',  ( -0.7999999999999994893, 0.9000000000000000222, -0.3599999999999995426 ) ) ;
#570 = EDGE_CURVE ( 'NONE', #801, #824, #423, .T. ) ;
#571 = DIRECTION ( 'NONE',  ( 0.0000000000000000000, 1.000000000000000000, 0.0000000000000000000 ) ) ;
#572 = VERTEX_POINT ( 'NONE', #986 ) ;
#573 = EDGE_CURVE ( 'NONE', #1053, #735, #597, .T. ) ;
#574 = ORIENTED_EDGE ( 'NONE', *, *, #881, .F. ) ;
#575 = CARTESIAN_POINT ( 'NONE',  ( 0.7599999999999994538, 0.8599999999999999867, 1.029992063861229336E-16 ) ) ;
#576 = CARTESIAN_POINT ( 'NONE',  ( 0.4500000000007275958, 0.8599999999999999867, -0.3599999999999997646 ) ) ;
#577 = CARTESIAN_POINT ( 'NONE',  ( -0.4499999999999994005, 0.03999999999999999389, 0.3599999999999999867 ) ) ;
#578 = ADVANCED_FACE ( 'NONE', ( #836 ), #809, .T. ) ;
#579 = PLANE ( 'NONE',  #343 ) ;
#580 = CARTESIAN_POINT ( 'NONE',  ( 500000.0000000000582, 0.8599999999999999867, -0.3600000000433677960 ) ) ;
#581 = CARTESIAN_POINT ( 'NONE',  ( -0.4499999999999994560, 0.9000000000000000222, -0.3999999999999996336 ) ) ;
#583 = CYLINDRICAL_SURFACE ( 'NONE', #151, 0.03999999999999999389 ) ;
#582 = AXIS2_PLACEMENT_3D ( 'NONE', #1232, #560, #1135 ) ;
#584 = DIRECTION ( 'NONE',  ( -0.0000000000000000000, -1.000000000000000000, -0.0000000000000000000 ) ) ;
#585 = ORIENTED_EDGE ( 'NONE', *, *, #1016, .F. ) ;
#586 = LINE ( 'NONE', #474, #64 ) ;
#587 = AXIS2_PLACEMENT_3D ( 'NONE', #1184, #615, #1097 ) ;
#588 = ORIENTED_EDGE ( 'NONE', *, *, #1016, .T. ) ;
#589 = ORIENTED_EDGE ( 'NONE', *, *, #649, .F. ) ;
#590 = CIRCLE ( 'NONE', #720, 0.03999999999999999389 ) ;
#591 = EDGE_CURVE ( 'NONE', #478, #108, #490, .T. ) ;
#592 = CARTESIAN_POINT ( 'NONE',  ( -0.4499999999999995115, 0.8599999999999997646, -0.3866666666666662699 ) ) ;
#593 = CARTESIAN_POINT ( 'NONE',  ( -0.4499999999999994005, 0.8599999999999999867, 0.3999999999999999667 ) ) ;
#594 = VECTOR ( 'NONE', #517, 1000.000000000000000 ) ;
#595 = EDGE_CURVE ( 'NONE', #36, #171, #1170, .T. ) ;
#596 = DIRECTION ( 'NONE',  ( 1.000000000000000000, 0.0000000000000000000, 0.0000000000000000000 ) ) ;
#597 = CIRCLE ( 'NONE', #1166, 0.03999999999999999389 ) ;
#598 = LINE ( 'NONE', #35, #1000 ) ;
#599 = CARTESIAN_POINT ( 'NONE',  ( 0.0000000000000000000, 0.0000000000000000000, 0.0000000000000000000 ) ) ;
#600 = DIRECTION ( 'NONE',  ( 0.0000000000000000000, 0.0000000000000000000, -1.000000000000000000 ) ) ;
#601 = VERTEX_POINT ( 'NONE', #69 ) ;
#602 = EDGE_LOOP ( 'NONE', ( #492, #626, #459, #1029 ) ) ;
#603 = DIRECTION ( 'NONE',  ( -1.000000000000000000, -0.0000000000000000000, -3.097720492815726673E-16 ) ) ;
#604 = CARTESIAN_POINT ( 'NONE',  ( -0.7999999999999993783, 0.8599999999999999867, 0.3999999999999999667 ) ) ;
#605 = EDGE_CURVE ( 'NONE', #1120, #725, #942, .T. ) ;
#606 = LINE ( 'NONE', #849, #182 ) ;
#607 = DIRECTION ( 'NONE',  ( 1.355252715606881529E-16, -0.0000000000000000000, -1.000000000000000000 ) ) ;
#608 = EDGE_CURVE ( 'NONE', #464, #294, #1199, .T. ) ;
#609 = DIRECTION ( 'NONE',  ( -1.000000000000000000, -0.0000000000000000000, -0.0000000000000000000 ) ) ;
#610 = CIRCLE ( 'NONE', #359, 0.03999999999999999389 ) ;
#611 = ORIENTED_EDGE ( 'NONE', *, *, #26, .F. ) ;
#612 = ORIENTED_EDGE ( 'NONE', *, *, #1070, .F. ) ;
#613 = PRESENTATION_STYLE_ASSIGNMENT (( #75 ) ) ;
#614 = DIRECTION ( 'NONE',  ( -0.0000000000000000000, -1.000000000000000000, -0.0000000000000000000 ) ) ;
#615 = DIRECTION ( 'NONE',  ( 0.0000000000000000000, 1.000000000000000000, 0.0000000000000000000 ) ) ;
#616 = ORIENTED_EDGE ( 'NONE', *, *, #763, .F. ) ;
#617 = ORIENTED_EDGE ( 'NONE', *, *, #411, .F. ) ;
#618 = EDGE_CURVE ( 'NONE', #698, #220, #1044, .T. ) ;
#619 = EDGE_LOOP ( 'NONE', ( #709, #524, #319, #24, #18, #1256, #861, #947 ) ) ;
#620 = DIRECTION ( 'NONE',  ( 1.505836350674312974E-16, 0.0000000000000000000, 1.000000000000000000 ) ) ;
#621 = VECTOR ( 'NONE', #553, 1000.000000000000000 ) ;
#622 = AXIS2_PLACEMENT_3D ( 'NONE', #53, #1240, #1040 ) ;
#623 = CIRCLE ( 'NONE', #909, 0.03999999999999999389 ) ;
#624 = AXIS2_PLACEMENT_3D ( 'NONE', #376, #951, #668 ) ;
#625 = ORIENTED_EDGE ( 'NONE', *, *, #115, .F. ) ;
#626 = ORIENTED_EDGE ( 'NONE', *, *, #485, .F. ) ;
#627 = ORIENTED_EDGE ( 'NONE', *, *, #390, .T. ) ;
#628 = CARTESIAN_POINT ( 'NONE',  ( 1.115179377413661070E-16, 0.0000000000000000000, -0.3599999999999998201 ) ) ;
#629 = AXIS2_PLACEMENT_3D ( 'NONE', #34, #819, #229 ) ;
#630 = EDGE_CURVE ( 'NONE', #980, #1036, #796, .T. ) ;
#631 = EDGE_CURVE ( 'NONE', #1234, #1269, #27, .T. ) ;
#632 = DIRECTION ( 'NONE',  ( -1.000000000000000000, 0.0000000000000000000, 0.0000000000000000000 ) ) ;
#633 = CARTESIAN_POINT ( 'NONE',  ( 0.4500000000007275958, 0.8599999999999999867, 0.3599999999999998757 ) ) ;
#634 = FACE_OUTER_BOUND ( 'NONE', #63, .T. ) ;
#635 = SPHERICAL_SURFACE ( 'NONE', #1115, 0.04000000000000000083 ) ;
#636 = DIRECTION ( 'NONE',  ( 0.0000000000000000000, -0.0000000000000000000, 1.000000000000000000 ) ) ;
#637 = ORIENTED_EDGE ( 'NONE', *, *, #321, .T. ) ;
#638 = DIRECTION ( 'NONE',  ( -1.000000000000000000, -0.0000000000000000000, 8.673617379884036705E-17 ) ) ;
#639 = EDGE_LOOP ( 'NONE', ( #457, #843, #1255 ) ) ;
#640 = AXIS2_PLACEMENT_3D ( 'NONE', #989, #510, #710 ) ;
#641 = EDGE_LOOP ( 'NONE', ( #1175, #1159, #1019, #932 ) ) ;
#642 = CIRCLE ( 'NONE', #221, 0.03999999999999999389 ) ;
#643 = DIRECTION ( 'NONE',  ( -0.0000000000000000000, -1.000000000000000000, -0.0000000000000000000 ) ) ;
#644 = DIRECTION ( 'NONE',  ( -1.000000000000000000, -0.0000000000000000000, 8.673617379884036705E-17 ) ) ;
#645 = DIRECTION ( 'NONE',  ( -1.000000000000000000, 0.0000000000000000000, 0.0000000000000000000 ) ) ;
#646 = DIRECTION ( 'NONE',  ( 0.0000000000000000000, 0.0000000000000000000, -1.000000000000000000 ) ) ;
#647 = AXIS2_PLACEMENT_3D ( 'NONE', #515, #1194, #898 ) ;
#648 = ADVANCED_FACE ( 'NONE', ( #303 ), #503, .F. ) ;
#649 = EDGE_CURVE ( 'NONE', #49, #811, #396, .T. ) ;
#650 = CARTESIAN_POINT ( 'NONE',  ( 0.7999999999999994893, 0.8599999999999999867, -0.3599999999999995426 ) ) ;
#651 = LINE ( 'NONE', #831, #985 ) ;
#652 = ADVANCED_FACE ( 'NONE', ( #1114 ), #1084, .F. ) ;
#653 = DIRECTION ( 'NONE',  ( 0.0000000000000000000, 0.0000000000000000000, -1.000000000000000000 ) ) ;
#654 = VECTOR ( 'NONE', #552, 1000.000000000000000 ) ;
#655 = CARTESIAN_POINT ( 'NONE',  ( -0.4499999999999994005, 0.9000000000000000222, 0.3599999999999999867 ) ) ;
#656 = DIRECTION ( 'NONE',  ( 0.0000000000000000000, 0.0000000000000000000, 1.000000000000000000 ) ) ;
#657 = CYLINDRICAL_SURFACE ( 'NONE', #975, 0.03999999999999999389 ) ;
#658 = CARTESIAN_POINT ( 'NONE',  ( 0.7599999999999993427, 0.03999999999999999389, 0.3599999999999999867 ) ) ;
#659 = EDGE_CURVE ( 'NONE', #152, #749, #606, .T. ) ;
#660 = DIRECTION ( 'NONE',  ( -1.000000000000000000, 0.0000000000000000000, 3.097720492815726673E-16 ) ) ;
#661 = ORIENTED_EDGE ( 'NONE', *, *, #897, .T. ) ;
#662 = ORIENTED_EDGE ( 'NONE', *, *, #505, .T. ) ;
#663 = EDGE_LOOP ( 'NONE', ( #271, #844, #588, #929 ) ) ;
#664 = ORIENTED_EDGE ( 'NONE', *, *, #1149, .F. ) ;
#665 = DIRECTION ( 'NONE',  ( 1.000000000000000000, -0.0000000000000000000, -6.776263578034406410E-17 ) ) ;
#666 = DIRECTION ( 'NONE',  ( 0.0000000000000000000, 0.0000000000000000000, 1.000000000000000000 ) ) ;
#667 = ADVANCED_FACE ( 'NONE', ( #242 ), #1279, .F. ) ;
#668 = DIRECTION ( 'NONE',  ( 0.0000000000000000000, 0.0000000000000000000, 1.000000000000000000 ) ) ;
#669 = DIRECTION ( 'NONE',  ( 0.0000000000000000000, 0.0000000000000000000, -1.000000000000000000 ) ) ;
#670 = CARTESIAN_POINT ( 'NONE',  ( -0.7999999999999993783, 0.9000000000000000222, 0.3599999999999999867 ) ) ;
#671 = PRODUCT_DEFINITION_SHAPE ( 'NONE', 'NONE',  #777 ) ;
#672 = DIRECTION ( 'NONE',  ( 3.097720492815726673E-16, -0.0000000000000000000, 1.000000000000000000 ) ) ;
#673 = CARTESIAN_POINT ( 'NONE',  ( 0.4499999999999994005, 0.9000000000000000222, 0.3599999999999999867 ) ) ;
#674 = DIRECTION ( 'NONE',  ( 1.000000000000000000, 0.0000000000000000000, 6.776263578034406410E-17 ) ) ;
#675 = AXIS2_PLACEMENT_3D ( 'NONE', #1010, #128, #438 ) ;
#676 = ORIENTED_EDGE ( 'NONE', *, *, #299, .T. ) ;
#677 = DIRECTION ( 'NONE',  ( -1.000000000000000000, -0.0000000000000000000, 8.673617379884036705E-17 ) ) ;
#678 = EDGE_CURVE ( 'NONE', #824, #464, #708, .T. ) ;
#679 = VECTOR ( 'NONE', #291, 1000.000000000000000 ) ;
#680 = ORIENTED_EDGE ( 'NONE', *, *, #428, .T. ) ;
#681 = EDGE_CURVE ( 'NONE', #307, #1238, #1227, .T. ) ;
#682 = VERTEX_POINT ( 'NONE', #302 ) ;
#683 = DIRECTION ( 'NONE',  ( 1.000000000000000000, 0.0000000000000000000, 6.776263578034406410E-17 ) ) ;
#684 = FACE_OUTER_BOUND ( 'NONE', #142, .T. ) ;
#685 = LINE ( 'NONE', #1058, #114 ) ;
#686 = DIRECTION ( 'NONE',  ( -1.000000000000000000, 0.0000000000000000000, 0.0000000000000000000 ) ) ;
#687 = EDGE_CURVE ( 'NONE', #906, #431, #1011, .T. ) ;
#688 = CARTESIAN_POINT ( 'NONE',  ( 500000.0000000000582, 0.8866666666666667140, 0.3599999999566316222 ) ) ;
#689 = FACE_OUTER_BOUND ( 'NONE', #945, .T. ) ;
#690 = CARTESIAN_POINT ( 'NONE',  ( -0.4499999999999994005, 0.0000000000000000000, 0.3599999999999999867 ) ) ;
#691 = DIRECTION ( 'NONE',  ( -1.000000000000000000, 0.0000000000000000000, 0.0000000000000000000 ) ) ;
#692 = VECTOR ( 'NONE', #439, 1000.000000000000000 ) ;
#693 = ADVANCED_FACE ( 'NONE', ( #689 ), #1278, .F. ) ;
#694 = ORIENTED_EDGE ( 'NONE', *, *, #500, .F. ) ;
#695 = DIRECTION ( 'NONE',  ( -1.355252715606881529E-16, 0.0000000000000000000, 1.000000000000000000 ) ) ;
#696 = ORIENTED_EDGE ( 'NONE', *, *, #706, .T. ) ;
#697 = AXIS2_PLACEMENT_3D ( 'NONE', #739, #134, #1221 ) ;
#698 = VERTEX_POINT ( 'NONE', #429 ) ;
#699 = CARTESIAN_POINT ( 'NONE',  ( 0.4500000000007275958, 0.8866666666666667140, -0.3600000000772490272 ) ) ;
#700 = FACE_OUTER_BOUND ( 'NONE', #663, .T. ) ;
#701 = ORIENTED_EDGE ( 'NONE', *, *, #726, .T. ) ;
#702 = DIRECTION ( 'NONE',  ( 0.0000000000000000000, -1.000000000000000000, 0.0000000000000000000 ) ) ;
#703 = DIRECTION ( 'NONE',  ( -1.355252715606881529E-16, 0.0000000000000000000, 1.000000000000000000 ) ) ;
#704 = AXIS2_PLACEMENT_3D ( 'NONE', #580, #677, #775 ) ;
#705 = LINE ( 'NONE', #604, #594 ) ;
#706 = EDGE_CURVE ( 'NONE', #99, #208, #913, .T. ) ;
#707 = EDGE_CURVE ( 'NONE', #721, #1046, #651, .T. ) ;
#708 = CIRCLE ( 'NONE', #1119, 0.02666666666666664756 ) ;
#709 = ORIENTED_EDGE ( 'NONE', *, *, #133, .T. ) ;
#710 = DIRECTION ( 'NONE',  ( 0.0000000000000000000, 0.0000000000000000000, 1.000000000000000000 ) ) ;
#711 = PRESENTATION_STYLE_ASSIGNMENT (( #395 ) ) ;
#712 = ORIENTED_EDGE ( 'NONE', *, *, #706, .F. ) ;
#713 = VECTOR ( 'NONE', #400, 1000.000000000000000 ) ;
#714 = EDGE_LOOP ( 'NONE', ( #694, #447, #1203, #252, #65, #287, #680, #1006 ) ) ;
#715 = DIRECTION ( 'NONE',  ( 1.000000000000000000, 0.0000000000000000000, 6.776263578034406410E-17 ) ) ;
#716 = VECTOR ( 'NONE', #1265, 1000.000000000000000 ) ;
#717 = FILL_AREA_STYLE ('',( #327 ) ) ;
#718 = STYLED_ITEM ( 'NONE', ( #949 ), #825 ) ;
#719 = AXIS2_PLACEMENT_3D ( 'NONE', #209, #904, #13 ) ;
#720 = AXIS2_PLACEMENT_3D ( 'NONE', #61, #365, #468 ) ;
#721 = VERTEX_POINT ( 'NONE', #1020 ) ;
#722 = VERTEX_POINT ( 'NONE', #535 ) ;
#723 = LINE ( 'NONE', #420, #1174 ) ;
#724 = PLANE ( 'NONE',  #640 ) ;
#725 = VERTEX_POINT ( 'NONE', #1216 ) ;
#726 = EDGE_CURVE ( 'NONE', #601, #87, #440, .T. ) ;
#727 = ORIENTED_EDGE ( 'NONE', *, *, #538, .T. ) ;
#728 = CARTESIAN_POINT ( 'NONE',  ( 500000.0000000000582, 0.04000000000000021594, 0.3866666666232984606 ) ) ;
#729 = CARTESIAN_POINT ( 'NONE',  ( -0.7599999999999994538, 0.0000000000000000000, 1.029992063861229336E-16 ) ) ;
#730 = VECTOR ( 'NONE', #1132, 1000.000000000000000 ) ;
#731 = CARTESIAN_POINT ( 'NONE',  ( 0.7599999999999994538, 0.04000000000000000083, -0.3599999999999995426 ) ) ;
#732 = DIRECTION ( 'NONE',  ( -1.000000000000000000, 0.0000000000000000000, 0.0000000000000000000 ) ) ;
#733 = ORIENTED_EDGE ( 'NONE', *, *, #595, .T. ) ;
#734 = LINE ( 'NONE', #870, #333 ) ;
#735 = VERTEX_POINT ( 'NONE', #233 ) ;
#736 = VECTOR ( 'NONE', #754, 1000.000000000000000 ) ;
#737 = FACE_OUTER_BOUND ( 'NONE', #567, .T. ) ;
#738 = ORIENTED_EDGE ( 'NONE', *, *, #328, .F. ) ;
#739 = CARTESIAN_POINT ( 'NONE',  ( -0.7599999999999994538, 0.03999999999999999389, -0.3999999999999995226 ) ) ;
#740 = EDGE_CURVE ( 'NONE', #698, #52, #360, .T. ) ;
#741 = DIRECTION ( 'NONE',  ( 1.000000000000000000, 0.0000000000000000000, 6.776263578034406410E-17 ) ) ;
#742 = AXIS2_PLACEMENT_3D ( 'NONE', #576, #1155, #883 ) ;
#743 = DIRECTION ( 'NONE',  ( 0.0000000000000000000, 0.0000000000000000000, -1.000000000000000000 ) ) ;
#744 = DIRECTION ( 'NONE',  ( 0.0000000000000000000, 0.0000000000000000000, 1.000000000000000000 ) ) ;
#745 = DIRECTION ( 'NONE',  ( 1.000000000000000000, 0.0000000000000000000, 6.776263578034406410E-17 ) ) ;
#746 = CARTESIAN_POINT ( 'NONE',  ( -0.7599999999999994538, 0.04000000000000000083, -0.3599999999999995426 ) ) ;
#747 = EDGE_CURVE ( 'NONE', #496, #1053, #1102, .T. ) ;
#748 = FACE_OUTER_BOUND ( 'NONE', #277, .T. ) ;
#749 = VERTEX_POINT ( 'NONE', #1206 ) ;
#750 =( NAMED_UNIT ( * ) SI_UNIT ( $, .STERADIAN. ) SOLID_ANGLE_UNIT ( ) );
#751 = ORIENTED_EDGE ( 'NONE', *, *, #94, .F. ) ;
#752 = ADVANCED_FACE ( 'NONE', ( #684 ), #933, .T. ) ;
#753 = ORIENTED_EDGE ( 'NONE', *, *, #605, .T. ) ;
#754 = DIRECTION ( 'NONE',  ( 1.355252715606881529E-16, -0.0000000000000000000, 1.000000000000000000 ) ) ;
#755 = DIRECTION ( 'NONE',  ( 0.0000000000000000000, 1.000000000000000000, 0.0000000000000000000 ) ) ;
#756 =( LENGTH_UNIT ( ) NAMED_UNIT ( * ) SI_UNIT ( .MILLI., .METRE. ) );
#757 = ADVANCED_FACE ( 'NONE', ( #1158 ), #773, .T. ) ;
#758 = DIRECTION ( 'NONE',  ( 1.000000000000000000, 0.0000000000000000000, 0.0000000000000000000 ) ) ;
#759 = DIRECTION ( 'NONE',  ( -1.000000000000000000, 0.0000000000000000000, -1.355252715606881529E-16 ) ) ;
#760 = CARTESIAN_POINT ( 'NONE',  ( 500000.0000000000582, 0.03999999999999999389, 0.3599999999566318443 ) ) ;
#761 = STYLED_ITEM ( 'NONE', ( #613 ), #1087 ) ;
#762 = LINE ( 'NONE', #655, #1268 ) ;
#763 = EDGE_CURVE ( 'NONE', #916, #981, #417, .T. ) ;
#764 = ADVANCED_FACE ( 'NONE', ( #432 ), #191, .T. ) ;
#765 = EDGE_CURVE ( 'NONE', #879, #725, #1258, .T. ) ;
#766 = ORIENTED_EDGE ( 'NONE', *, *, #829, .T. ) ;
#767 = CIRCLE ( 'NONE', #1012, 0.03999999999999999389 ) ;
#768 = CARTESIAN_POINT ( 'NONE',  ( 0.4499999999999994560, 0.9000000000000000222, -0.3999999999999996336 ) ) ;
#769 = ORIENTED_EDGE ( 'NONE', *, *, #1212, .F. ) ;
#770 = DIRECTION ( 'NONE',  ( 0.0000000000000000000, 0.0000000000000000000, -1.000000000000000000 ) ) ;
#771 = ORIENTED_EDGE ( 'NONE', *, *, #132, .F. ) ;
#772 = DIRECTION ( 'NONE',  ( 0.0000000000000000000, 0.0000000000000000000, 1.000000000000000000 ) ) ;
#773 = CYLINDRICAL_SURFACE ( 'NONE', #697, 0.03999999999999999389 ) ;
#774 = ADVANCED_FACE ( 'NONE', ( #802 ), #1103, .F. ) ;
#775 = DIRECTION ( 'NONE',  ( 0.0000000000000000000, 0.0000000000000000000, 1.000000000000000000 ) ) ;
#776 = CARTESIAN_POINT ( 'NONE',  ( -0.7599999999999994538, 0.03999999999999999389, -0.3999999999999995226 ) ) ;
#777 = PRODUCT_DEFINITION ( 'UNKNOWN', '', #91, #894 ) ;
#778 = CARTESIAN_POINT ( 'NONE',  ( -0.7599999999999994538, 0.0000000000000000000, -0.3599999999999995426 ) ) ;
#779 = LINE ( 'NONE', #1213, #329 ) ;
#780 = LINE ( 'NONE', #541, #347 ) ;
#781 = AXIS2_PLACEMENT_3D ( 'NONE', #261, #571, #167 ) ;
#782 = ORIENTED_EDGE ( 'NONE', *, *, #42, .T. ) ;
#783 = PLANE ( 'NONE',  #892 ) ;
#784 = ORIENTED_EDGE ( 'NONE', *, *, #256, .F. ) ;
#785 = CYLINDRICAL_SURFACE ( 'NONE', #218, 0.03999999999999999389 ) ;
#786 = AXIS2_PLACEMENT_3D ( 'NONE', #575, #72, #1027 ) ;
#787 = ORIENTED_EDGE ( 'NONE', *, *, #506, .T. ) ;
#788 = CARTESIAN_POINT ( 'NONE',  ( -0.7599999999999993427, 0.9000000000000000222, 0.3599999999999999867 ) ) ;
#789 = ORIENTED_EDGE ( 'NONE', *, *, #1106, .T. ) ;
#790 = VECTOR ( 'NONE', #548, 1000.000000000000000 ) ;
#791 = CARTESIAN_POINT ( 'NONE',  ( -0.7599999999999993427, 0.04000000000000000083, 0.3599999999999999867 ) ) ;
#792 = CARTESIAN_POINT ( 'NONE',  ( 500000.0000000000582, 0.8866666666666667140, -0.3600000000433677960 ) ) ;
#793 = EDGE_CURVE ( 'NONE', #980, #152, #982, .T. ) ;
#794 = CARTESIAN_POINT ( 'NONE',  ( 0.7599999999999994538, 0.03999999999999999389, -0.3999999999999995226 ) ) ;
#795 = DIRECTION ( 'NONE',  ( 0.0000000000000000000, 1.000000000000000000, 0.0000000000000000000 ) ) ;
#796 = CIRCLE ( 'NONE', #1146, 0.03999999999999999389 ) ;
#797 = SPHERICAL_SURFACE ( 'NONE', #1233, 0.04000000000000000083 ) ;
#798 = VERTEX_POINT ( 'NONE', #237 ) ;
#799 = CIRCLE ( 'NONE', #433, 0.03999999999999999389 ) ;
#800 = CARTESIAN_POINT ( 'NONE',  ( 0.7999999999999994893, 0.8599999999999999867, -0.3999999999999995226 ) ) ;
#801 = VERTEX_POINT ( 'NONE', #222 ) ;
#802 = FACE_OUTER_BOUND ( 'NONE', #290, .T. ) ;
#803 = ORIENTED_EDGE ( 'NONE', *, *, #26, .T. ) ;
#804 = AXIS2_PLACEMENT_3D ( 'NONE', #301, #90, #884 ) ;
#805 = DIRECTION ( 'NONE',  ( 0.0000000000000000000, 0.0000000000000000000, 1.000000000000000000 ) ) ;
#806 = EDGE_CURVE ( 'NONE', #572, #208, #891, .T. ) ;
#807 = AXIS2_PLACEMENT_3D ( 'NONE', #1185, #695, #406 ) ;
#808 =( LENGTH_UNIT ( ) NAMED_UNIT ( * ) SI_UNIT ( .MILLI., .METRE. ) );
#809 = SPHERICAL_SURFACE ( 'NONE', #781, 0.04000000000000000083 ) ;
#810 = VECTOR ( 'NONE', #863, 1000.000000000000000 ) ;
#811 = VERTEX_POINT ( 'NONE', #1205 ) ;
#812 = ORIENTED_EDGE ( 'NONE', *, *, #793, .T. ) ;
#813 = EDGE_CURVE ( 'NONE', #152, #52, #1211, .T. ) ;
#814 = ORIENTED_EDGE ( 'NONE', *, *, #813, .T. ) ;
#815 = ORIENTED_EDGE ( 'NONE', *, *, #1001, .F. ) ;
#816 = LINE ( 'NONE', #768, #557 ) ;
#817 = DIRECTION ( 'NONE',  ( -3.097720492815726673E-16, 0.0000000000000000000, 1.000000000000000000 ) ) ;
#818 = FACE_OUTER_BOUND ( 'NONE', #907, .T. ) ;
#819 = DIRECTION ( 'NONE',  ( 0.0000000000000000000, -1.000000000000000000, 0.0000000000000000000 ) ) ;
#820 = VECTOR ( 'NONE', #230, 1000.000000000000000 ) ;
#821 = AXIS2_PLACEMENT_3D ( 'NONE', #760, #161, #959 ) ;
#822 = FACE_OUTER_BOUND ( 'NONE', #68, .T. ) ;
#823 = CARTESIAN_POINT ( 'NONE',  ( -0.7999999999999994893, 0.9000000000000000222, -0.3599999999999995426 ) ) ;
#824 = VERTEX_POINT ( 'NONE', #1014 ) ;
#825 = ADVANCED_BREP_SHAPE_REPRESENTATION ( 'EMF107B7104KAHT', ( #974, #1087, #1182, #1164 ), #926 ) ;
#826 = ORIENTED_EDGE ( 'NONE', *, *, #1099, .F. ) ;
#827 = EDGE_CURVE ( 'NONE', #798, #294, #1105, .T. ) ;
#828 = CARTESIAN_POINT ( 'NONE',  ( 0.4500000000007275958, 0.01333333333333334286, 0.3599999999999998757 ) ) ;
#829 = EDGE_CURVE ( 'NONE', #735, #1125, #262, .T. ) ;
#830 = DIRECTION ( 'NONE',  ( 1.000000000000000000, 0.0000000000000000000, 0.0000000000000000000 ) ) ;
#831 = CARTESIAN_POINT ( 'NONE',  ( -0.7999999999999993783, 0.03999999999999999389, 0.3999999999999999667 ) ) ;
#832 = CARTESIAN_POINT ( 'NONE',  ( 0.4499999999999994560, 0.9000000000000000222, -0.3999999999999996336 ) ) ;
#833 = APPLICATION_PROTOCOL_DEFINITION ( 'draft international standard', 'automotive_design', 1998, #240 ) ;
#834 = DIRECTION ( 'NONE',  ( 0.0000000000000000000, 0.0000000000000000000, 1.000000000000000000 ) ) ;
#835 = CARTESIAN_POINT ( 'NONE',  ( -0.7999999999999993783, 0.9000000000000000222, 0.3999999999999999667 ) ) ;
#836 = FACE_OUTER_BOUND ( 'NONE', #902, .T. ) ;
#837 = DIRECTION ( 'NONE',  ( -0.0000000000000000000, 1.000000000000000000, -0.0000000000000000000 ) ) ;
#838 = ORIENTED_EDGE ( 'NONE', *, *, #851, .T. ) ;
#839 = ADVANCED_FACE ( 'NONE', ( #223 ), #1230, .F. ) ;
#840 = ORIENTED_EDGE ( 'NONE', *, *, #436, .T. ) ;
#841 = VERTEX_POINT ( 'NONE', #226 ) ;
#842 = DIRECTION ( 'NONE',  ( -1.000000000000000000, 0.0000000000000000000, 8.673617379884036705E-17 ) ) ;
#843 = ORIENTED_EDGE ( 'NONE', *, *, #1247, .T. ) ;
#844 = ORIENTED_EDGE ( 'NONE', *, *, #1099, .T. ) ;
#845 = EDGE_CURVE ( 'NONE', #824, #798, #1013, .T. ) ;
#846 = CARTESIAN_POINT ( 'NONE',  ( 0.4500000000007275958, 0.01333333333333333245, 0.3599999999227505576 ) ) ;
#847 = FACE_OUTER_BOUND ( 'NONE', #1275, .T. ) ;
#848 = DIRECTION ( 'NONE',  ( 6.776263578034406410E-17, 0.0000000000000000000, -1.000000000000000000 ) ) ;
#849 = CARTESIAN_POINT ( 'NONE',  ( -1.115179377413661070E-16, 0.0000000000000000000, -0.3599999999999998201 ) ) ;
#850 = CARTESIAN_POINT ( 'NONE',  ( 0.4499999999999994560, 0.8599999999999999867, -0.3599999999999996536 ) ) ;
#851 = EDGE_CURVE ( 'NONE', #52, #1036, #930, .T. ) ;
#852 = DIRECTION ( 'NONE',  ( 1.000000000000000000, -0.0000000000000000000, -6.776263578034406410E-17 ) ) ;
#853 = DIRECTION ( 'NONE',  ( 0.0000000000000000000, -1.000000000000000000, 0.0000000000000000000 ) ) ;
#854 = ADVANCED_FACE ( 'NONE', ( #356 ), #404, .T. ) ;
#855 = FACE_OUTER_BOUND ( 'NONE', #1157, .T. ) ;
#856 = FACE_OUTER_BOUND ( 'NONE', #546, .T. ) ;
#857 = ORIENTED_EDGE ( 'NONE', *, *, #1193, .T. ) ;
#858 = CARTESIAN_POINT ( 'NONE',  ( 0.4499999999999994005, 0.8599999999999999867, 0.3599999999999999867 ) ) ;
#859 = VECTOR ( 'NONE', #603, 1000.000000000000000 ) ;
#860 = ORIENTED_EDGE ( 'NONE', *, *, #631, .T. ) ;
#861 = ORIENTED_EDGE ( 'NONE', *, *, #461, .T. ) ;
#862 = ADVANCED_FACE ( 'NONE', ( #484 ), #454, .F. ) ;
#863 = DIRECTION ( 'NONE',  ( 0.0000000000000000000, -1.000000000000000000, 0.0000000000000000000 ) ) ;
#864 = DIRECTION ( 'NONE',  ( -1.000000000000000000, 0.0000000000000000000, 0.0000000000000000000 ) ) ;
#865 = DIRECTION ( 'NONE',  ( 0.0000000000000000000, 0.0000000000000000000, 1.000000000000000000 ) ) ;
#866 = DIRECTION ( 'NONE',  ( 0.0000000000000000000, 0.0000000000000000000, 1.000000000000000000 ) ) ;
#867 = UNCERTAINTY_MEASURE_WITH_UNIT (LENGTH_MEASURE( 1.000000000000000082E-05 ), #146, 'distance_accuracy_value', 'NONE');
#868 = ADVANCED_FACE ( 'NONE', ( #397 ), #56, .F. ) ;
#869 = AXIS2_PLACEMENT_3D ( 'NONE', #403, #1179, #600 ) ;
#870 = CARTESIAN_POINT ( 'NONE',  ( 500000.0000000000582, 0.03999999999999999389, -0.3866666667100344124 ) ) ;
#871 = EDGE_CURVE ( 'NONE', #108, #52, #1075, .T. ) ;
#872 = VECTOR ( 'NONE', #57, 1000.000000000000000 ) ;
#873 = AXIS2_PLACEMENT_3D ( 'NONE', #514, #212, #1002 ) ;
#874 = DIRECTION ( 'NONE',  ( -1.355252715606881529E-16, 0.0000000000000000000, 1.000000000000000000 ) ) ;
#875 = EDGE_LOOP ( 'NONE', ( #701, #555, #1141, #978 ) ) ;
#876 = ORIENTED_EDGE ( 'NONE', *, *, #1123, .T. ) ;
#877 = DIRECTION ( 'NONE',  ( -1.000000000000000000, -0.0000000000000000000, 8.673617379884036705E-17 ) ) ;
#878 = ORIENTED_EDGE ( 'NONE', *, *, #1039, .F. ) ;
#879 = VERTEX_POINT ( 'NONE', #650 ) ;
#880 = DIRECTION ( 'NONE',  ( -6.776263578034406410E-17, 0.0000000000000000000, 1.000000000000000000 ) ) ;
#881 = EDGE_CURVE ( 'NONE', #1238, #1126, #130, .T. ) ;
#882 = DIRECTION ( 'NONE',  ( -1.000000000000000000, -0.0000000000000000000, 8.673617379884036705E-17 ) ) ;
#883 = DIRECTION ( 'NONE',  ( 0.0000000000000000000, 0.0000000000000000000, -1.000000000000000000 ) ) ;
#884 = DIRECTION ( 'NONE',  ( 0.0000000000000000000, 0.0000000000000000000, 1.000000000000000000 ) ) ;
#885 = CIRCLE ( 'NONE', #73, 0.02666666666666664756 ) ;
#886 = FACE_OUTER_BOUND ( 'NONE', #234, .T. ) ;
#887 = ORIENTED_EDGE ( 'NONE', *, *, #960, .F. ) ;
#888 = VECTOR ( 'NONE', #315, 1000.000000000000000 ) ;
#889 = ORIENTED_EDGE ( 'NONE', *, *, #428, .F. ) ;
#890 = ORIENTED_EDGE ( 'NONE', *, *, #687, .T. ) ;
#891 = LINE ( 'NONE', #118, #1189 ) ;
#892 = AXIS2_PLACEMENT_3D ( 'NONE', #297, #498, #596 ) ;
#893 = AXIS2_PLACEMENT_3D ( 'NONE', #1028, #741, #137 ) ;
#894 = PRODUCT_DEFINITION_CONTEXT ( 'detailed design', #1244, 'design' ) ;
#895 = EDGE_CURVE ( 'NONE', #698, #988, #2, .T. ) ;
#896 = DIRECTION ( 'NONE',  ( 6.776263578034406410E-17, -0.0000000000000000000, -1.000000000000000000 ) ) ;
#897 = EDGE_CURVE ( 'NONE', #208, #906, #257, .T. ) ;
#898 = DIRECTION ( 'NONE',  ( 0.0000000000000000000, 0.0000000000000000000, -1.000000000000000000 ) ) ;
#899 = CARTESIAN_POINT ( 'NONE',  ( -0.4499999999999994005, 0.8866666666666667140, 0.3599999999999997646 ) ) ;
#900 = EDGE_LOOP ( 'NONE', ( #338, #727, #787, #860 ) ) ;
#901 = LINE ( 'NONE', #699, #679 ) ;
#902 = EDGE_LOOP ( 'NONE', ( #51, #789, #383 ) ) ;
#903 = COLOUR_RGB ( '',0.7921568627450980005, 0.8196078431372548767, 0.9333333333333333481 ) ;
#904 = DIRECTION ( 'NONE',  ( 0.0000000000000000000, -0.0000000000000000000, 1.000000000000000000 ) ) ;
#905 = EDGE_LOOP ( 'NONE', ( #712, #585, #1121, #992, #1271, #918, #1160, #415 ) ) ;
#906 = VERTEX_POINT ( 'NONE', #899 ) ;
#907 = EDGE_LOOP ( 'NONE', ( #274, #295, #1142, #826 ) ) ;
#908 = CARTESIAN_POINT ( 'NONE',  ( -0.7599999999999994538, 0.9000000000000000222, -0.3599999999999995426 ) ) ;
#909 = AXIS2_PLACEMENT_3D ( 'NONE', #939, #732, #924 ) ;
#910 = CARTESIAN_POINT ( 'NONE',  ( -0.4499999999999994005, 0.9000000000000000222, 0.3599999999999999867 ) ) ;
#911 = EDGE_CURVE ( 'NONE', #988, #87, #528, .T. ) ;
#912 = DIRECTION ( 'NONE',  ( 3.097720492815728152E-16, 0.0000000000000000000, -1.000000000000000000 ) ) ;
#913 = CIRCLE ( 'NONE', #675, 0.02666666666666669960 ) ;
#914 = CYLINDRICAL_SURFACE ( 'NONE', #6, 0.03999999999999999389 ) ;
#915 = ORIENTED_EDGE ( 'NONE', *, *, #911, .T. ) ;
#916 = VERTEX_POINT ( 'NONE', #422 ) ;
#917 = EDGE_CURVE ( 'NONE', #801, #431, #529, .T. ) ;
#918 = ORIENTED_EDGE ( 'NONE', *, *, #117, .F. ) ;
#919 = ORIENTED_EDGE ( 'NONE', *, *, #659, .F. ) ;
#920 = DIRECTION ( 'NONE',  ( -1.355252715606881529E-16, 0.0000000000000000000, -1.000000000000000000 ) ) ;
#921 = DIRECTION ( 'NONE',  ( 0.0000000000000000000, -1.000000000000000000, 0.0000000000000000000 ) ) ;
#922 = DIRECTION ( 'NONE',  ( 1.000000000000000000, 0.0000000000000000000, 0.0000000000000000000 ) ) ;
#923 = VECTOR ( 'NONE', #632, 1000.000000000000000 ) ;
#924 = DIRECTION ( 'NONE',  ( 0.0000000000000000000, 0.0000000000000000000, 1.000000000000000000 ) ) ;
#925 = VECTOR ( 'NONE', #310, 1000.000000000000000 ) ;
#926 =( GEOMETRIC_REPRESENTATION_CONTEXT ( 3 ) GLOBAL_UNCERTAINTY_ASSIGNED_CONTEXT ( ( #228 ) ) GLOBAL_UNIT_ASSIGNED_CONTEXT ( ( #756, #248, #455 ) ) REPRESENTATION_CONTEXT ( 'NONE', 'WORKASPACE' ) );
#927 = ORIENTED_EDGE ( 'NONE', *, *, #485, .T. ) ;
#928 = COLOUR_RGB ( '',0.4862745098039215619, 0.2352941176470588203, 0.01568627450980392135 ) ;
#929 = ORIENTED_EDGE ( 'NONE', *, *, #409, .F. ) ;
#930 = LINE ( 'NONE', #938, #736 ) ;
#931 = CIRCLE ( 'NONE', #1207, 0.03999999999999999389 ) ;
#932 = ORIENTED_EDGE ( 'NONE', *, *, #115, .T. ) ;
#933 = SPHERICAL_SURFACE ( 'NONE', #629, 0.04000000000000000083 ) ;
#934 = CYLINDRICAL_SURFACE ( 'NONE', #1085, 0.03999999999999999389 ) ;
#935 = AXIS2_PLACEMENT_3D ( 'NONE', #962, #272, #1241 ) ;
#936 = DIRECTION ( 'NONE',  ( 0.0000000000000000000, -1.000000000000000000, 0.0000000000000000000 ) ) ;
#937 = DIRECTION ( 'NONE',  ( 8.673617379884036705E-17, -0.0000000000000000000, 1.000000000000000000 ) ) ;
#938 = CARTESIAN_POINT ( 'NONE',  ( -0.7999999999999994893, 0.03999999999999999389, -0.3999999999999995226 ) ) ;
#939 = CARTESIAN_POINT ( 'NONE',  ( 0.7599999999999994538, 0.03999999999999999389, -0.3599999999999995426 ) ) ;
#940 = EDGE_CURVE ( 'NONE', #220, #36, #723, .T. ) ;
#941 = DIRECTION ( 'NONE',  ( 0.0000000000000000000, -0.0000000000000000000, -1.000000000000000000 ) ) ;
#942 = LINE ( 'NONE', #59, #654 ) ;
#943 = CARTESIAN_POINT ( 'NONE',  ( -0.4499999999999994005, 0.8599999999999999867, 0.3599999999999999867 ) ) ;
#944 = CYLINDRICAL_SURFACE ( 'NONE', #624, 0.02666666666666664756 ) ;
#945 = EDGE_LOOP ( 'NONE', ( #323, #840, #771, #733, #738, #385, #803, #1274 ) ) ;
#946 = SURFACE_STYLE_FILL_AREA ( #1253 ) ;
#947 = ORIENTED_EDGE ( 'NONE', *, *, #9, .T. ) ;
#948 = ADVANCED_FACE ( 'NONE', ( #217 ), #251, .T. ) ;
#949 = PRESENTATION_STYLE_ASSIGNMENT (( #1127 ) ) ;
#950 = EDGE_LOOP ( 'NONE', ( #334, #30, #661, #399 ) ) ;
#951 = DIRECTION ( 'NONE',  ( -1.000000000000000000, -0.0000000000000000000, 8.673617379884036705E-17 ) ) ;
#952 = DIRECTION ( 'NONE',  ( 0.0000000000000000000, 0.0000000000000000000, 1.000000000000000000 ) ) ;
#953 = AXIS2_PLACEMENT_3D ( 'NONE', #460, #937, #141 ) ;
#954 = CARTESIAN_POINT ( 'NONE',  ( -0.4499999999999994560, 0.8599999999999999867, -0.3999999999999996336 ) ) ;
#955 = DIRECTION ( 'NONE',  ( -1.000000000000000000, -0.0000000000000000000, 8.673617379884036705E-17 ) ) ;
#956 = AXIS2_PLACEMENT_3D ( 'NONE', #792, #702, #98 ) ;
#957 = CARTESIAN_POINT ( 'NONE',  ( -0.4499999999999994560, 0.9000000000000000222, -0.3999999999999996336 ) ) ;
#958 = CARTESIAN_POINT ( 'NONE',  ( 0.7599999999999993427, 0.9000000000000000222, 0.3999999999999999667 ) ) ;
#959 = DIRECTION ( 'NONE',  ( 0.0000000000000000000, 0.0000000000000000000, 1.000000000000000000 ) ) ;
#960 = EDGE_CURVE ( 'NONE', #811, #136, #1066, .T. ) ;
#961 = VERTEX_POINT ( 'NONE', #207 ) ;
#962 = CARTESIAN_POINT ( 'NONE',  ( -0.7599999999999994538, 0.03999999999999999389, -0.3599999999999995426 ) ) ;
#963 = DIRECTION ( 'NONE',  ( 0.0000000000000000000, -1.000000000000000000, 0.0000000000000000000 ) ) ;
#964 = ORIENTED_EDGE ( 'NONE', *, *, #813, .F. ) ;
#965 = ORIENTED_EDGE ( 'NONE', *, *, #829, .F. ) ;
#966 = ORIENTED_EDGE ( 'NONE', *, *, #793, .F. ) ;
#967 = CARTESIAN_POINT ( 'NONE',  ( -0.4499999999999994005, 0.03999999999999999389, 0.3999999999999999667 ) ) ;
#968 = CARTESIAN_POINT ( 'NONE',  ( -0.4499999999999994560, 0.0000000000000000000, -0.3999999999999996336 ) ) ;
#969 = DIRECTION ( 'NONE',  ( 0.0000000000000000000, 0.0000000000000000000, 1.000000000000000000 ) ) ;
#970 = PRESENTATION_LAYER_ASSIGNMENT (  '', '', ( #718 ) ) ;
#971 = ADVANCED_FACE ( 'NONE', ( #522 ), #785, .T. ) ;
#972 = AXIS2_PLACEMENT_3D ( 'NONE', #1134, #755, #154 ) ;
#973 =( LENGTH_UNIT ( ) NAMED_UNIT ( * ) SI_UNIT ( .MILLI., .METRE. ) );
#974 = MANIFOLD_SOLID_BREP ( 'Fillet1', #112 ) ;
#975 = AXIS2_PLACEMENT_3D ( 'NONE', #1133, #758, #865 ) ;
#976 = ORIENTED_EDGE ( 'NONE', *, *, #132, .T. ) ;
#977 = CARTESIAN_POINT ( 'NONE',  ( 0.4500000000007275958, 0.8599999999999999867, 0.3866666666666664920 ) ) ;
#978 = ORIENTED_EDGE ( 'NONE', *, *, #342, .F. ) ;
#979 = FACE_OUTER_BOUND ( 'NONE', #1015, .T. ) ;
#980 = VERTEX_POINT ( 'NONE', #312 ) ;
#981 = VERTEX_POINT ( 'NONE', #211 ) ;
#982 = LINE ( 'NONE', #729, #159 ) ;
#983 = EDGE_CURVE ( 'NONE', #1126, #113, #493, .T. ) ;
#984 = VECTOR ( 'NONE', #994, 1000.000000000000000 ) ;
#985 = VECTOR ( 'NONE', #441, 1000.000000000000000 ) ;
#986 = CARTESIAN_POINT ( 'NONE',  ( 0.4500000000007275958, 0.8866666666666667140, -0.3599999999999997646 ) ) ;
#987 = DIRECTION ( 'NONE',  ( 0.0000000000000000000, 0.0000000000000000000, 1.000000000000000000 ) ) ;
#988 = VERTEX_POINT ( 'NONE', #908 ) ;
#989 = CARTESIAN_POINT ( 'NONE',  ( 0.0000000000000000000, 0.9000000000000000222, 0.0000000000000000000 ) ) ;
#990 = CIRCLE ( 'NONE', #1080, 0.03999999999999999389 ) ;
#991 = ORIENTED_EDGE ( 'NONE', *, *, #369, .T. ) ;
#992 = ORIENTED_EDGE ( 'NONE', *, *, #1193, .F. ) ;
#993 =( GEOMETRIC_REPRESENTATION_CONTEXT ( 3 ) GLOBAL_UNCERTAINTY_ASSIGNED_CONTEXT ( ( #1101 ) ) GLOBAL_UNIT_ASSIGNED_CONTEXT ( ( #377, #389, #373 ) ) REPRESENTATION_CONTEXT ( 'NONE', 'WORKASPACE' ) );
#994 = DIRECTION ( 'NONE',  ( 1.355252715606881529E-16, -0.0000000000000000000, 1.000000000000000000 ) ) ;
#995 = AXIS2_PLACEMENT_3D ( 'NONE', #344, #1116, #636 ) ;
#996 = CARTESIAN_POINT ( 'NONE',  ( 0.7599999999999993427, 0.8599999999999999867, 0.3599999999999999867 ) ) ;
#997 = AXIS2_PLACEMENT_3D ( 'NONE', #357, #1147, #54 ) ;
#998 = SURFACE_SIDE_STYLE ('',( #508 ) ) ;
#999 = CARTESIAN_POINT ( 'NONE',  ( -0.4499999999999994560, 0.9000000000000000222, -0.3599999999999996536 ) ) ;
#1000 = VECTOR ( 'NONE', #1209, 1000.000000000000000 ) ;
#1001 = EDGE_CURVE ( 'NONE', #841, #879, #1236, .T. ) ;
#1002 = DIRECTION ( 'NONE',  ( 1.000000000000000000, 0.0000000000000000000, 0.0000000000000000000 ) ) ;
#1003 = ORIENTED_EDGE ( 'NONE', *, *, #845, .F. ) ;
#1004 = EDGE_LOOP ( 'NONE', ( #158, #753, #637, #20 ) ) ;
#1005 = PRESENTATION_STYLE_ASSIGNMENT (( #526 ) ) ;
#1006 = ORIENTED_EDGE ( 'NONE', *, *, #505, .F. ) ;
#1007 = ORIENTED_EDGE ( 'NONE', *, *, #747, .F. ) ;
#1008 = CARTESIAN_POINT ( 'NONE',  ( 0.4499999999999994005, 0.9000000000000000222, 0.3599999999999999867 ) ) ;
#1009 = VECTOR ( 'NONE', #153, 1000.000000000000000 ) ;
#1010 = CARTESIAN_POINT ( 'NONE',  ( -0.4499999999999995115, 0.8599999999999999867, -0.3599999999999996536 ) ) ;
#1011 = CIRCLE ( 'NONE', #202, 0.02666666666666669960 ) ;
#1012 = AXIS2_PLACEMENT_3D ( 'NONE', #470, #81, #969 ) ;
#1013 = LINE ( 'NONE', #728, #730 ) ;
#1014 = CARTESIAN_POINT ( 'NONE',  ( 0.4500000000007275958, 0.04000000000000021594, 0.3866666666666664920 ) ) ;
#1015 = EDGE_LOOP ( 'NONE', ( #1069, #1007, #625, #1201 ) ) ;
#1016 = EDGE_CURVE ( 'NONE', #961, #99, #4, .T. ) ;
#1017 = CYLINDRICAL_SURFACE ( 'NONE', #704, 0.02666666666666664756 ) ;
#1018 = ORIENTED_EDGE ( 'NONE', *, *, #608, .F. ) ;
#1019 = ORIENTED_EDGE ( 'NONE', *, *, #765, .T. ) ;
#1020 = CARTESIAN_POINT ( 'NONE',  ( -0.7599999999999993427, 0.03999999999999999389, 0.3999999999999999667 ) ) ;
#1021 = DIRECTION ( 'NONE',  ( 0.0000000000000000000, -1.000000000000000000, 0.0000000000000000000 ) ) ;
#1022 = ADVANCED_FACE ( 'NONE', ( #979 ), #724, .T. ) ;
#1023 = CARTESIAN_POINT ( 'NONE',  ( 0.0000000000000000000, 0.0000000000000000000, 0.3599999999999999867 ) ) ;
#1024 = DIRECTION ( 'NONE',  ( 1.000000000000000000, 0.0000000000000000000, -8.673617379884036705E-17 ) ) ;
#1025 = PLANE ( 'NONE',  #953 ) ;
#1026 = VECTOR ( 'NONE', #848, 1000.000000000000000 ) ;
#1027 = DIRECTION ( 'NONE',  ( 1.000000000000000000, 0.0000000000000000000, 1.355252715606879063E-16 ) ) ;
#1028 = CARTESIAN_POINT ( 'NONE',  ( 0.4500000000007275958, 0.03999999999999999389, -0.3599999999999997646 ) ) ;
#1029 = ORIENTED_EDGE ( 'NONE', *, *, #740, .F. ) ;
#1030 = DIRECTION ( 'NONE',  ( -6.776263578034406410E-17, 0.0000000000000000000, 1.000000000000000000 ) ) ;
#1031 = ORIENTED_EDGE ( 'NONE', *, *, #630, .F. ) ;
#1032 = CARTESIAN_POINT ( 'NONE',  ( 0.4500000000007275958, 0.8866666666666667140, 0.3599999999999996536 ) ) ;
#1033 = DIRECTION ( 'NONE',  ( 0.0000000000000000000, 0.0000000000000000000, -1.000000000000000000 ) ) ;
#1034 = CIRCLE ( 'NONE', #1057, 0.03999999999999999389 ) ;
#1035 = AXIS2_PLACEMENT_3D ( 'NONE', #543, #643, #744 ) ;
#1036 = VERTEX_POINT ( 'NONE', #143 ) ;
#1037 = ORIENTED_EDGE ( 'NONE', *, *, #540, .F. ) ;
#1038 = FACE_OUTER_BOUND ( 'NONE', #875, .T. ) ;
#1039 = EDGE_CURVE ( 'NONE', #1046, #126, #121, .T. ) ;
#1040 = DIRECTION ( 'NONE',  ( -3.097720492815728152E-16, 0.0000000000000000000, -1.000000000000000000 ) ) ;
#1041 = DIRECTION ( 'NONE',  ( 1.000000000000000000, -0.0000000000000000000, -6.776263578034406410E-17 ) ) ;
#1042 = CARTESIAN_POINT ( 'NONE',  ( 0.7999999999999994893, 0.9000000000000000222, -0.3999999999999995226 ) ) ;
#1043 = EDGE_CURVE ( 'NONE', #171, #988, #1273, .T. ) ;
#1044 = CIRCLE ( 'NONE', #1035, 0.03999999999999999389 ) ;
#1045 = DIRECTION ( 'NONE',  ( 0.0000000000000000000, -1.000000000000000000, -0.0000000000000000000 ) ) ;
#1046 = VERTEX_POINT ( 'NONE', #967 ) ;
#1047 = ORIENTED_EDGE ( 'NONE', *, *, #281, .F. ) ;
#1048 = VECTOR ( 'NONE', #620, 1000.000000000000000 ) ;
#1049 = ORIENTED_EDGE ( 'NONE', *, *, #527, .T. ) ;
#1050 = CARTESIAN_POINT ( 'NONE',  ( -0.7599999999999994538, 0.8599999999999999867, -0.3599999999999995426 ) ) ;
#1051 = CARTESIAN_POINT ( 'NONE',  ( 0.0000000000000000000, 0.0000000000000000000, 0.0000000000000000000 ) ) ;
#1052 = ADVANCED_FACE ( 'NONE', ( #1140 ), #1017, .T. ) ;
#1053 = VERTEX_POINT ( 'NONE', #673 ) ;
#1054 = CARTESIAN_POINT ( 'NONE',  ( 0.7599999999999993427, 0.03999999999999999389, 0.3999999999999999667 ) ) ;
#1055 = DIRECTION ( 'NONE',  ( 1.000000000000000000, 0.0000000000000000000, 6.776263578034406410E-17 ) ) ;
#1056 = CARTESIAN_POINT ( 'NONE',  ( 0.7999999999999994893, 0.9000000000000000222, -0.3599999999999995426 ) ) ;
#1057 = AXIS2_PLACEMENT_3D ( 'NONE', #266, #1045, #669 ) ;
#1058 = CARTESIAN_POINT ( 'NONE',  ( 0.7599999999999993427, 0.9000000000000000222, 0.3999999999999999667 ) ) ;
#1059 = AXIS2_PLACEMENT_3D ( 'NONE', #419, #1092, #199 ) ;
#1060 = DIRECTION ( 'NONE',  ( 0.0000000000000000000, -1.000000000000000000, 0.0000000000000000000 ) ) ;
#1061 = DIRECTION ( 'NONE',  ( 0.0000000000000000000, 0.0000000000000000000, 1.000000000000000000 ) ) ;
#1062 = CYLINDRICAL_SURFACE ( 'NONE', #566, 0.03999999999999999389 ) ;
#1063 = VECTOR ( 'NONE', #67, 1000.000000000000000 ) ;
#1064 = ORIENTED_EDGE ( 'NONE', *, *, #917, .F. ) ;
#1065 = VERTEX_POINT ( 'NONE', #1263 ) ;
#1066 = CIRCLE ( 'NONE', #537, 0.03999999999999999389 ) ;
#1067 = ORIENTED_EDGE ( 'NONE', *, *, #726, .F. ) ;
#1068 = DIRECTION ( 'NONE',  ( -1.000000000000000000, 0.0000000000000000000, 0.0000000000000000000 ) ) ;
#1069 = ORIENTED_EDGE ( 'NONE', *, *, #76, .F. ) ;
#1070 = EDGE_CURVE ( 'NONE', #176, #1204, #767, .T. ) ;
#1071 = VECTOR ( 'NONE', #263, 1000.000000000000000 ) ;
#1072 =( NAMED_UNIT ( * ) SI_UNIT ( $, .STERADIAN. ) SOLID_ANGLE_UNIT ( ) );
#1073 = LINE ( 'NONE', #670, #194 ) ;
#1074 = CARTESIAN_POINT ( 'NONE',  ( -0.4499999999999994005, 0.01333333333333333245, 0.3599999999999999867 ) ) ;
#1075 = CIRCLE ( 'NONE', #587, 0.03999999999999999389 ) ;
#1076 = FACE_OUTER_BOUND ( 'NONE', #50, .T. ) ;
#1077 = PLANE ( 'NONE',  #956 ) ;
#1078 = ORIENTED_EDGE ( 'NONE', *, *, #1083, .F. ) ;
#1079 = VERTEX_POINT ( 'NONE', #1260 ) ;
#1080 = AXIS2_PLACEMENT_3D ( 'NONE', #1050, #1143, #772 ) ;
#1081 = ORIENTED_EDGE ( 'NONE', *, *, #453, .T. ) ;
#1082 = AXIS2_PLACEMENT_3D ( 'NONE', #239, #139, #842 ) ;
#1083 = EDGE_CURVE ( 'NONE', #136, #405, #462, .T. ) ;
#1084 = PLANE ( 'NONE',  #37 ) ;
#1085 = AXIS2_PLACEMENT_3D ( 'NONE', #486, #489, #1061 ) ;
#1086 = DIRECTION ( 'NONE',  ( 1.355252715606881529E-16, -0.0000000000000000000, -1.000000000000000000 ) ) ;
#1087 = MANIFOLD_SOLID_BREP ( 'Mirror2', #189 ) ;
#1088 = FACE_OUTER_BOUND ( 'NONE', #203, .T. ) ;
#1089 = LINE ( 'NONE', #148, #820 ) ;
#1090 = CARTESIAN_POINT ( 'NONE',  ( 0.7599999999999993427, 0.9000000000000000222, 0.3599999999999999867 ) ) ;
#1091 = ORIENTED_EDGE ( 'NONE', *, *, #227, .T. ) ;
#1092 = DIRECTION ( 'NONE',  ( 0.0000000000000000000, 0.0000000000000000000, -1.000000000000000000 ) ) ;
#1093 = ORIENTED_EDGE ( 'NONE', *, *, #1043, .F. ) ;
#1094 = ORIENTED_EDGE ( 'NONE', *, *, #409, .T. ) ;
#1095 = ORIENTED_EDGE ( 'NONE', *, *, #500, .T. ) ;
#1096 = LINE ( 'NONE', #270, #1071 ) ;
#1097 = DIRECTION ( 'NONE',  ( 0.0000000000000000000, 0.0000000000000000000, -1.000000000000000000 ) ) ;
#1098 = AXIS2_PLACEMENT_3D ( 'NONE', #1208, #331, #922 ) ;
#1099 = EDGE_CURVE ( 'NONE', #682, #961, #734, .T. ) ;
#1100 = CARTESIAN_POINT ( 'NONE',  ( -0.4499999999999995115, 0.8866666666666667140, -0.3599999999999996536 ) ) ;
#1101 = UNCERTAINTY_MEASURE_WITH_UNIT (LENGTH_MEASURE( 1.000000000000000082E-05 ), #377, 'distance_accuracy_value', 'NONE');
#1102 = LINE ( 'NONE', #1008, #923 ) ;
#1103 = PLANE ( 'NONE',  #995 ) ;
#1104 = LINE ( 'NONE', #1192, #246 ) ;
#1105 = CIRCLE ( 'NONE', #149, 0.02666666666666664756 ) ;
#1106 = EDGE_CURVE ( 'NONE', #988, #220, #990, .T. ) ;
#1107 = ORIENTED_EDGE ( 'NONE', *, *, #940, .T. ) ;
#1108 = DIRECTION ( 'NONE',  ( 0.0000000000000000000, -1.000000000000000000, 0.0000000000000000000 ) ) ;
#1109 = EDGE_LOOP ( 'NONE', ( #815, #125, #1173, #19 ) ) ;
#1110 = VECTOR ( 'NONE', #882, 1000.000000000000000 ) ;
#1111 = ORIENTED_EDGE ( 'NONE', *, *, #256, .T. ) ;
#1112 = DIRECTION ( 'NONE',  ( 1.000000000000000000, 0.0000000000000000000, -8.673617379884036705E-17 ) ) ;
#1113 = CARTESIAN_POINT ( 'NONE',  ( 0.7599999999999994538, 0.8599999999999999867, -0.3599999999999995426 ) ) ;
#1114 = FACE_OUTER_BOUND ( 'NONE', #89, .T. ) ;
#1115 = AXIS2_PLACEMENT_3D ( 'NONE', #392, #1167, #501 ) ;
#1116 = DIRECTION ( 'NONE',  ( 0.0000000000000000000, 1.000000000000000000, 0.0000000000000000000 ) ) ;
#1117 = VECTOR ( 'NONE', #393, 1000.000000000000000 ) ;
#1118 = CARTESIAN_POINT ( 'NONE',  ( -0.7599999999999993427, 0.8599999999999999867, 0.3599999999999999867 ) ) ;
#1119 = AXIS2_PLACEMENT_3D ( 'NONE', #175, #1055, #183 ) ;
#1120 = VERTEX_POINT ( 'NONE', #368 ) ;
#1121 = ORIENTED_EDGE ( 'NONE', *, *, #483, .F. ) ;
#1122 = CARTESIAN_POINT ( 'NONE',  ( 0.7999999999999994893, 0.03999999999999999389, -0.3599999999999995426 ) ) ;
#1123 = EDGE_CURVE ( 'NONE', #735, #405, #586, .T. ) ;
#1124 = CARTESIAN_POINT ( 'NONE',  ( 0.0000000000000000000, 0.0000000000000000000, 0.3599999999999999867 ) ) ;
#1125 = VERTEX_POINT ( 'NONE', #1249 ) ;
#1126 = VERTEX_POINT ( 'NONE', #1152 ) ;
#1127 = SURFACE_STYLE_USAGE ( .BOTH. , #451 ) ;
#1128 = CIRCLE ( 'NONE', #935, 0.03999999999999999389 ) ;
#1129 = CARTESIAN_POINT ( 'NONE',  ( -0.7999999999999994893, 0.9000000000000000222, -0.3999999999999995226 ) ) ;
#1130 = FILL_AREA_STYLE ('',( #47 ) ) ;
#1131 = EDGE_CURVE ( 'NONE', #398, #721, #86, .T. ) ;
#1132 = DIRECTION ( 'NONE',  ( -1.000000000000000000, -0.0000000000000000000, 8.673617379884036705E-17 ) ) ;
#1133 = CARTESIAN_POINT ( 'NONE',  ( 0.0000000000000000000, 0.8599999999999999867, 0.3599999999999999867 ) ) ;
#1134 = CARTESIAN_POINT ( 'NONE',  ( 0.0000000000000000000, 0.9000000000000000222, 0.0000000000000000000 ) ) ;
#1135 = DIRECTION ( 'NONE',  ( 0.0000000000000000000, 0.0000000000000000000, 1.000000000000000000 ) ) ;
#1136 = CIRCLE ( 'NONE', #563, 0.03999999999999999389 ) ;
#1137 = ORIENTED_EDGE ( 'NONE', *, *, #1083, .T. ) ;
#1138 = DIRECTION ( 'NONE',  ( 1.000000000000000000, 0.0000000000000000000, -3.097720492815726673E-16 ) ) ;
#1139 = DIRECTION ( 'NONE',  ( 0.0000000000000000000, -1.000000000000000000, -0.0000000000000000000 ) ) ;
#1140 = FACE_OUTER_BOUND ( 'NONE', #250, .T. ) ;
#1141 = ORIENTED_EDGE ( 'NONE', *, *, #895, .F. ) ;
#1142 = ORIENTED_EDGE ( 'NONE', *, *, #483, .T. ) ;
#1143 = DIRECTION ( 'NONE',  ( -1.000000000000000000, 0.0000000000000000000, 0.0000000000000000000 ) ) ;
#1144 = AXIS2_PLACEMENT_3D ( 'NONE', #850, #260, #467 ) ;
#1145 = ADVANCED_FACE ( 'NONE', ( #156 ), #48, .T. ) ;
#1146 = AXIS2_PLACEMENT_3D ( 'NONE', #374, #180, #79 ) ;
#1147 = DIRECTION ( 'NONE',  ( 0.0000000000000000000, 1.000000000000000000, 0.0000000000000000000 ) ) ;
#1148 = CARTESIAN_POINT ( 'NONE',  ( 0.7999999999999993783, 0.03999999999999999389, 0.3999999999999999667 ) ) ;
#1149 = EDGE_CURVE ( 'NONE', #1238, #1234, #1034, .T. ) ;
#1150 = AXIS2_PLACEMENT_3D ( 'NONE', #375, #683, #82 ) ;
#1151 = CARTESIAN_POINT ( 'NONE',  ( 0.4499999999999994005, 0.0000000000000000000, 0.3599999999999999867 ) ) ;
#1152 = CARTESIAN_POINT ( 'NONE',  ( 0.7599999999999994538, 0.8599999999999999867, -0.3999999999999995226 ) ) ;
#1153 = ADVANCED_FACE ( 'NONE', ( #822 ), #414, .T. ) ;
#1154 = LINE ( 'NONE', #1074, #713 ) ;
#1155 = DIRECTION ( 'NONE',  ( 1.000000000000000000, 0.0000000000000000000, 6.776263578034406410E-17 ) ) ;
#1156 = ORIENTED_EDGE ( 'NONE', *, *, #281, .T. ) ;
#1157 = EDGE_LOOP ( 'NONE', ( #104, #919, #288, #236 ) ) ;
#1158 = FACE_OUTER_BOUND ( 'NONE', #204, .T. ) ;
#1159 = ORIENTED_EDGE ( 'NONE', *, *, #1001, .T. ) ;
#1160 = ORIENTED_EDGE ( 'NONE', *, *, #687, .F. ) ;
#1161 = CARTESIAN_POINT ( 'NONE',  ( -0.4499999999999994005, 0.8599999999999999867, 0.3866666666666666030 ) ) ;
#1162 = CARTESIAN_POINT ( 'NONE',  ( 0.7599999999999993427, 0.8599999999999999867, 0.3599999999999999867 ) ) ;
#1163 = FACE_OUTER_BOUND ( 'NONE', #900, .T. ) ;
#1164 = AXIS2_PLACEMENT_3D ( 'NONE', #155, #1226, #351 ) ;
#1165 = CARTESIAN_POINT ( 'NONE',  ( 500000.0000000000582, 0.03999999999999999389, -0.3600000000433677960 ) ) ;
#1166 = AXIS2_PLACEMENT_3D ( 'NONE', #858, #471, #666 ) ;
#1167 = DIRECTION ( 'NONE',  ( 0.0000000000000000000, -1.000000000000000000, 0.0000000000000000000 ) ) ;
#1168 = VECTOR ( 'NONE', #494, 1000.000000000000000 ) ;
#1169 = EDGE_CURVE ( 'NONE', #572, #426, #901, .T. ) ;
#1170 = CIRCLE ( 'NONE', #1190, 0.03999999999999999389 ) ;
#1171 = ORIENTED_EDGE ( 'NONE', *, *, #659, .T. ) ;
#1172 = DIRECTION ( 'NONE',  ( 0.0000000000000000000, 0.0000000000000000000, 1.000000000000000000 ) ) ;
#1173 = ORIENTED_EDGE ( 'NONE', *, *, #631, .F. ) ;
#1174 = VECTOR ( 'NONE', #513, 1000.000000000000000 ) ;
#1175 = ORIENTED_EDGE ( 'NONE', *, *, #8, .F. ) ;
#1176 = ORIENTED_EDGE ( 'NONE', *, *, #845, .T. ) ;
#1177 = EDGE_CURVE ( 'NONE', #1125, #496, #109, .T. ) ;
#1178 = FILL_AREA_STYLE_COLOUR ( '', #928 ) ;
#1179 = DIRECTION ( 'NONE',  ( 1.000000000000000000, -0.0000000000000000000, 0.0000000000000000000 ) ) ;
#1180 = VECTOR ( 'NONE', #584, 1000.000000000000000 ) ;
#1181 = ADVANCED_FACE ( 'NONE', ( #1215 ), #635, .T. ) ;
#1182 = MANIFOLD_SOLID_BREP ( 'Boss-Extrude2', #1235 ) ;
#1183 = DIRECTION ( 'NONE',  ( 0.0000000000000000000, 0.0000000000000000000, -1.000000000000000000 ) ) ;
#1184 = CARTESIAN_POINT ( 'NONE',  ( -0.7599999999999994538, 0.03999999999999999389, -0.3599999999999995426 ) ) ;
#1185 = CARTESIAN_POINT ( 'NONE',  ( 0.7599999999999994538, 0.03999999999999999389, -0.3999999999999995226 ) ) ;
#1186 = ORIENTED_EDGE ( 'NONE', *, *, #117, .T. ) ;
#1187 = ORIENTED_EDGE ( 'NONE', *, *, #871, .F. ) ;
#1188 = ORIENTED_EDGE ( 'NONE', *, *, #649, .T. ) ;
#1189 = VECTOR ( 'NONE', #122, 1000.000000000000000 ) ;
#1190 = AXIS2_PLACEMENT_3D ( 'NONE', #1248, #852, #952 ) ;
#1191 = FACE_OUTER_BOUND ( 'NONE', #619, .T. ) ;
#1192 = CARTESIAN_POINT ( 'NONE',  ( 0.7599999999999994538, 0.0000000000000000000, 1.029992063861229336E-16 ) ) ;
#1193 = EDGE_CURVE ( 'NONE', #294, #722, #1154, .T. ) ;
#1194 = DIRECTION ( 'NONE',  ( -1.000000000000000000, 0.0000000000000000000, 0.0000000000000000000 ) ) ;
#1195 = CIRCLE ( 'NONE', #742, 0.02666666666666669960 ) ;
#1196 = DIRECTION ( 'NONE',  ( -1.000000000000000000, 0.0000000000000000000, -3.097720492815726673E-16 ) ) ;
#1197 = UNCERTAINTY_MEASURE_WITH_UNIT (LENGTH_MEASURE( 1.000000000000000082E-05 ), #973, 'distance_accuracy_value', 'NONE');
#1198 = EDGE_CURVE ( 'NONE', #426, #906, #1239, .T. ) ;
#1199 = LINE ( 'NONE', #44, #362 ) ;
#1200 = LINE ( 'NONE', #958, #810 ) ;
#1201 = ORIENTED_EDGE ( 'NONE', *, *, #605, .F. ) ;
#1202 = COLOUR_RGB ( '',0.7921568627450980005, 0.8196078431372548767, 0.9333333333333333481 ) ;
#1203 = ORIENTED_EDGE ( 'NONE', *, *, #1123, .F. ) ;
#1204 = VERTEX_POINT ( 'NONE', #593 ) ;
#1205 = CARTESIAN_POINT ( 'NONE',  ( 0.7599999999999993427, 0.0000000000000000000, 0.3599999999999999867 ) ) ;
#1206 = CARTESIAN_POINT ( 'NONE',  ( -0.4499999999999994560, 0.0000000000000000000, -0.3599999999999996536 ) ) ;
#1207 = AXIS2_PLACEMENT_3D ( 'NONE', #791, #691, #1172 ) ;
#1208 = CARTESIAN_POINT ( 'NONE',  ( -0.7599999999999993427, 0.8599999999999999867, 0.3599999999999999867 ) ) ;
#1209 = DIRECTION ( 'NONE',  ( -6.776263578034406410E-17, -0.0000000000000000000, -1.000000000000000000 ) ) ;
#1210 = AXIS2_PLACEMENT_3D ( 'NONE', #370, #853, #197 ) ;
#1211 = CIRCLE ( 'NONE', #480, 0.03999999999999999389 ) ;
#1212 = EDGE_CURVE ( 'NONE', #980, #721, #931, .T. ) ;
#1213 = CARTESIAN_POINT ( 'NONE',  ( -0.7599999999999994538, 0.9000000000000000222, -0.3999999999999995226 ) ) ;
#1214 = AXIS2_PLACEMENT_3D ( 'NONE', #1165, #955, #1250 ) ;
#1215 = FACE_OUTER_BOUND ( 'NONE', #639, .T. ) ;
#1216 = CARTESIAN_POINT ( 'NONE',  ( 0.7599999999999994538, 0.9000000000000000222, -0.3599999999999995426 ) ) ;
#1217 = EDGE_LOOP ( 'NONE', ( #138, #445, #531 ) ) ;
#1218 = EDGE_LOOP ( 'NONE', ( #249, #814, #1187 ) ) ;
#1219 = LINE ( 'NONE', #968, #716 ) ;
#1220 = DIRECTION ( 'NONE',  ( 1.000000000000000000, 0.0000000000000000000, 3.097720492815726673E-16 ) ) ;
#1221 = DIRECTION ( 'NONE',  ( 1.000000000000000000, 0.0000000000000000000, 0.0000000000000000000 ) ) ;
#1222 = CARTESIAN_POINT ( 'NONE',  ( 0.7599999999999993427, 0.9000000000000000222, 0.3599999999999999867 ) ) ;
#1223 = ADVANCED_FACE ( 'NONE', ( #737 ), #783, .F. ) ;
#1224 = CARTESIAN_POINT ( 'NONE',  ( -0.4499999999999995115, 0.8599999999999999867, -0.3599999999999996536 ) ) ;
#1225 = DIRECTION ( 'NONE',  ( 0.0000000000000000000, 1.000000000000000000, -0.0000000000000000000 ) ) ;
#1226 = DIRECTION ( 'NONE',  ( 0.0000000000000000000, 0.0000000000000000000, 1.000000000000000000 ) ) ;
#1227 = LINE ( 'NONE', #549, #1168 ) ;
#1228 = PRESENTATION_LAYER_ASSIGNMENT (  '', '', ( #761 ) ) ;
#1229 = DIRECTION ( 'NONE',  ( -1.355252715606881529E-16, 0.0000000000000000000, -1.000000000000000000 ) ) ;
#1230 = PLANE ( 'NONE',  #1082 ) ;
#1231 = LINE ( 'NONE', #832, #424 ) ;
#1232 = CARTESIAN_POINT ( 'NONE',  ( 0.7599999999999994538, 0.8599999999999999867, -0.3599999999999995426 ) ) ;
#1233 = AXIS2_PLACEMENT_3D ( 'NONE', #1118, #144, #830 ) ;
#1234 = VERTEX_POINT ( 'NONE', #1280 ) ;
#1235 = CLOSED_SHELL ( 'NONE', ( #60, #868, #1259, #163, #774, #1153, #839, #282, #562, #1052 ) ) ;
#1236 = LINE ( 'NONE', #800, #1254 ) ;
#1237 = AXIS2_PLACEMENT_3D ( 'NONE', #1245, #469, #473 ) ;
#1238 = VERTEX_POINT ( 'NONE', #794 ) ;
#1239 = LINE ( 'NONE', #688, #1110 ) ;
#1240 = DIRECTION ( 'NONE',  ( 1.000000000000000000, 0.0000000000000000000, -3.097720492815726673E-16 ) ) ;
#1241 = DIRECTION ( 'NONE',  ( 0.0000000000000000000, 0.0000000000000000000, 1.000000000000000000 ) ) ;
#1242 = CARTESIAN_POINT ( 'NONE',  ( -0.4499999999999994560, 0.03999999999999999389, -0.3599999999999996536 ) ) ;
#1243 = ORIENTED_EDGE ( 'NONE', *, *, #1149, .T. ) ;
#1244 = APPLICATION_CONTEXT ( 'automotive_design' ) ;
#1245 = CARTESIAN_POINT ( 'NONE',  ( 0.7599999999999993427, 0.03999999999999999389, 0.3599999999999999867 ) ) ;
#1246 = PRODUCT_CONTEXT ( 'NONE', #240, 'mechanical' ) ;
#1247 = EDGE_CURVE ( 'NONE', #879, #1126, #103, .T. ) ;
#1248 = CARTESIAN_POINT ( 'NONE',  ( -0.4499999999999994560, 0.8599999999999999867, -0.3599999999999996536 ) ) ;
#1249 = CARTESIAN_POINT ( 'NONE',  ( 0.7599999999999993427, 0.8599999999999999867, 0.3999999999999999667 ) ) ;
#1250 = DIRECTION ( 'NONE',  ( 0.0000000000000000000, 0.0000000000000000000, 1.000000000000000000 ) ) ;
#1251 = EDGE_LOOP ( 'NONE', ( #612, #784, #402, #550 ) ) ;
#1252 = CARTESIAN_POINT ( 'NONE',  ( -0.7999999999999994893, 0.9000000000000000222, -0.3999999999999995226 ) ) ;
#1253 = FILL_AREA_STYLE ('',( #283 ) ) ;
#1254 = VECTOR ( 'NONE', #1086, 1000.000000000000000 ) ;
#1255 = ORIENTED_EDGE ( 'NONE', *, *, #321, .F. ) ;
#1256 = ORIENTED_EDGE ( 'NONE', *, *, #304, .T. ) ;
#1257 = CARTESIAN_POINT ( 'NONE',  ( 0.4499999999999994560, 0.9000000000000000222, -0.3999999999999996336 ) ) ;
#1258 = CIRCLE ( 'NONE', #1262, 0.03999999999999999389 ) ;
#1259 = ADVANCED_FACE ( 'NONE', ( #700 ), #1025, .F. ) ;
#1260 = CARTESIAN_POINT ( 'NONE',  ( 0.4500000000007275958, 0.01333333333333333245, -0.3599999999999995426 ) ) ;
#1261 = CARTESIAN_POINT ( 'NONE',  ( -0.7599999999999994538, 0.8599999999999999867, 1.029992063861229336E-16 ) ) ;
#1262 = AXIS2_PLACEMENT_3D ( 'NONE', #1113, #29, #446 ) ;
#1263 = CARTESIAN_POINT ( 'NONE',  ( 0.4500000000007275958, 0.8599999999999997646, -0.3866666666666663810 ) ) ;
#1264 = EDGE_CURVE ( 'NONE', #113, #1120, #111, .T. ) ;
#1265 = DIRECTION ( 'NONE',  ( -6.776263578034406410E-17, -0.0000000000000000000, -1.000000000000000000 ) ) ;
#1266 = FILL_AREA_STYLE ('',( #1178 ) ) ;
#1267 = CYLINDRICAL_SURFACE ( 'NONE', #869, 0.03999999999999999389 ) ;
#1268 = VECTOR ( 'NONE', #74, 1000.000000000000000 ) ;
#1269 = VERTEX_POINT ( 'NONE', #255 ) ;
#1270 = CARTESIAN_POINT ( 'NONE',  ( 0.4499999999999994560, 0.8599999999999999867, -0.3999999999999996336 ) ) ;
#1271 = ORIENTED_EDGE ( 'NONE', *, *, #827, .F. ) ;
#1272 = EDGE_CURVE ( 'NONE', #136, #1269, #799, .T. ) ;
#1273 = LINE ( 'NONE', #569, #364 ) ;
#1274 = ORIENTED_EDGE ( 'NONE', *, *, #1039, .T. ) ;
#1275 = EDGE_LOOP ( 'NONE', ( #305, #308, #1031 ) ) ;
#1276 = LINE ( 'NONE', #1161, #418 ) ;
#1277 = DIRECTION ( 'NONE',  ( 0.0000000000000000000, -1.000000000000000000, 0.0000000000000000000 ) ) ;
#1278 = PLANE ( 'NONE',  #387 ) ;
#1279 = PLANE ( 'NONE',  #241 ) ;
#1280 = CARTESIAN_POINT ( 'NONE',  ( 0.7999999999999994893, 0.03999999999999999389, -0.3599999999999995426 ) ) ;
ENDSEC;
END-ISO-10303-21;
