ISO-10303-21;
HEADER;
FILE_DESCRIPTION (( 'STEP AP214' ),
    '1' );
FILE_NAME ('3.21.61.80.5.STEP',
    '2024-09-27T10:05:32',
    ( 'LENOVO' ),
    ( '' ),
    'SwSTEP 2.0',
    'SolidWorks 2021',
    '' );
FILE_SCHEMA (( 'AUTOMOTIVE_DESIGN' ));
ENDSEC;

DATA;
#1 = LINE ( 'NONE', #662, #56 ) ;
#2 = ORIENTED_EDGE ( 'NONE', *, *, #210, .F. ) ;
#3 = APPLICATION_CONTEXT ( 'automotive_design' ) ;
#4 = ORIENTED_EDGE ( 'NONE', *, *, #1126, .T. ) ;
#5 = AXIS2_PLACEMENT_3D ( 'NONE', #8, #745, #97 ) ;
#6 = ORIENTED_EDGE ( 'NONE', *, *, #681, .F. ) ;
#7 = CARTESIAN_POINT ( 'NONE',  ( -1.100000000000000311, 0.08000000000000043188, 0.7733333333333335391 ) ) ;
#8 = CARTESIAN_POINT ( 'NONE',  ( 0.000000000000000000, 1.719999999999999973, -0.7199999999999995293 ) ) ;
#9 = ORIENTED_EDGE ( 'NONE', *, *, #1227, .F. ) ;
#10 = PRODUCT_DEFINITION_SHAPE ( 'NONE', 'NONE',  #106 ) ;
#11 =( NAMED_UNIT ( * ) SI_UNIT ( $, .STERADIAN. ) SOLID_ANGLE_UNIT ( ) );
#12 = EDGE_CURVE ( 'NONE', #176, #992, #267, .T. ) ;
#13 = CARTESIAN_POINT ( 'NONE',  ( 1.100000000008094503, 0.02666666666666666491, 0.7199999998888689801 ) ) ;
#14 = CARTESIAN_POINT ( 'NONE',  ( -1.520000000000000018, 0.07999999999999998779, 0.7200000000000003064 ) ) ;
#15 = ORIENTED_EDGE ( 'NONE', *, *, #424, .T. ) ;
#16 = EDGE_LOOP ( 'NONE', ( #1043, #15, #824 ) ) ;
#17 = DIRECTION ( 'NONE',  ( 1.000000000000000000, 0.000000000000000000, 0.000000000000000000 ) ) ;
#18 = FACE_OUTER_BOUND ( 'NONE', #1111, .T. ) ;
#19 =( LENGTH_UNIT ( ) NAMED_UNIT ( * ) SI_UNIT ( .MILLI., .METRE. ) );
#20 = CIRCLE ( 'NONE', #305, 0.07999999999999998779 ) ;
#21 = CIRCLE ( 'NONE', #641, 0.05333333333333329512 ) ;
#22 = AXIS2_PLACEMENT_3D ( 'NONE', #949, #854, #559 ) ;
#23 = DIRECTION ( 'NONE',  ( 0.000000000000000000, 0.000000000000000000, 1.000000000000000000 ) ) ;
#25 = CARTESIAN_POINT ( 'NONE',  ( -1.100000000000000311, 0.000000000000000000, -0.7199999999999995293 ) ) ;
#24 = FACE_OUTER_BOUND ( 'NONE', #1000, .T. ) ;
#26 = VECTOR ( 'NONE', #1081, 1000.000000000000000 ) ;
#27 = LINE ( 'NONE', #952, #892 ) ;
#28 = CYLINDRICAL_SURFACE ( 'NONE', #700, 0.07999999999999998779 ) ;
#29 = CIRCLE ( 'NONE', #322, 0.07999999999999998779 ) ;
#30 = EDGE_CURVE ( 'NONE', #1217, #1056, #712, .T. ) ;
#31 = DIRECTION ( 'NONE',  ( 1.355252715606880789E-16, -0.000000000000000000, 1.000000000000000000 ) ) ;
#33 = DIRECTION ( 'NONE',  ( 0.000000000000000000, 0.000000000000000000, 1.000000000000000000 ) ) ;
#32 = LINE ( 'NONE', #747, #452 ) ;
#34 = LINE ( 'NONE', #896, #910 ) ;
#35 = SPHERICAL_SURFACE ( 'NONE', #291, 0.08000000000000000167 ) ;
#36 = VECTOR ( 'NONE', #360, 1000.000000000000000 ) ;
#37 = CARTESIAN_POINT ( 'NONE',  ( 500000.0000000000582, 0.02666666666666666491, -0.7200000000433672831 ) ) ;
#38 = LINE ( 'NONE', #605, #460 ) ;
#39 = VECTOR ( 'NONE', #153, 1000.000000000000000 ) ;
#40 = CYLINDRICAL_SURFACE ( 'NONE', #430, 0.07999999999999998779 ) ;
#41 = DIRECTION ( 'NONE',  ( 0.000000000000000000, -1.000000000000000000, 0.000000000000000000 ) ) ;
#42 = DIRECTION ( 'NONE',  ( 0.000000000000000000, 0.000000000000000000, 1.000000000000000000 ) ) ;
#44 =( LENGTH_UNIT ( ) NAMED_UNIT ( * ) SI_UNIT ( .MILLI., .METRE. ) );
#43 = FACE_OUTER_BOUND ( 'NONE', #16, .T. ) ;
#45 = LINE ( 'NONE', #183, #36 ) ;
#46 = VECTOR ( 'NONE', #659, 1000.000000000000000 ) ;
#47 = LINE ( 'NONE', #1071, #451 ) ;
#48 = DIRECTION ( 'NONE',  ( 0.000000000000000000, -0.000000000000000000, -1.000000000000000000 ) ) ;
#49 = FACE_OUTER_BOUND ( 'NONE', #1009, .T. ) ;
#50 = CARTESIAN_POINT ( 'NONE',  ( -1.520000000000000240, 0.07999999999999998779, -0.7199999999999995293 ) ) ;
#51 = DIRECTION ( 'NONE',  ( 0.000000000000000000, 0.000000000000000000, -1.000000000000000000 ) ) ;
#52 = LINE ( 'NONE', #195, #54 ) ;
#53 = VECTOR ( 'NONE', #610, 1000.000000000000000 ) ;
#54 = VECTOR ( 'NONE', #989, 1000.000000000000000 ) ;
#55 = FACE_OUTER_BOUND ( 'NONE', #672, .T. ) ;
#56 = VECTOR ( 'NONE', #260, 1000.000000000000000 ) ;
#57 = LINE ( 'NONE', #13, #480 ) ;
#58 = AXIS2_PLACEMENT_3D ( 'NONE', #208, #395, #916 ) ;
#59 = DIRECTION ( 'NONE',  ( -1.000000000000000000, 0.000000000000000000, 0.000000000000000000 ) ) ;
#60 = PLANE ( 'NONE',  #165 ) ;
#61 =( NAMED_UNIT ( * ) SI_UNIT ( $, .STERADIAN. ) SOLID_ANGLE_UNIT ( ) );
#62 = MANIFOLD_SOLID_BREP ( 'Mirror2', #751 ) ;
#63 = LINE ( 'NONE', #876, #470 ) ;
#64 = FACE_OUTER_BOUND ( 'NONE', #783, .T. ) ;
#65 = CARTESIAN_POINT ( 'NONE',  ( -1.100000000000000311, 1.719999999999999973, -0.7999999999999994893 ) ) ;
#66 = FACE_OUTER_BOUND ( 'NONE', #575, .T. ) ;
#67 = DIRECTION ( 'NONE',  ( 1.000000000000000000, 0.000000000000000000, 1.355252715606880789E-16 ) ) ;
#68 = DIRECTION ( 'NONE',  ( -1.000000000000000000, -0.000000000000000000, 8.673617379884039170E-17 ) ) ;
#69 = ADVANCED_FACE ( 'NONE', ( #285 ), #1070, .F. ) ;
#70 = DIRECTION ( 'NONE',  ( 0.000000000000000000, 0.000000000000000000, 1.000000000000000000 ) ) ;
#71 = DIRECTION ( 'NONE',  ( 0.000000000000000000, 0.000000000000000000, 1.000000000000000000 ) ) ;
#72 = DIRECTION ( 'NONE',  ( -1.355252715606880789E-16, 0.000000000000000000, -1.000000000000000000 ) ) ;
#73 = CARTESIAN_POINT ( 'NONE',  ( -1.520000000000000240, 1.719999999999999973, -0.7199999999999995293 ) ) ;
#74 = LINE ( 'NONE', #272, #927 ) ;
#75 = EDGE_CURVE ( 'NONE', #1244, #1135, #251, .T. ) ;
#76 = DIRECTION ( 'NONE',  ( 0.000000000000000000, 0.000000000000000000, 1.000000000000000000 ) ) ;
#77 = CARTESIAN_POINT ( 'NONE',  ( 1.520000000000000018, 1.800000000000000044, 0.7200000000000003064 ) ) ;
#78 = CARTESIAN_POINT ( 'NONE',  ( -1.100000000000000311, 1.800000000000000044, -0.7199999999999995293 ) ) ;
#79 = CARTESIAN_POINT ( 'NONE',  ( 1.100000000121781341, 1.719999999999999973, 0.7733333333333333171 ) ) ;
#80 = AXIS2_PLACEMENT_3D ( 'NONE', #696, #214, #1013 ) ;
#81 = PRODUCT_DEFINITION_FORMATION_WITH_SPECIFIED_SOURCE ( 'ANY', '', #826, .NOT_KNOWN. ) ;
#82 = LINE ( 'NONE', #437, #511 ) ;
#83 = CARTESIAN_POINT ( 'NONE',  ( 1.520000000000000018, 1.719999999999999973, 0.8000000000000002665 ) ) ;
#84 = DIRECTION ( 'NONE',  ( 1.000000000000000000, 0.000000000000000000, -1.355252715606880789E-16 ) ) ;
#85 = ADVANCED_FACE ( 'NONE', ( #254 ), #1149, .T. ) ;
#86 = PLANE ( 'NONE',  #484 ) ;
#87 = EDGE_CURVE ( 'NONE', #274, #196, #349, .T. ) ;
#88 = LINE ( 'NONE', #823, #519 ) ;
#89 = DIRECTION ( 'NONE',  ( -1.000000000000000000, 0.000000000000000000, -0.000000000000000000 ) ) ;
#90 = CARTESIAN_POINT ( 'NONE',  ( -1.100000000000000089, 1.800000000000000044, 0.8000000000000002665 ) ) ;
#91 = AXIS2_PLACEMENT_3D ( 'NONE', #474, #550, #502 ) ;
#92 = AXIS2_PLACEMENT_3D ( 'NONE', #908, #683, #518 ) ;
#93 = DIRECTION ( 'NONE',  ( -1.000000000000000000, 0.000000000000000000, 0.000000000000000000 ) ) ;
#94 = EDGE_CURVE ( 'NONE', #584, #217, #1158, .T. ) ;
#95 = SURFACE_SIDE_STYLE ('',( #107 ) ) ;
#96 = CARTESIAN_POINT ( 'NONE',  ( -1.100000000000000311, 1.719999999999999973, 0.7733333333333335391 ) ) ;
#97 = DIRECTION ( 'NONE',  ( 0.000000000000000000, 0.000000000000000000, -1.000000000000000000 ) ) ;
#98 = EDGE_CURVE ( 'NONE', #388, #211, #1186, .T. ) ;
#99 = DIRECTION ( 'NONE',  ( 0.000000000000000000, 0.000000000000000000, -1.000000000000000000 ) ) ;
#100 = VECTOR ( 'NONE', #479, 1000.000000000000000 ) ;
#101 = DIRECTION ( 'NONE',  ( 1.000000000000000000, 0.000000000000000000, 1.355252715606880789E-16 ) ) ;
#102 = CIRCLE ( 'NONE', #403, 0.07999999999999998779 ) ;
#103 = AXIS2_PLACEMENT_3D ( 'NONE', #14, #361, #972 ) ;
#104 = CARTESIAN_POINT ( 'NONE',  ( 1.520000000000000018, 0.07999999999999998779, 0.8000000000000002665 ) ) ;
#105 = CARTESIAN_POINT ( 'NONE',  ( -1.520000000000000018, 1.800000000000000044, 0.7200000000000003064 ) ) ;
#106 = PRODUCT_DEFINITION ( 'UNKNOWN', '', #81, #142 ) ;
#107 = SURFACE_STYLE_FILL_AREA ( #482 ) ;
#108 = AXIS2_PLACEMENT_3D ( 'NONE', #743, #1137, #491 ) ;
#109 = CARTESIAN_POINT ( 'NONE',  ( 1.520000000000000018, 1.719999999999999973, 0.7200000000000003064 ) ) ;
#110 = FACE_OUTER_BOUND ( 'NONE', #1003, .T. ) ;
#111 =( NAMED_UNIT ( * ) PLANE_ANGLE_UNIT ( ) SI_UNIT ( $, .RADIAN. ) );
#112 = VECTOR ( 'NONE', #1237, 1000.000000000000000 ) ;
#113 = DIRECTION ( 'NONE',  ( 0.000000000000000000, 1.000000000000000000, 0.000000000000000000 ) ) ;
#114 = LINE ( 'NONE', #1006, #119 ) ;
#115 = FACE_OUTER_BOUND ( 'NONE', #1140, .T. ) ;
#116 = FACE_OUTER_BOUND ( 'NONE', #864, .T. ) ;
#117 = CARTESIAN_POINT ( 'NONE',  ( -1.100000000000000311, 0.02666666666666666491, -0.7199999999999990852 ) ) ;
#118 = DIRECTION ( 'NONE',  ( 0.000000000000000000, 0.000000000000000000, 1.000000000000000000 ) ) ;
#119 = VECTOR ( 'NONE', #428, 1000.000000000000000 ) ;
#120 = EDGE_CURVE ( 'NONE', #761, #339, #767, .T. ) ;
#121 = VECTOR ( 'NONE', #722, 1000.000000000000000 ) ;
#122 = ADVANCED_BREP_SHAPE_REPRESENTATION ( '3.21.61.80.5', ( #534, #62, #512, #1040 ), #563 ) ;
#123 = DIRECTION ( 'NONE',  ( -1.000000000000000000, -0.000000000000000000, -0.000000000000000000 ) ) ;
#124 = DIRECTION ( 'NONE',  ( 1.355252715606880789E-16, -0.000000000000000000, -1.000000000000000000 ) ) ;
#125 = SURFACE_SIDE_STYLE ('',( #362 ) ) ;
#126 = ADVANCED_FACE ( 'NONE', ( #1198 ), #331, .T. ) ;
#127 = EDGE_CURVE ( 'NONE', #307, #220, #1155, .T. ) ;
#128 = AXIS2_PLACEMENT_3D ( 'NONE', #1233, #855, #1010 ) ;
#129 = DIRECTION ( 'NONE',  ( 0.000000000000000000, 0.000000000000000000, -1.000000000000000000 ) ) ;
#130 = LINE ( 'NONE', #1255, #100 ) ;
#131 = CARTESIAN_POINT ( 'NONE',  ( 1.520000000000000018, 0.07999999999999998779, 0.7200000000000003064 ) ) ;
#132 = DIRECTION ( 'NONE',  ( 1.000000000000000000, 0.000000000000000000, 0.000000000000000000 ) ) ;
#133 = SPHERICAL_SURFACE ( 'NONE', #356, 0.08000000000000000167 ) ;
#134 = EDGE_CURVE ( 'NONE', #765, #1232, #726, .T. ) ;
#135 = EDGE_CURVE ( 'NONE', #794, #856, #737, .T. ) ;
#136 = DIRECTION ( 'NONE',  ( 0.000000000000000000, -0.000000000000000000, -1.000000000000000000 ) ) ;
#137 = EDGE_CURVE ( 'NONE', #205, #377, #752, .T. ) ;
#138 = ORIENTED_EDGE ( 'NONE', *, *, #127, .T. ) ;
#139 = CARTESIAN_POINT ( 'NONE',  ( 500000.0000000000582, 1.719999999999999973, 0.7733333332899653412 ) ) ;
#140 = DIRECTION ( 'NONE',  ( -0.000000000000000000, -0.000000000000000000, 1.000000000000000000 ) ) ;
#141 = ORIENTED_EDGE ( 'NONE', *, *, #650, .F. ) ;
#142 = PRODUCT_DEFINITION_CONTEXT ( 'detailed design', #851, 'design' ) ;
#143 = ORIENTED_EDGE ( 'NONE', *, *, #281, .F. ) ;
#144 = ADVANCED_FACE ( 'NONE', ( #716 ), #1103, .F. ) ;
#145 = ORIENTED_EDGE ( 'NONE', *, *, #1017, .F. ) ;
#146 = CARTESIAN_POINT ( 'NONE',  ( -1.100000000000000311, 1.719999999999999973, -0.7199999999999995293 ) ) ;
#147 = ORIENTED_EDGE ( 'NONE', *, *, #622, .T. ) ;
#148 = DIRECTION ( 'NONE',  ( 0.000000000000000000, 0.000000000000000000, 1.000000000000000000 ) ) ;
#149 = ORIENTED_EDGE ( 'NONE', *, *, #405, .T. ) ;
#150 = DIRECTION ( 'NONE',  ( 0.000000000000000000, 0.000000000000000000, 1.000000000000000000 ) ) ;
#151 = CARTESIAN_POINT ( 'NONE',  ( 1.600000000000000311, 0.07999999999999998779, -0.7199999999999995293 ) ) ;
#152 = ORIENTED_EDGE ( 'NONE', *, *, #608, .F. ) ;
#153 = DIRECTION ( 'NONE',  ( 1.000000000000000000, -0.000000000000000000, -0.000000000000000000 ) ) ;
#154 = ORIENTED_EDGE ( 'NONE', *, *, #556, .F. ) ;
#155 = AXIS2_PLACEMENT_3D ( 'NONE', #1138, #84, #1276 ) ;
#156 = ORIENTED_EDGE ( 'NONE', *, *, #264, .F. ) ;
#157 = EDGE_LOOP ( 'NONE', ( #160, #738, #1120, #398 ) ) ;
#158 = DIRECTION ( 'NONE',  ( 0.000000000000000000, 1.000000000000000000, 0.000000000000000000 ) ) ;
#159 = DIRECTION ( 'NONE',  ( -1.000000000000000000, -0.000000000000000000, 8.673617379884039170E-17 ) ) ;
#160 = ORIENTED_EDGE ( 'NONE', *, *, #127, .F. ) ;
#161 = CARTESIAN_POINT ( 'NONE',  ( 1.100000000000000311, 0.000000000000000000, -0.7199999999999995293 ) ) ;
#162 = CARTESIAN_POINT ( 'NONE',  ( -1.600000000000000311, 0.07999999999999998779, -0.7999999999999994893 ) ) ;
#163 = ADVANCED_FACE ( 'NONE', ( #1162 ), #717, .T. ) ;
#164 = ORIENTED_EDGE ( 'NONE', *, *, #646, .F. ) ;
#165 = AXIS2_PLACEMENT_3D ( 'NONE', #139, #225, #705 ) ;
#166 = SURFACE_STYLE_USAGE ( .BOTH. , #95 ) ;
#167 = ORIENTED_EDGE ( 'NONE', *, *, #720, .F. ) ;
#168 = EDGE_CURVE ( 'NONE', #433, #198, #727, .T. ) ;
#169 = ORIENTED_EDGE ( 'NONE', *, *, #229, .F. ) ;
#170 = CARTESIAN_POINT ( 'NONE',  ( -1.520000000000000018, 1.800000000000000044, 0.7200000000000003064 ) ) ;
#171 = ORIENTED_EDGE ( 'NONE', *, *, #237, .T. ) ;
#172 = CARTESIAN_POINT ( 'NONE',  ( 1.100000000008094503, 1.719999999999999973, 0.7200000000000000844 ) ) ;
#173 = AXIS2_PLACEMENT_3D ( 'NONE', #1029, #72, #922 ) ;
#174 = VERTEX_POINT ( 'NONE', #77 ) ;
#175 = EDGE_LOOP ( 'NONE', ( #623, #432, #417, #1051 ) ) ;
#176 = VERTEX_POINT ( 'NONE', #711 ) ;
#177 = DIRECTION ( 'NONE',  ( 1.355252715606880789E-16, -0.000000000000000000, 1.000000000000000000 ) ) ;
#178 = DIRECTION ( 'NONE',  ( 1.355252715606880789E-16, -0.000000000000000000, -1.000000000000000000 ) ) ;
#179 = ORIENTED_EDGE ( 'NONE', *, *, #803, .T. ) ;
#180 = DIRECTION ( 'NONE',  ( 0.000000000000000000, 0.000000000000000000, -1.000000000000000000 ) ) ;
#181 = ORIENTED_EDGE ( 'NONE', *, *, #1210, .T. ) ;
#182 = ORIENTED_EDGE ( 'NONE', *, *, #1087, .F. ) ;
#183 = CARTESIAN_POINT ( 'NONE',  ( -1.520000000000000018, 1.800000000000000044, 0.8000000000000002665 ) ) ;
#184 = STYLED_ITEM ( 'NONE', ( #782 ), #512 ) ;
#185 = ORIENTED_EDGE ( 'NONE', *, *, #98, .T. ) ;
#186 = DIRECTION ( 'NONE',  ( 0.000000000000000000, -1.000000000000000000, 0.000000000000000000 ) ) ;
#187 = EDGE_LOOP ( 'NONE', ( #189, #1064, #1042, #350 ) ) ;
#188 = DIRECTION ( 'NONE',  ( -1.000000000000000000, -0.000000000000000000, 8.673617379884039170E-17 ) ) ;
#189 = ORIENTED_EDGE ( 'NONE', *, *, #979, .F. ) ;
#190 = EDGE_LOOP ( 'NONE', ( #429, #181, #394 ) ) ;
#191 = CARTESIAN_POINT ( 'NONE',  ( 1.100000000121781341, 1.773333333333333428, -0.7199999999999997513 ) ) ;
#192 = EDGE_CURVE ( 'NONE', #1061, #1201, #1150, .T. ) ;
#193 = ORIENTED_EDGE ( 'NONE', *, *, #1230, .F. ) ;
#194 = EDGE_CURVE ( 'NONE', #174, #709, #298, .T. ) ;
#195 = CARTESIAN_POINT ( 'NONE',  ( 1.600000000000000311, 0.07999999999999998779, -0.7999999999999994893 ) ) ;
#196 = VERTEX_POINT ( 'NONE', #65 ) ;
#197 = AXIS2_PLACEMENT_3D ( 'NONE', #906, #755, #877 ) ;
#198 = VERTEX_POINT ( 'NONE', #617 ) ;
#199 = DIRECTION ( 'NONE',  ( 0.000000000000000000, -1.000000000000000000, 0.000000000000000000 ) ) ;
#200 = CARTESIAN_POINT ( 'NONE',  ( -1.520000000000000018, 0.07999999999999998779, 0.8000000000000002665 ) ) ;
#201 = ADVANCED_FACE ( 'NONE', ( #721 ), #293, .T. ) ;
#202 = ORIENTED_EDGE ( 'NONE', *, *, #312, .T. ) ;
#203 = AXIS2_PLACEMENT_3D ( 'NONE', #713, #301, #798 ) ;
#204 = DIRECTION ( 'NONE',  ( 1.000000000000000000, 0.000000000000000000, 0.000000000000000000 ) ) ;
#205 = VERTEX_POINT ( 'NONE', #299 ) ;
#206 = ORIENTED_EDGE ( 'NONE', *, *, #135, .T. ) ;
#207 = ORIENTED_EDGE ( 'NONE', *, *, #993, .F. ) ;
#208 = CARTESIAN_POINT ( 'NONE',  ( -1.520000000000000240, 1.719999999999999973, -0.7199999999999995293 ) ) ;
#209 = CARTESIAN_POINT ( 'NONE',  ( -1.100000000000000089, 1.800000000000000044, 0.7200000000000003064 ) ) ;
#210 = EDGE_CURVE ( 'NONE', #1112, #581, #323, .T. ) ;
#211 = VERTEX_POINT ( 'NONE', #151 ) ;
#212 = DIRECTION ( 'NONE',  ( -1.000000000000000000, -0.000000000000000000, 8.673617379884039170E-17 ) ) ;
#213 = AXIS2_PLACEMENT_3D ( 'NONE', #105, #786, #560 ) ;
#214 = DIRECTION ( 'NONE',  ( 1.000000000000000000, 0.000000000000000000, 1.355252715606880789E-16 ) ) ;
#215 = CARTESIAN_POINT ( 'NONE',  ( 1.520000000000000240, 1.719999999999999973, -0.7999999999999994893 ) ) ;
#216 = DIRECTION ( 'NONE',  ( 0.000000000000000000, 0.000000000000000000, 1.000000000000000000 ) ) ;
#217 = VERTEX_POINT ( 'NONE', #1019 ) ;
#218 = EDGE_CURVE ( 'NONE', #794, #765, #1188, .T. ) ;
#219 = DIRECTION ( 'NONE',  ( -1.000000000000000000, 0.000000000000000000, 0.000000000000000000 ) ) ;
#220 = VERTEX_POINT ( 'NONE', #465 ) ;
#221 = DIRECTION ( 'NONE',  ( 1.355252715606880789E-16, 0.000000000000000000, -1.000000000000000000 ) ) ;
#222 = DIRECTION ( 'NONE',  ( 1.000000000000000000, 0.000000000000000000, 1.355252715606880789E-16 ) ) ;
#223 = CARTESIAN_POINT ( 'NONE',  ( 1.520000000000000240, 1.719999999999999973, -0.7199999999999995293 ) ) ;
#224 = CARTESIAN_POINT ( 'NONE',  ( 500000.0000000000582, 0.02666666666666668573, 0.7199999999566315534 ) ) ;
#225 = DIRECTION ( 'NONE',  ( -8.673617379884039170E-17, 0.000000000000000000, -1.000000000000000000 ) ) ;
#226 = DIRECTION ( 'NONE',  ( 1.000000000000000000, -0.000000000000000000, 0.000000000000000000 ) ) ;
#227 = UNCERTAINTY_MEASURE_WITH_UNIT (LENGTH_MEASURE( 1.000000000000000082E-05 ), #869, 'distance_accuracy_value', 'NONE');
#228 = DIRECTION ( 'NONE',  ( 0.000000000000000000, 0.000000000000000000, -1.000000000000000000 ) ) ;
#229 = EDGE_CURVE ( 'NONE', #196, #1236, #1205, .T. ) ;
#230 = DIRECTION ( 'NONE',  ( 0.000000000000000000, 0.000000000000000000, -1.000000000000000000 ) ) ;
#231 = DIRECTION ( 'NONE',  ( 1.000000000000000000, 0.000000000000000000, 0.000000000000000000 ) ) ;
#232 = ADVANCED_FACE ( 'NONE', ( #303 ), #316, .T. ) ;
#233 = AXIS2_PLACEMENT_3D ( 'NONE', #258, #1072, #982 ) ;
#234 = AXIS2_PLACEMENT_3D ( 'NONE', #265, #644, #1154 ) ;
#235 = DIRECTION ( 'NONE',  ( -1.000000000000000000, 0.000000000000000000, 0.000000000000000000 ) ) ;
#236 = CARTESIAN_POINT ( 'NONE',  ( 500000.0000000000582, 0.07999999999999998779, -0.7733333333767009599 ) ) ;
#237 = EDGE_CURVE ( 'NONE', #339, #1056, #1159, .T. ) ;
#238 = PLANE ( 'NONE',  #1185 ) ;
#239 = DIRECTION ( 'NONE',  ( 1.355252715606880789E-16, -0.000000000000000000, 1.000000000000000000 ) ) ;
#240 = ADVANCED_FACE ( 'NONE', ( #300 ), #748, .T. ) ;
#241 =( NAMED_UNIT ( * ) SI_UNIT ( $, .STERADIAN. ) SOLID_ANGLE_UNIT ( ) );
#242 = EDGE_CURVE ( 'NONE', #1201, #1018, #1169, .T. ) ;
#243 = CARTESIAN_POINT ( 'NONE',  ( 1.100000000121781341, 0.07999999999999998779, -0.7733333333333329840 ) ) ;
#244 = DIRECTION ( 'NONE',  ( 0.000000000000000000, -1.000000000000000000, 0.000000000000000000 ) ) ;
#245 = CARTESIAN_POINT ( 'NONE',  ( 1.520000000000000018, 0.07999999999999998779, 0.7200000000000003064 ) ) ;
#246 = AXIS2_PLACEMENT_3D ( 'NONE', #631, #222, #1106 ) ;
#247 = ADVANCED_FACE ( 'NONE', ( #1167 ), #671, .F. ) ;
#248 = DIRECTION ( 'NONE',  ( 0.000000000000000000, 0.000000000000000000, 1.000000000000000000 ) ) ;
#249 = CARTESIAN_POINT ( 'NONE',  ( 500000.0000000000582, 0.07999999999999998779, -0.7733333333767009599 ) ) ;
#250 = CARTESIAN_POINT ( 'NONE',  ( -1.600000000000000311, 0.07999999999999998779, -0.7999999999999994893 ) ) ;
#251 = CIRCLE ( 'NONE', #598, 0.07999999999999998779 ) ;
#252 = EDGE_CURVE ( 'NONE', #176, #1213, #1193, .T. ) ;
#253 = ORIENTED_EDGE ( 'NONE', *, *, #941, .T. ) ;
#254 = FACE_OUTER_BOUND ( 'NONE', #988, .T. ) ;
#255 = EDGE_CURVE ( 'NONE', #433, #1056, #757, .T. ) ;
#256 = VERTEX_POINT ( 'NONE', #1263 ) ;
#257 = DIRECTION ( 'NONE',  ( 1.000000000000000000, 0.000000000000000000, 0.000000000000000000 ) ) ;
#258 = CARTESIAN_POINT ( 'NONE',  ( -1.520000000000000240, 1.719999999999999973, -0.7199999999999995293 ) ) ;
#259 = ORIENTED_EDGE ( 'NONE', *, *, #853, .T. ) ;
#260 = DIRECTION ( 'NONE',  ( -1.355252715606880789E-16, -0.000000000000000000, -1.000000000000000000 ) ) ;
#261 = AXIS2_PLACEMENT_3D ( 'NONE', #309, #1033, #818 ) ;
#262 = EDGE_LOOP ( 'NONE', ( #422, #304, #152, #1027 ) ) ;
#263 = ORIENTED_EDGE ( 'NONE', *, *, #622, .F. ) ;
#264 = EDGE_CURVE ( 'NONE', #807, #1030, #344, .T. ) ;
#265 = CARTESIAN_POINT ( 'NONE',  ( 1.520000000000000018, 1.800000000000000044, 0.7200000000000003064 ) ) ;
#266 = DIRECTION ( 'NONE',  ( -0.000000000000000000, -1.000000000000000000, -0.000000000000000000 ) ) ;
#267 = LINE ( 'NONE', #590, #290 ) ;
#268 = ORIENTED_EDGE ( 'NONE', *, *, #505, .F. ) ;
#269 = DIRECTION ( 'NONE',  ( 0.000000000000000000, 0.000000000000000000, -1.000000000000000000 ) ) ;
#270 = DIRECTION ( 'NONE',  ( 0.000000000000000000, 0.000000000000000000, 1.000000000000000000 ) ) ;
#271 = ORIENTED_EDGE ( 'NONE', *, *, #621, .F. ) ;
#272 = CARTESIAN_POINT ( 'NONE',  ( 0.000000000000000000, 0.000000000000000000, -0.7199999999999995293 ) ) ;
#273 = DIRECTION ( 'NONE',  ( -0.000000000000000000, 1.000000000000000000, -0.000000000000000000 ) ) ;
#274 = VERTEX_POINT ( 'NONE', #777 ) ;
#275 = CARTESIAN_POINT ( 'NONE',  ( -1.100000000000000311, 0.07999999999999998779, -0.7199999999999995293 ) ) ;
#276 = ORIENTED_EDGE ( 'NONE', *, *, #955, .T. ) ;
#277 = COLOUR_RGB ( '',0.7921568627450980005, 0.8196078431372548767, 0.9333333333333333481 ) ;
#278 = ORIENTED_EDGE ( 'NONE', *, *, #999, .T. ) ;
#279 = EDGE_LOOP ( 'NONE', ( #411, #154, #701, #145 ) ) ;
#280 = DIRECTION ( 'NONE',  ( 8.673617379884039170E-17, -0.000000000000000000, 1.000000000000000000 ) ) ;
#281 = EDGE_CURVE ( 'NONE', #761, #220, #1147, .T. ) ;
#282 = ORIENTED_EDGE ( 'NONE', *, *, #237, .F. ) ;
#283 = DIRECTION ( 'NONE',  ( 0.000000000000000000, 0.000000000000000000, 1.000000000000000000 ) ) ;
#284 = ORIENTED_EDGE ( 'NONE', *, *, #656, .F. ) ;
#285 = FACE_OUTER_BOUND ( 'NONE', #279, .T. ) ;
#286 = DIRECTION ( 'NONE',  ( 0.000000000000000000, 1.000000000000000000, 0.000000000000000000 ) ) ;
#287 = AXIS2_PLACEMENT_3D ( 'NONE', #1024, #838, #180 ) ;
#288 = PLANE ( 'NONE',  #819 ) ;
#289 = CARTESIAN_POINT ( 'NONE',  ( 1.520000000000000240, 0.07999999999999998779, -0.7199999999999995293 ) ) ;
#290 = VECTOR ( 'NONE', #406, 1000.000000000000000 ) ;
#291 = AXIS2_PLACEMENT_3D ( 'NONE', #109, #587, #919 ) ;
#292 = DIRECTION ( 'NONE',  ( -0.000000000000000000, -1.000000000000000000, -0.000000000000000000 ) ) ;
#293 = CYLINDRICAL_SURFACE ( 'NONE', #261, 0.07999999999999998779 ) ;
#294 = ADVANCED_FACE ( 'NONE', ( #742 ), #1183, .T. ) ;
#295 = CARTESIAN_POINT ( 'NONE',  ( 1.600000000000000311, 1.719999999999999973, -0.7199999999999995293 ) ) ;
#296 = CARTESIAN_POINT ( 'NONE',  ( -1.520000000000000018, 1.719999999999999973, 0.7200000000000003064 ) ) ;
#297 = EDGE_CURVE ( 'NONE', #198, #274, #1172, .T. ) ;
#298 = LINE ( 'NONE', #1220, #319 ) ;
#299 = CARTESIAN_POINT ( 'NONE',  ( 1.100000000121781341, 1.773333333333333428, 0.7199999999999990852 ) ) ;
#300 = FACE_OUTER_BOUND ( 'NONE', #1129, .T. ) ;
#301 = DIRECTION ( 'NONE',  ( 0.000000000000000000, 0.000000000000000000, 1.000000000000000000 ) ) ;
#302 = DIRECTION ( 'NONE',  ( 1.355252715606880789E-16, 0.000000000000000000, -1.000000000000000000 ) ) ;
#303 = FACE_OUTER_BOUND ( 'NONE', #190, .T. ) ;
#304 = ORIENTED_EDGE ( 'NONE', *, *, #941, .F. ) ;
#305 = AXIS2_PLACEMENT_3D ( 'NONE', #73, #639, #1238 ) ;
#306 = ORIENTED_EDGE ( 'NONE', *, *, #955, .F. ) ;
#307 = VERTEX_POINT ( 'NONE', #200 ) ;
#308 = UNCERTAINTY_MEASURE_WITH_UNIT (LENGTH_MEASURE( 1.000000000000000082E-05 ), #44, 'distance_accuracy_value', 'NONE');
#309 = CARTESIAN_POINT ( 'NONE',  ( 0.000000000000000000, 1.719999999999999973, 0.7200000000000003064 ) ) ;
#310 = VECTOR ( 'NONE', #1174, 1000.000000000000000 ) ;
#311 = ORIENTED_EDGE ( 'NONE', *, *, #1157, .F. ) ;
#312 = EDGE_CURVE ( 'NONE', #599, #174, #1176, .T. ) ;
#313 = DIRECTION ( 'NONE',  ( -1.355252715606880789E-16, 0.000000000000000000, 1.000000000000000000 ) ) ;
#314 = VECTOR ( 'NONE', #1166, 1000.000000000000000 ) ;
#315 = ORIENTED_EDGE ( 'NONE', *, *, #1017, .T. ) ;
#316 = SPHERICAL_SURFACE ( 'NONE', #915, 0.08000000000000000167 ) ;
#317 = ORIENTED_EDGE ( 'NONE', *, *, #264, .T. ) ;
#318 = ADVANCED_FACE ( 'NONE', ( #340 ), #958, .F. ) ;
#319 = VECTOR ( 'NONE', #943, 1000.000000000000000 ) ;
#320 = ORIENTED_EDGE ( 'NONE', *, *, #1101, .F. ) ;
#321 = DIRECTION ( 'NONE',  ( -1.355252715606880789E-16, 0.000000000000000000, -1.000000000000000000 ) ) ;
#322 = AXIS2_PLACEMENT_3D ( 'NONE', #1248, #1262, #76 ) ;
#323 = CIRCLE ( 'NONE', #1093, 0.07999999999999998779 ) ;
#324 = ORIENTED_EDGE ( 'NONE', *, *, #907, .F. ) ;
#325 = CARTESIAN_POINT ( 'NONE',  ( 1.520000000000000240, 0.07999999999999998779, -0.7199999999999995293 ) ) ;
#326 = VECTOR ( 'NONE', #374, 1000.000000000000000 ) ;
#327 = ORIENTED_EDGE ( 'NONE', *, *, #494, .F. ) ;
#328 = EDGE_CURVE ( 'NONE', #1217, #274, #1231, .T. ) ;
#329 = VECTOR ( 'NONE', #159, 1000.000000000000000 ) ;
#330 = ORIENTED_EDGE ( 'NONE', *, *, #1037, .F. ) ;
#331 = CYLINDRICAL_SURFACE ( 'NONE', #128, 0.05333333333333339921 ) ;
#332 = ORIENTED_EDGE ( 'NONE', *, *, #1209, .F. ) ;
#333 = CARTESIAN_POINT ( 'NONE',  ( -1.100000000000000311, 0.07999999999999998779, -0.7733333333333327619 ) ) ;
#334 = DIRECTION ( 'NONE',  ( -1.000000000000000000, -0.000000000000000000, 8.673617379884039170E-17 ) ) ;
#335 = ORIENTED_EDGE ( 'NONE', *, *, #504, .T. ) ;
#336 = AXIS2_PLACEMENT_3D ( 'NONE', #131, #528, #626 ) ;
#337 = PLANE ( 'NONE',  #203 ) ;
#338 = CARTESIAN_POINT ( 'NONE',  ( 1.600000000000000089, 0.07999999999999998779, 0.7200000000000003064 ) ) ;
#339 = VERTEX_POINT ( 'NONE', #661 ) ;
#340 = FACE_OUTER_BOUND ( 'NONE', #628, .T. ) ;
#341 = ORIENTED_EDGE ( 'NONE', *, *, #210, .T. ) ;
#342 = AXIS2_PLACEMENT_3D ( 'NONE', #249, #280, #1066 ) ;
#343 = FILL_AREA_STYLE_COLOUR ( '', #524 ) ;
#344 = LINE ( 'NONE', #1050, #1207 ) ;
#345 = ORIENTED_EDGE ( 'NONE', *, *, #1143, .T. ) ;
#346 = AXIS2_PLACEMENT_3D ( 'NONE', #50, #123, #928 ) ;
#347 = DIRECTION ( 'NONE',  ( 0.000000000000000000, 0.000000000000000000, -1.000000000000000000 ) ) ;
#348 = DIRECTION ( 'NONE',  ( 0.000000000000000000, 0.000000000000000000, 1.000000000000000000 ) ) ;
#349 = LINE ( 'NONE', #1080, #310 ) ;
#350 = ORIENTED_EDGE ( 'NONE', *, *, #724, .F. ) ;
#351 = ADVANCED_FACE ( 'NONE', ( #365 ), #1269, .T. ) ;
#352 = DIRECTION ( 'NONE',  ( -0.000000000000000000, 1.000000000000000000, -0.000000000000000000 ) ) ;
#353 = FACE_OUTER_BOUND ( 'NONE', #797, .T. ) ;
#354 = ORIENTED_EDGE ( 'NONE', *, *, #831, .T. ) ;
#355 = ORIENTED_EDGE ( 'NONE', *, *, #12, .T. ) ;
#356 = AXIS2_PLACEMENT_3D ( 'NONE', #296, #848, #837 ) ;
#357 = VECTOR ( 'NONE', #627, 1000.000000000000000 ) ;
#358 = EDGE_LOOP ( 'NONE', ( #995, #179, #311 ) ) ;
#359 = EDGE_CURVE ( 'NONE', #599, #1177, #414, .T. ) ;
#360 = DIRECTION ( 'NONE',  ( 0.000000000000000000, -1.000000000000000000, 0.000000000000000000 ) ) ;
#361 = DIRECTION ( 'NONE',  ( -0.000000000000000000, -0.000000000000000000, -1.000000000000000000 ) ) ;
#362 = SURFACE_STYLE_FILL_AREA ( #923 ) ;
#363 = ORIENTED_EDGE ( 'NONE', *, *, #252, .F. ) ;
#364 = CARTESIAN_POINT ( 'NONE',  ( -1.100000000000000311, 1.719999999999999973, 0.7733333333333335391 ) ) ;
#365 = FACE_OUTER_BOUND ( 'NONE', #1194, .T. ) ;
#366 = VERTEX_POINT ( 'NONE', #170 ) ;
#367 = ADVANCED_FACE ( 'NONE', ( #1252 ), #577, .F. ) ;
#368 = AXIS2_PLACEMENT_3D ( 'NONE', #1224, #930, #302 ) ;
#369 = LINE ( 'NONE', #209, #357 ) ;
#370 = CLOSED_SHELL ( 'NONE', ( #1001, #937, #367, #85, #247, #469, #1221, #126, #144, #539 ) ) ;
#371 = AXIS2_PLACEMENT_3D ( 'NONE', #802, #790, #667 ) ;
#372 = FACE_OUTER_BOUND ( 'NONE', #262, .T. ) ;
#373 = ORIENTED_EDGE ( 'NONE', *, *, #218, .F. ) ;
#374 = DIRECTION ( 'NONE',  ( -0.000000000000000000, -1.000000000000000000, -0.000000000000000000 ) ) ;
#375 = ORIENTED_EDGE ( 'NONE', *, *, #242, .F. ) ;
#376 = DIRECTION ( 'NONE',  ( 0.000000000000000000, -1.000000000000000000, 0.000000000000000000 ) ) ;
#377 = VERTEX_POINT ( 'NONE', #652 ) ;
#378 = CIRCLE ( 'NONE', #1195, 0.07999999999999998779 ) ;
#379 = VERTEX_POINT ( 'NONE', #1145 ) ;
#380 = ADVANCED_FACE ( 'NONE', ( #397 ), #780, .T. ) ;
#381 = EDGE_CURVE ( 'NONE', #1025, #379, #827, .T. ) ;
#382 = CIRCLE ( 'NONE', #536, 0.05333333333333329512 ) ;
#383 = ORIENTED_EDGE ( 'NONE', *, *, #30, .T. ) ;
#384 = ORIENTED_EDGE ( 'NONE', *, *, #578, .F. ) ;
#385 = CARTESIAN_POINT ( 'NONE',  ( -1.520000000000000018, 0.000000000000000000, 0.7200000000000003064 ) ) ;
#386 = DIRECTION ( 'NONE',  ( 0.000000000000000000, 0.000000000000000000, 1.000000000000000000 ) ) ;
#387 = ORIENTED_EDGE ( 'NONE', *, *, #381, .F. ) ;
#388 = VERTEX_POINT ( 'NONE', #665 ) ;
#389 = VECTOR ( 'NONE', #239, 1000.000000000000000 ) ;
#390 = ORIENTED_EDGE ( 'NONE', *, *, #194, .F. ) ;
#391 = ORIENTED_EDGE ( 'NONE', *, *, #399, .F. ) ;
#392 = SURFACE_SIDE_STYLE ('',( #673 ) ) ;
#393 = LINE ( 'NONE', #714, #805 ) ;
#394 = ORIENTED_EDGE ( 'NONE', *, *, #1277, .F. ) ;
#395 = DIRECTION ( 'NONE',  ( 0.000000000000000000, 1.000000000000000000, 0.000000000000000000 ) ) ;
#396 = DIRECTION ( 'NONE',  ( -1.000000000000000000, -0.000000000000000000, -0.000000000000000000 ) ) ;
#397 = FACE_OUTER_BOUND ( 'NONE', #811, .T. ) ;
#398 = ORIENTED_EDGE ( 'NONE', *, *, #831, .F. ) ;
#399 = EDGE_CURVE ( 'NONE', #807, #804, #1246, .T. ) ;
#400 = DIRECTION ( 'NONE',  ( -1.000000000000000000, -0.000000000000000000, 8.673617379884039170E-17 ) ) ;
#401 = VERTEX_POINT ( 'NONE', #25 ) ;
#402 = ORIENTED_EDGE ( 'NONE', *, *, #1087, .T. ) ;
#403 = AXIS2_PLACEMENT_3D ( 'NONE', #553, #951, #1044 ) ;
#404 = ORIENTED_EDGE ( 'NONE', *, *, #979, .T. ) ;
#405 = EDGE_CURVE ( 'NONE', #754, #401, #774, .T. ) ;
#406 = DIRECTION ( 'NONE',  ( -1.000000000000000000, -0.000000000000000000, -0.000000000000000000 ) ) ;
#407 = LINE ( 'NONE', #448, #1260 ) ;
#408 = ORIENTED_EDGE ( 'NONE', *, *, #87, .T. ) ;
#409 = DIRECTION ( 'NONE',  ( -1.000000000000000000, 0.000000000000000000, 0.000000000000000000 ) ) ;
#410 = CARTESIAN_POINT ( 'NONE',  ( -1.100000000000000311, 0.000000000000000000, -0.7999999999999994893 ) ) ;
#411 = ORIENTED_EDGE ( 'NONE', *, *, #945, .F. ) ;
#412 = EDGE_LOOP ( 'NONE', ( #149, #1008, #690, #678, #1014, #1139, #1197, #990 ) ) ;
#413 = PLANE ( 'NONE',  #1152 ) ;
#414 = CIRCLE ( 'NONE', #699, 0.07999999999999998779 ) ;
#415 = ORIENTED_EDGE ( 'NONE', *, *, #578, .T. ) ;
#416 = VECTOR ( 'NONE', #438, 1000.000000000000000 ) ;
#417 = ORIENTED_EDGE ( 'NONE', *, *, #770, .T. ) ;
#418 = CIRCLE ( 'NONE', #654, 0.07999999999999998779 ) ;
#419 = EDGE_LOOP ( 'NONE', ( #768, #1223, #829, #387 ) ) ;
#420 = CARTESIAN_POINT ( 'NONE',  ( 1.600000000000000311, 1.800000000000000044, -0.7999999999999994893 ) ) ;
#421 = LINE ( 'NONE', #1280, #471 ) ;
#422 = ORIENTED_EDGE ( 'NONE', *, *, #787, .F. ) ;
#423 = ORIENTED_EDGE ( 'NONE', *, *, #505, .T. ) ;
#424 = EDGE_CURVE ( 'NONE', #1030, #1177, #832, .T. ) ;
#425 = ORIENTED_EDGE ( 'NONE', *, *, #573, .F. ) ;
#426 = ORIENTED_EDGE ( 'NONE', *, *, #399, .T. ) ;
#427 = DIRECTION ( 'NONE',  ( 0.000000000000000000, 0.000000000000000000, -1.000000000000000000 ) ) ;
#428 = DIRECTION ( 'NONE',  ( -1.355252715606880789E-16, 0.000000000000000000, 1.000000000000000000 ) ) ;
#429 = ORIENTED_EDGE ( 'NONE', *, *, #643, .F. ) ;
#430 = AXIS2_PLACEMENT_3D ( 'NONE', #464, #177, #257 ) ;
#431 = ADVANCED_FACE ( 'NONE', ( #353 ), #1179, .F. ) ;
#432 = ORIENTED_EDGE ( 'NONE', *, *, #381, .T. ) ;
#433 = VERTEX_POINT ( 'NONE', #1192 ) ;
#434 = CARTESIAN_POINT ( 'NONE',  ( 1.100000000000000311, 1.719999999999999973, -0.7199999999999995293 ) ) ;
#435 = VERTEX_POINT ( 'NONE', #604 ) ;
#436 = FACE_OUTER_BOUND ( 'NONE', #1211, .T. ) ;
#437 = CARTESIAN_POINT ( 'NONE',  ( -1.600000000000000311, 1.800000000000000044, -0.7199999999999995293 ) ) ;
#438 = DIRECTION ( 'NONE',  ( -1.355252715606880789E-16, -0.000000000000000000, -1.000000000000000000 ) ) ;
#439 = FACE_OUTER_BOUND ( 'NONE', #740, .T. ) ;
#440 = VECTOR ( 'NONE', #503, 1000.000000000000000 ) ;
#441 = LINE ( 'NONE', #521, #53 ) ;
#442 = LINE ( 'NONE', #580, #842 ) ;
#443 = DIRECTION ( 'NONE',  ( -1.000000000000000000, 0.000000000000000000, 0.000000000000000000 ) ) ;
#444 = VECTOR ( 'NONE', #728, 1000.000000000000000 ) ;
#445 = PRESENTATION_LAYER_ASSIGNMENT (  '', '', ( #184 ) ) ;
#446 = CIRCLE ( 'NONE', #346, 0.07999999999999998779 ) ;
#447 = CARTESIAN_POINT ( 'NONE',  ( 1.100000000000000311, 0.07999999999999998779, -0.7999999999999994893 ) ) ;
#448 = CARTESIAN_POINT ( 'NONE',  ( 1.100000000000000311, 1.719999999999999973, -0.7999999999999994893 ) ) ;
#449 = AXIS2_PLACEMENT_3D ( 'NONE', #664, #670, #515 ) ;
#450 = LINE ( 'NONE', #648, #39 ) ;
#451 = VECTOR ( 'NONE', #473, 1000.000000000000000 ) ;
#452 = VECTOR ( 'NONE', #376, 1000.000000000000000 ) ;
#453 = DIRECTION ( 'NONE',  ( -0.000000000000000000, 1.000000000000000000, 0.000000000000000000 ) ) ;
#454 = CIRCLE ( 'NONE', #844, 0.07999999999999998779 ) ;
#455 = ADVANCED_FACE ( 'NONE', ( #372 ), #793, .T. ) ;
#456 = SPHERICAL_SURFACE ( 'NONE', #759, 0.08000000000000000167 ) ;
#457 = EDGE_CURVE ( 'NONE', #616, #574, #393, .T. ) ;
#458 = FACE_OUTER_BOUND ( 'NONE', #412, .T. ) ;
#459 = CARTESIAN_POINT ( 'NONE',  ( -1.520000000000000240, 0.07999999999999998779, -0.7999999999999994893 ) ) ;
#460 = VECTOR ( 'NONE', #212, 1000.000000000000000 ) ;
#461 = LINE ( 'NONE', #981, #444 ) ;
#462 = VECTOR ( 'NONE', #292, 1000.000000000000000 ) ;
#463 = LINE ( 'NONE', #1049, #472 ) ;
#464 = CARTESIAN_POINT ( 'NONE',  ( -1.520000000000000240, 0.07999999999999998779, -0.7999999999999994893 ) ) ;
#465 = CARTESIAN_POINT ( 'NONE',  ( -1.600000000000000089, 0.07999999999999998779, 0.7200000000000003064 ) ) ;
#466 = VECTOR ( 'NONE', #199, 1000.000000000000000 ) ;
#467 = CYLINDRICAL_SURFACE ( 'NONE', #234, 0.07999999999999998779 ) ;
#468 = CARTESIAN_POINT ( 'NONE',  ( 0.000000000000000000, 0.000000000000000000, 0.000000000000000000 ) ) ;
#469 = ADVANCED_FACE ( 'NONE', ( #1214 ), #1243, .T. ) ;
#470 = VECTOR ( 'NONE', #89, 1000.000000000000000 ) ;
#471 = VECTOR ( 'NONE', #1156, 1000.000000000000000 ) ;
#472 = VECTOR ( 'NONE', #967, 1000.000000000000000 ) ;
#473 = DIRECTION ( 'NONE',  ( -0.000000000000000000, 1.000000000000000000, -0.000000000000000000 ) ) ;
#474 = CARTESIAN_POINT ( 'NONE',  ( 1.520000000000000240, 0.07999999999999998779, -0.7999999999999994893 ) ) ;
#475 = FACE_OUTER_BOUND ( 'NONE', #1058, .T. ) ;
#476 = EDGE_CURVE ( 'NONE', #1177, #1112, #407, .T. ) ;
#477 = LINE ( 'NONE', #364, #46 ) ;
#478 = FACE_OUTER_BOUND ( 'NONE', #1208, .T. ) ;
#479 = DIRECTION ( 'NONE',  ( -1.000000000000000000, -0.000000000000000000, 8.673617379884039170E-17 ) ) ;
#480 = VECTOR ( 'NONE', #221, 1000.000000000000000 ) ;
#481 = ADVANCED_FACE ( 'NONE', ( #778 ), #1272, .T. ) ;
#482 = FILL_AREA_STYLE ('',( #343 ) ) ;
#483 = LINE ( 'NONE', #37, #895 ) ;
#484 = AXIS2_PLACEMENT_3D ( 'NONE', #468, #1133, #1123 ) ;
#485 = DIRECTION ( 'NONE',  ( 0.000000000000000000, 1.000000000000000000, 0.000000000000000000 ) ) ;
#486 = CARTESIAN_POINT ( 'NONE',  ( 500000.0000000000582, 0.02666666666666666491, 0.7199999999566315534 ) ) ;
#487 = CYLINDRICAL_SURFACE ( 'NONE', #882, 0.07999999999999998779 ) ;
#488 = SPHERICAL_SURFACE ( 'NONE', #1048, 0.08000000000000000167 ) ;
#489 = DIRECTION ( 'NONE',  ( -1.000000000000000000, 0.000000000000000000, 0.000000000000000000 ) ) ;
#490 = SPHERICAL_SURFACE ( 'NONE', #58, 0.08000000000000000167 ) ;
#491 = DIRECTION ( 'NONE',  ( 1.355252715606880789E-16, 0.000000000000000000, 1.000000000000000000 ) ) ;
#492 = CARTESIAN_POINT ( 'NONE',  ( 1.520000000000000018, 1.800000000000000044, 0.8000000000000002665 ) ) ;
#493 = EDGE_CURVE ( 'NONE', #1030, #599, #1218, .T. ) ;
#494 = EDGE_CURVE ( 'NONE', #807, #174, #378, .T. ) ;
#495 = CIRCLE ( 'NONE', #736, 0.05333333333333339921 ) ;
#496 = DIRECTION ( 'NONE',  ( 0.000000000000000000, 0.000000000000000000, 1.000000000000000000 ) ) ;
#497 = FACE_OUTER_BOUND ( 'NONE', #1247, .T. ) ;
#498 = AXIS2_PLACEMENT_3D ( 'NONE', #510, #792, #1151 ) ;
#499 = FACE_OUTER_BOUND ( 'NONE', #1261, .T. ) ;
#500 = AXIS2_PLACEMENT_3D ( 'NONE', #718, #485, #70 ) ;
#501 = PLANE ( 'NONE',  #22 ) ;
#502 = DIRECTION ( 'NONE',  ( -1.000000000000000000, 0.000000000000000000, 0.000000000000000000 ) ) ;
#503 = DIRECTION ( 'NONE',  ( 0.000000000000000000, -1.000000000000000000, -0.000000000000000000 ) ) ;
#504 = EDGE_CURVE ( 'NONE', #1206, #388, #816, .T. ) ;
#505 = EDGE_CURVE ( 'NONE', #366, #435, #369, .T. ) ;
#506 = CARTESIAN_POINT ( 'NONE',  ( 500000.0000000000582, 1.773333333333333428, -0.7200000000433677272 ) ) ;
#507 = ADVANCED_FACE ( 'NONE', ( #788 ), #1222, .T. ) ;
#508 = DIRECTION ( 'NONE',  ( 1.000000000000000000, -0.000000000000000000, -1.355252715606880789E-16 ) ) ;
#509 = AXIS2_PLACEMENT_3D ( 'NONE', #629, #531, #219 ) ;
#510 = CARTESIAN_POINT ( 'NONE',  ( 1.600000000000000089, 1.800000000000000044, 0.8000000000000002665 ) ) ;
#511 = VECTOR ( 'NONE', #527, 1000.000000000000000 ) ;
#512 = MANIFOLD_SOLID_BREP ( 'Boss-Extrude2', #370 ) ;
#513 = CARTESIAN_POINT ( 'NONE',  ( 0.000000000000000000, 1.800000000000000044, 0.000000000000000000 ) ) ;
#514 = EDGE_CURVE ( 'NONE', #217, #1061, #1234, .T. ) ;
#515 = DIRECTION ( 'NONE',  ( 0.000000000000000000, 0.000000000000000000, -1.000000000000000000 ) ) ;
#516 = DIRECTION ( 'NONE',  ( 1.000000000000000000, 0.000000000000000000, 0.000000000000000000 ) ) ;
#517 = AXIS2_PLACEMENT_3D ( 'NONE', #486, #570, #594 ) ;
#518 = DIRECTION ( 'NONE',  ( 0.000000000000000000, 0.000000000000000000, 1.000000000000000000 ) ) ;
#519 = VECTOR ( 'NONE', #1178, 1000.000000000000000 ) ;
#520 = EDGE_CURVE ( 'NONE', #205, #584, #382, .T. ) ;
#521 = CARTESIAN_POINT ( 'NONE',  ( -1.600000000000000089, 0.07999999999999998779, 0.8000000000000002665 ) ) ;
#522 = DIRECTION ( 'NONE',  ( 1.000000000000000000, 0.000000000000000000, 1.355252715606880789E-16 ) ) ;
#523 = EDGE_CURVE ( 'NONE', #1056, #220, #1240, .T. ) ;
#524 = COLOUR_RGB ( '',0.7921568627450980005, 0.8196078431372548767, 0.9333333333333333481 ) ;
#525 = DIRECTION ( 'NONE',  ( 0.000000000000000000, -0.000000000000000000, 1.000000000000000000 ) ) ;
#526 = CIRCLE ( 'NONE', #1091, 0.05333333333333329512 ) ;
#527 = DIRECTION ( 'NONE',  ( -1.000000000000000000, 0.000000000000000000, 0.000000000000000000 ) ) ;
#528 = DIRECTION ( 'NONE',  ( 0.000000000000000000, 0.000000000000000000, 1.000000000000000000 ) ) ;
#529 = CARTESIAN_POINT ( 'NONE',  ( 1.520000000000000018, 1.719999999999999973, 0.7200000000000003064 ) ) ;
#530 = CYLINDRICAL_SURFACE ( 'NONE', #1075, 0.07999999999999998779 ) ;
#531 = DIRECTION ( 'NONE',  ( 0.000000000000000000, 0.000000000000000000, -1.000000000000000000 ) ) ;
#532 = CIRCLE ( 'NONE', #934, 0.07999999999999998779 ) ;
#533 = CARTESIAN_POINT ( 'NONE',  ( -1.100000000000000311, 1.719999999999999973, -0.7199999999999995293 ) ) ;
#534 = MANIFOLD_SOLID_BREP ( 'Fillet1', #1245 ) ;
#535 = LINE ( 'NONE', #940, #112 ) ;
#536 = AXIS2_PLACEMENT_3D ( 'NONE', #172, #1035, #99 ) ;
#537 = DIRECTION ( 'NONE',  ( 0.000000000000000000, 0.000000000000000000, -1.000000000000000000 ) ) ;
#538 = CIRCLE ( 'NONE', #891, 0.07999999999999998779 ) ;
#539 = ADVANCED_FACE ( 'NONE', ( #867 ), #897, .T. ) ;
#540 = EDGE_CURVE ( 'NONE', #433, #274, #20, .T. ) ;
#541 = DIRECTION ( 'NONE',  ( 0.000000000000000000, -1.000000000000000000, 0.000000000000000000 ) ) ;
#542 = CIRCLE ( 'NONE', #1079, 0.07999999999999998779 ) ;
#543 = DIRECTION ( 'NONE',  ( 0.000000000000000000, 0.000000000000000000, -1.000000000000000000 ) ) ;
#544 = CARTESIAN_POINT ( 'NONE',  ( 1.520000000000000018, 0.000000000000000000, 0.7200000000000003064 ) ) ;
#545 = FACE_OUTER_BOUND ( 'NONE', #595, .T. ) ;
#546 = UNCERTAINTY_MEASURE_WITH_UNIT (LENGTH_MEASURE( 1.000000000000000082E-05 ), #19, 'distance_accuracy_value', 'NONE');
#547 = CIRCLE ( 'NONE', #692, 0.07999999999999998779 ) ;
#548 = ADVANCED_FACE ( 'NONE', ( #43 ), #456, .T. ) ;
#549 = CARTESIAN_POINT ( 'NONE',  ( 1.520000000000000240, 1.719999999999999973, 2.059984127722459411E-16 ) ) ;
#550 = DIRECTION ( 'NONE',  ( -1.355252715606880789E-16, 0.000000000000000000, 1.000000000000000000 ) ) ;
#551 = AXIS2_PLACEMENT_3D ( 'NONE', #703, #845, #48 ) ;
#552 = FACE_OUTER_BOUND ( 'NONE', #676, .T. ) ;
#553 = CARTESIAN_POINT ( 'NONE',  ( 1.520000000000000018, 1.719999999999999973, 0.7200000000000003064 ) ) ;
#554 = CARTESIAN_POINT ( 'NONE',  ( 500000.0000000000582, 1.719999999999999973, -0.7200000000433677272 ) ) ;
#555 = VECTOR ( 'NONE', #124, 1000.000000000000000 ) ;
#556 = EDGE_CURVE ( 'NONE', #630, #804, #450, .T. ) ;
#557 = ORIENTED_EDGE ( 'NONE', *, *, #476, .T. ) ;
#558 = EDGE_LOOP ( 'NONE', ( #566, #695, #817, #589 ) ) ;
#559 = DIRECTION ( 'NONE',  ( -1.000000000000000000, 0.000000000000000000, -0.000000000000000000 ) ) ;
#560 = DIRECTION ( 'NONE',  ( 0.000000000000000000, 0.000000000000000000, -1.000000000000000000 ) ) ;
#561 = ORIENTED_EDGE ( 'NONE', *, *, #281, .T. ) ;
#562 = ADVANCED_FACE ( 'NONE', ( #24 ), #28, .T. ) ;
#563 =( GEOMETRIC_REPRESENTATION_CONTEXT ( 3 ) GLOBAL_UNCERTAINTY_ASSIGNED_CONTEXT ( ( #227 ) ) GLOBAL_UNIT_ASSIGNED_CONTEXT ( ( #869, #725, #1057 ) ) REPRESENTATION_CONTEXT ( 'NONE', 'WORKASPACE' ) );
#564 = FILL_AREA_STYLE_COLOUR ( '', #820 ) ;
#565 = ORIENTED_EDGE ( 'NONE', *, *, #1164, .T. ) ;
#566 = ORIENTED_EDGE ( 'NONE', *, *, #120, .T. ) ;
#567 = PRODUCT_CONTEXT ( 'NONE', #3, 'mechanical' ) ;
#568 = EDGE_LOOP ( 'NONE', ( #830, #171, #640 ) ) ;
#569 = PLANE ( 'NONE',  #108 ) ;
#570 = DIRECTION ( 'NONE',  ( 0.000000000000000000, 1.000000000000000000, 0.000000000000000000 ) ) ;
#571 = DIRECTION ( 'NONE',  ( -1.000000000000000000, 0.000000000000000000, 0.000000000000000000 ) ) ;
#572 = ADVANCED_FACE ( 'NONE', ( #903 ), #86, .F. ) ;
#573 = EDGE_CURVE ( 'NONE', #630, #684, #839, .T. ) ;
#574 = VERTEX_POINT ( 'NONE', #544 ) ;
#575 = EDGE_LOOP ( 'NONE', ( #1241, #1107, #1121, #1115 ) ) ;
#576 = DIRECTION ( 'NONE',  ( 1.000000000000000000, 0.000000000000000000, 1.355252715606882022E-16 ) ) ;
#577 = PLANE ( 'NONE',  #342 ) ;
#578 = EDGE_CURVE ( 'NONE', #840, #789, #477, .T. ) ;
#579 = ORIENTED_EDGE ( 'NONE', *, *, #457, .T. ) ;
#580 = CARTESIAN_POINT ( 'NONE',  ( 1.100000000000000311, 1.800000000000000044, -0.7999999999999994893 ) ) ;
#581 = VERTEX_POINT ( 'NONE', #961 ) ;
#582 = ORIENTED_EDGE ( 'NONE', *, *, #556, .T. ) ;
#583 = AXIS2_PLACEMENT_3D ( 'NONE', #1098, #1165, #409 ) ;
#584 = VERTEX_POINT ( 'NONE', #79 ) ;
#585 = DIRECTION ( 'NONE',  ( -1.000000000000000000, -0.000000000000000000, 8.673617379884039170E-17 ) ) ;
#586 = ORIENTED_EDGE ( 'NONE', *, *, #457, .F. ) ;
#587 = DIRECTION ( 'NONE',  ( 0.000000000000000000, -1.000000000000000000, 0.000000000000000000 ) ) ;
#588 = ORIENTED_EDGE ( 'NONE', *, *, #633, .F. ) ;
#589 = ORIENTED_EDGE ( 'NONE', *, *, #873, .T. ) ;
#590 = CARTESIAN_POINT ( 'NONE',  ( -1.600000000000000089, 1.719999999999999973, 0.8000000000000002665 ) ) ;
#591 = EDGE_CURVE ( 'NONE', #388, #1244, #27, .T. ) ;
#592 = EDGE_LOOP ( 'NONE', ( #625, #1242, #332, #375, #207, #384, #324, #1046 ) ) ;
#593 = DIRECTION ( 'NONE',  ( 1.000000000000000000, -0.000000000000000000, -0.000000000000000000 ) ) ;
#594 = DIRECTION ( 'NONE',  ( 0.000000000000000000, -0.000000000000000000, 1.000000000000000000 ) ) ;
#595 = EDGE_LOOP ( 'NONE', ( #800, #141, #425, #693, #620, #2, #744, #846 ) ) ;
#596 = CARTESIAN_POINT ( 'NONE',  ( -1.100000000000000311, 1.800000000000000044, -0.7999999999999994893 ) ) ;
#597 = ORIENTED_EDGE ( 'NONE', *, *, #168, .F. ) ;
#598 = AXIS2_PLACEMENT_3D ( 'NONE', #911, #101, #1002 ) ;
#599 = VERTEX_POINT ( 'NONE', #1054 ) ;
#600 = SURFACE_STYLE_USAGE ( .BOTH. , #392 ) ;
#601 = AXIS2_PLACEMENT_3D ( 'NONE', #723, #858, #1268 ) ;
#602 = ORIENTED_EDGE ( 'NONE', *, *, #803, .F. ) ;
#603 = DIRECTION ( 'NONE',  ( -1.000000000000000000, 0.000000000000000000, 0.000000000000000000 ) ) ;
#604 = CARTESIAN_POINT ( 'NONE',  ( -1.100000000000000089, 1.800000000000000044, 0.7199999999999997513 ) ) ;
#605 = CARTESIAN_POINT ( 'NONE',  ( 500000.0000000000582, 1.719999999999999529, -0.7733333333767009599 ) ) ;
#606 = EDGE_CURVE ( 'NONE', #709, #581, #442, .T. ) ;
#607 = ORIENTED_EDGE ( 'NONE', *, *, #1209, .T. ) ;
#608 = EDGE_CURVE ( 'NONE', #761, #307, #872, .T. ) ;
#609 = ORIENTED_EDGE ( 'NONE', *, *, #643, .T. ) ;
#610 = DIRECTION ( 'NONE',  ( 1.000000000000000000, -0.000000000000000000, 0.000000000000000000 ) ) ;
#611 = CARTESIAN_POINT ( 'NONE',  ( -1.100000000000000311, 0.02666666666666668573, 0.7199999999999997513 ) ) ;
#612 = CARTESIAN_POINT ( 'NONE',  ( 1.520000000000000240, 1.719999999999999973, -0.7199999999999995293 ) ) ;
#613 = ORIENTED_EDGE ( 'NONE', *, *, #1210, .F. ) ;
#614 = AXIS2_PLACEMENT_3D ( 'NONE', #636, #1212, #129 ) ;
#615 = ORIENTED_EDGE ( 'NONE', *, *, #1274, .T. ) ;
#616 = VERTEX_POINT ( 'NONE', #1069 ) ;
#617 = CARTESIAN_POINT ( 'NONE',  ( -1.520000000000000240, 1.800000000000000044, -0.7199999999999995293 ) ) ;
#618 = ORIENTED_EDGE ( 'NONE', *, *, #218, .T. ) ;
#619 = DIRECTION ( 'NONE',  ( 0.000000000000000000, -1.000000000000000000, 0.000000000000000000 ) ) ;
#620 = ORIENTED_EDGE ( 'NONE', *, *, #606, .T. ) ;
#621 = EDGE_CURVE ( 'NONE', #1250, #433, #1, .T. ) ;
#622 = EDGE_CURVE ( 'NONE', #1215, #1217, #1278, .T. ) ;
#623 = ORIENTED_EDGE ( 'NONE', *, *, #1143, .F. ) ;
#624 = DIRECTION ( 'NONE',  ( 1.000000000000000000, 0.000000000000000000, 0.000000000000000000 ) ) ;
#625 = ORIENTED_EDGE ( 'NONE', *, *, #1130, .F. ) ;
#626 = DIRECTION ( 'NONE',  ( -1.000000000000000000, 0.000000000000000000, 0.000000000000000000 ) ) ;
#627 = DIRECTION ( 'NONE',  ( 1.000000000000000000, -0.000000000000000000, 0.000000000000000000 ) ) ;
#628 = EDGE_LOOP ( 'NONE', ( #1005, #762, #772, #354 ) ) ;
#629 = CARTESIAN_POINT ( 'NONE',  ( -1.520000000000000240, 1.719999999999999973, -0.7199999999999995293 ) ) ;
#630 = VERTEX_POINT ( 'NONE', #849 ) ;
#631 = CARTESIAN_POINT ( 'NONE',  ( 1.100000000008094503, 0.07999999999999998779, -0.7199999999999997513 ) ) ;
#632 = CARTESIAN_POINT ( 'NONE',  ( -1.600000000000000089, 0.07999999999999998779, 0.7200000000000003064 ) ) ;
#633 = EDGE_CURVE ( 'NONE', #1030, #211, #32, .T. ) ;
#634 = ORIENTED_EDGE ( 'NONE', *, *, #1055, .T. ) ;
#635 = CARTESIAN_POINT ( 'NONE',  ( -1.520000000000000018, 1.719999999999999973, 0.7200000000000003064 ) ) ;
#636 = CARTESIAN_POINT ( 'NONE',  ( 0.000000000000000000, 1.719999999999999973, -0.7199999999999995293 ) ) ;
#637 = AXIS2_PLACEMENT_3D ( 'NONE', #865, #525, #624 ) ;
#638 = CARTESIAN_POINT ( 'NONE',  ( -1.520000000000000018, 1.719999999999999973, 0.7200000000000003064 ) ) ;
#639 = DIRECTION ( 'NONE',  ( -0.000000000000000000, -1.000000000000000000, -0.000000000000000000 ) ) ;
#640 = ORIENTED_EDGE ( 'NONE', *, *, #30, .F. ) ;
#641 = AXIS2_PLACEMENT_3D ( 'NONE', #1117, #1041, #347 ) ;
#642 =( NAMED_UNIT ( * ) PLANE_ANGLE_UNIT ( ) SI_UNIT ( $, .RADIAN. ) );
#643 = EDGE_CURVE ( 'NONE', #574, #997, #418, .T. ) ;
#644 = DIRECTION ( 'NONE',  ( 0.000000000000000000, -1.000000000000000000, 0.000000000000000000 ) ) ;
#645 = CARTESIAN_POINT ( 'NONE',  ( -1.520000000000000240, 0.000000000000000000, 2.059984127722459411E-16 ) ) ;
#646 = EDGE_CURVE ( 'NONE', #211, #686, #421, .T. ) ;
#647 = CARTESIAN_POINT ( 'NONE',  ( 1.600000000000000089, 1.800000000000000044, 0.7200000000000001954 ) ) ;
#648 = CARTESIAN_POINT ( 'NONE',  ( 1.600000000000000089, 1.719999999999999973, 0.8000000000000002665 ) ) ;
#649 = ADVANCED_FACE ( 'NONE', ( #883 ), #35, .T. ) ;
#650 = EDGE_CURVE ( 'NONE', #684, #616, #885, .T. ) ;
#651 = EDGE_CURVE ( 'NONE', #856, #1232, #38, .T. ) ;
#652 = CARTESIAN_POINT ( 'NONE',  ( -1.100000000000000311, 1.773333333333333428, 0.7199999999999993072 ) ) ;
#653 = AXIS2_PLACEMENT_3D ( 'NONE', #612, #140, #132 ) ;
#654 = AXIS2_PLACEMENT_3D ( 'NONE', #878, #1062, #1141 ) ;
#655 = DIRECTION ( 'NONE',  ( 1.355252715606880789E-16, -0.000000000000000000, -1.000000000000000000 ) ) ;
#656 = EDGE_CURVE ( 'NONE', #435, #176, #899, .T. ) ;
#657 = CARTESIAN_POINT ( 'NONE',  ( 1.100000000121781341, 1.719999999999999529, -0.7733333333333329840 ) ) ;
#658 = CARTESIAN_POINT ( 'NONE',  ( -1.520000000000000240, 1.800000000000000044, -0.7999999999999994893 ) ) ;
#659 = DIRECTION ( 'NONE',  ( 0.000000000000000000, -1.000000000000000000, 0.000000000000000000 ) ) ;
#660 = CARTESIAN_POINT ( 'NONE',  ( -1.100000000000000089, 0.000000000000000000, 0.7199999999999997513 ) ) ;
#661 = CARTESIAN_POINT ( 'NONE',  ( -1.520000000000000240, 0.000000000000000000, -0.7199999999999995293 ) ) ;
#662 = CARTESIAN_POINT ( 'NONE',  ( -1.600000000000000311, 1.719999999999999973, -0.7999999999999994893 ) ) ;
#663 = EDGE_CURVE ( 'NONE', #196, #1215, #888, .T. ) ;
#664 = CARTESIAN_POINT ( 'NONE',  ( -1.100000000000000311, 0.07999999999999998779, 0.7200000000000003064 ) ) ;
#665 = CARTESIAN_POINT ( 'NONE',  ( 1.520000000000000240, 0.000000000000000000, -0.7199999999999995293 ) ) ;
#666 = EDGE_CURVE ( 'NONE', #1135, #1206, #52, .T. ) ;
#667 = DIRECTION ( 'NONE',  ( 0.000000000000000000, 0.000000000000000000, 1.000000000000000000 ) ) ;
#668 = DIRECTION ( 'NONE',  ( 0.000000000000000000, 0.000000000000000000, -1.000000000000000000 ) ) ;
#669 = AXIS2_PLACEMENT_3D ( 'NONE', #1202, #619, #537 ) ;
#670 = DIRECTION ( 'NONE',  ( 1.000000000000000000, 0.000000000000000000, -8.673617379884036705E-17 ) ) ;
#671 = PLANE ( 'NONE',  #517 ) ;
#672 = EDGE_LOOP ( 'NONE', ( #4, #278, #276, #423 ) ) ;
#673 = SURFACE_STYLE_FILL_AREA ( #894 ) ;
#674 = CARTESIAN_POINT ( 'NONE',  ( 0.000000000000000000, 1.800000000000000044, 0.000000000000000000 ) ) ;
#675 = ADVANCED_FACE ( 'NONE', ( #874 ), #487, .T. ) ;
#676 = EDGE_LOOP ( 'NONE', ( #1032, #1270, #182, #1173 ) ) ;
#677 = ORIENTED_EDGE ( 'NONE', *, *, #120, .F. ) ;
#678 = ORIENTED_EDGE ( 'NONE', *, *, #229, .T. ) ;
#679 = CARTESIAN_POINT ( 'NONE',  ( 1.100000000008094503, 1.719999999999999973, -0.7199999999999997513 ) ) ;
#680 = DIRECTION ( 'NONE',  ( 1.000000000000000000, 0.000000000000000000, -8.673617379884036705E-17 ) ) ;
#681 = EDGE_CURVE ( 'NONE', #581, #599, #890, .T. ) ;
#682 = EDGE_LOOP ( 'NONE', ( #1184, #618, #1266, #781 ) ) ;
#683 = DIRECTION ( 'NONE',  ( 1.000000000000000000, 0.000000000000000000, 1.355252715606880789E-16 ) ) ;
#684 = VERTEX_POINT ( 'NONE', #898 ) ;
#685 = AXIS2_PLACEMENT_3D ( 'NONE', #146, #719, #348 ) ;
#686 = VERTEX_POINT ( 'NONE', #984 ) ;
#687 = ORIENTED_EDGE ( 'NONE', *, *, #591, .F. ) ;
#688 = CARTESIAN_POINT ( 'NONE',  ( 1.520000000000000240, 0.000000000000000000, 2.059984127722459411E-16 ) ) ;
#689 = CARTESIAN_POINT ( 'NONE',  ( 1.520000000000000240, 0.07999999999999998779, -0.7999999999999994893 ) ) ;
#690 = ORIENTED_EDGE ( 'NONE', *, *, #663, .F. ) ;
#691 = ORIENTED_EDGE ( 'NONE', *, *, #1157, .T. ) ;
#692 = AXIS2_PLACEMENT_3D ( 'NONE', #1191, #522, #42 ) ;
#693 = ORIENTED_EDGE ( 'NONE', *, *, #1161, .F. ) ;
#694 = DIRECTION ( 'NONE',  ( 0.000000000000000000, 1.000000000000000000, 0.000000000000000000 ) ) ;
#695 = ORIENTED_EDGE ( 'NONE', *, *, #1037, .T. ) ;
#696 = CARTESIAN_POINT ( 'NONE',  ( 1.100000000000000311, 1.800000000000000044, -0.7999999999999994893 ) ) ;
#697 = CARTESIAN_POINT ( 'NONE',  ( 1.100000000000000311, 1.719999999999999973, -0.7999999999999994893 ) ) ;
#698 = DIRECTION ( 'NONE',  ( -1.000000000000000000, 0.000000000000000000, 0.000000000000000000 ) ) ;
#699 = AXIS2_PLACEMENT_3D ( 'NONE', #887, #396, #386 ) ;
#700 = AXIS2_PLACEMENT_3D ( 'NONE', #338, #571, #269 ) ;
#701 = ORIENTED_EDGE ( 'NONE', *, *, #573, .T. ) ;
#702 = UNCERTAINTY_MEASURE_WITH_UNIT (LENGTH_MEASURE( 1.000000000000000082E-05 ), #875, 'distance_accuracy_value', 'NONE');
#703 = CARTESIAN_POINT ( 'NONE',  ( 500000.0000000000582, 1.773333333333333428, -0.7200000000433677272 ) ) ;
#704 = ORIENTED_EDGE ( 'NONE', *, *, #606, .F. ) ;
#705 = DIRECTION ( 'NONE',  ( -1.000000000000000000, 0.000000000000000000, 8.673617379884039170E-17 ) ) ;
#706 = DIRECTION ( 'NONE',  ( 1.000000000000000000, -0.000000000000000000, -0.000000000000000000 ) ) ;
#707 = EDGE_LOOP ( 'NONE', ( #341, #708, #776, #557 ) ) ;
#708 = ORIENTED_EDGE ( 'NONE', *, *, #681, .T. ) ;
#709 = VERTEX_POINT ( 'NONE', #1084 ) ;
#710 = PRESENTATION_STYLE_ASSIGNMENT (( #600 ) ) ;
#711 = CARTESIAN_POINT ( 'NONE',  ( -1.100000000000000089, 1.719999999999999973, 0.8000000000000002665 ) ) ;
#712 = CIRCLE ( 'NONE', #909, 0.07999999999999998779 ) ;
#713 = CARTESIAN_POINT ( 'NONE',  ( -1.600000000000000311, 1.800000000000000044, -0.7999999999999994893 ) ) ;
#714 = CARTESIAN_POINT ( 'NONE',  ( 0.000000000000000000, 0.000000000000000000, 0.7200000000000003064 ) ) ;
#715 = ADVANCED_FACE ( 'NONE', ( #436 ), #1182, .T. ) ;
#716 = FACE_OUTER_BOUND ( 'NONE', #175, .T. ) ;
#717 = CYLINDRICAL_SURFACE ( 'NONE', #614, 0.07999999999999998779 ) ;
#718 = CARTESIAN_POINT ( 'NONE',  ( 0.000000000000000000, 0.000000000000000000, 0.000000000000000000 ) ) ;
#719 = DIRECTION ( 'NONE',  ( 1.000000000000000000, -0.000000000000000000, -1.355252715606880789E-16 ) ) ;
#720 = EDGE_CURVE ( 'NONE', #401, #1215, #454, .T. ) ;
#721 = FACE_OUTER_BOUND ( 'NONE', #733, .T. ) ;
#722 = DIRECTION ( 'NONE',  ( -1.000000000000000000, -0.000000000000000000, 8.673617379884039170E-17 ) ) ;
#723 = CARTESIAN_POINT ( 'NONE',  ( -1.520000000000000018, 0.08000000000000000167, 0.7200000000000003064 ) ) ;
#724 = EDGE_CURVE ( 'NONE', #256, #1018, #483, .T. ) ;
#725 =( NAMED_UNIT ( * ) PLANE_ANGLE_UNIT ( ) SI_UNIT ( $, .RADIAN. ) );
#726 = LINE ( 'NONE', #1110, #750 ) ;
#727 = CIRCLE ( 'NONE', #509, 0.07999999999999998779 ) ;
#728 = DIRECTION ( 'NONE',  ( -0.000000000000000000, 1.000000000000000000, -0.000000000000000000 ) ) ;
#729 = ORIENTED_EDGE ( 'NONE', *, *, #312, .F. ) ;
#730 = CARTESIAN_POINT ( 'NONE',  ( 1.100000000008094503, 1.719999999999999973, 0.7733333333333333171 ) ) ;
#731 = PRESENTATION_LAYER_ASSIGNMENT (  '', '', ( #948 ) ) ;
#732 = VECTOR ( 'NONE', #453, 1000.000000000000000 ) ;
#733 = EDGE_LOOP ( 'NONE', ( #284, #268, #602, #847 ) ) ;
#734 = DIRECTION ( 'NONE',  ( 0.000000000000000000, 0.000000000000000000, -1.000000000000000000 ) ) ;
#735 =( LENGTH_UNIT ( ) NAMED_UNIT ( * ) SI_UNIT ( .MILLI., .METRE. ) );
#736 = AXIS2_PLACEMENT_3D ( 'NONE', #679, #796, #921 ) ;
#737 = LINE ( 'NONE', #1249, #732 ) ;
#738 = ORIENTED_EDGE ( 'NONE', *, *, #853, .F. ) ;
#739 = VECTOR ( 'NONE', #334, 1000.000000000000000 ) ;
#740 = EDGE_LOOP ( 'NONE', ( #327, #317, #1170, #202 ) ) ;
#741 = ADVANCED_FACE ( 'NONE', ( #55 ), #413, .T. ) ;
#742 = FACE_OUTER_BOUND ( 'NONE', #157, .T. ) ;
#743 = CARTESIAN_POINT ( 'NONE',  ( -1.100000000000000311, 1.800000000000000044, -0.7999999999999994893 ) ) ;
#744 = ORIENTED_EDGE ( 'NONE', *, *, #932, .T. ) ;
#745 = DIRECTION ( 'NONE',  ( 1.000000000000000000, 0.000000000000000000, 0.000000000000000000 ) ) ;
#746 = ORIENTED_EDGE ( 'NONE', *, *, #75, .T. ) ;
#747 = CARTESIAN_POINT ( 'NONE',  ( 1.600000000000000311, 1.800000000000000044, -0.7199999999999995293 ) ) ;
#748 = CYLINDRICAL_SURFACE ( 'NONE', #91, 0.07999999999999998779 ) ;
#749 = ORIENTED_EDGE ( 'NONE', *, *, #520, .F. ) ;
#750 = VECTOR ( 'NONE', #694, 1000.000000000000000 ) ;
#751 = CLOSED_SHELL ( 'NONE', ( #431, #69, #1142, #1047, #715, #866, #481, #756, #562, #649, #232, #163, #912, #240, #675, #548, #963, #1078 ) ) ;
#752 = LINE ( 'NONE', #1200, #1153 ) ;
#753 = PLANE ( 'NONE',  #500 ) ;
#754 = VERTEX_POINT ( 'NONE', #660 ) ;
#755 = DIRECTION ( 'NONE',  ( -1.000000000000000000, 0.000000000000000000, 0.000000000000000000 ) ) ;
#756 = ADVANCED_FACE ( 'NONE', ( #64 ), #467, .T. ) ;
#757 = LINE ( 'NONE', #1059, #314 ) ;
#758 = ORIENTED_EDGE ( 'NONE', *, *, #1227, .T. ) ;
#759 = AXIS2_PLACEMENT_3D ( 'NONE', #1113, #186, #93 ) ;
#760 = CARTESIAN_POINT ( 'NONE',  ( 1.100000000000000089, 1.800000000000000044, 0.8000000000000002665 ) ) ;
#761 = VERTEX_POINT ( 'NONE', #385 ) ;
#762 = ORIENTED_EDGE ( 'NONE', *, *, #255, .T. ) ;
#763 = VECTOR ( 'NONE', #1128, 1000.000000000000000 ) ;
#764 = CARTESIAN_POINT ( 'NONE',  ( 1.600000000000000089, 1.719999999999999973, 0.7200000000000003064 ) ) ;
#765 = VERTEX_POINT ( 'NONE', #333 ) ;
#766 = DIRECTION ( 'NONE',  ( 0.000000000000000000, 0.000000000000000000, -1.000000000000000000 ) ) ;
#767 = LINE ( 'NONE', #645, #1196 ) ;
#768 = ORIENTED_EDGE ( 'NONE', *, *, #1055, .F. ) ;
#769 = CARTESIAN_POINT ( 'NONE',  ( 1.600000000000000311, 1.800000000000000044, -0.7199999999999995293 ) ) ;
#770 = EDGE_CURVE ( 'NONE', #379, #377, #34, .T. ) ;
#771 = VECTOR ( 'NONE', #541, 1000.000000000000000 ) ;
#772 = ORIENTED_EDGE ( 'NONE', *, *, #523, .T. ) ;
#773 = EDGE_LOOP ( 'NONE', ( #749, #1199, #1253, #1265 ) ) ;
#774 = LINE ( 'NONE', #410, #416 ) ;
#775 = CARTESIAN_POINT ( 'NONE',  ( -1.520000000000000018, 1.719999999999999973, 0.8000000000000002665 ) ) ;
#776 = ORIENTED_EDGE ( 'NONE', *, *, #359, .T. ) ;
#777 = CARTESIAN_POINT ( 'NONE',  ( -1.520000000000000240, 1.719999999999999973, -0.7999999999999994893 ) ) ;
#778 = FACE_OUTER_BOUND ( 'NONE', #815, .T. ) ;
#779 = EDGE_LOOP ( 'NONE', ( #691, #306, #597, #271 ) ) ;
#780 = CYLINDRICAL_SURFACE ( 'NONE', #5, 0.07999999999999998779 ) ;
#781 = ORIENTED_EDGE ( 'NONE', *, *, #651, .F. ) ;
#782 = PRESENTATION_STYLE_ASSIGNMENT (( #1090 ) ) ;
#783 = EDGE_LOOP ( 'NONE', ( #1124, #758, #426, #1160 ) ) ;
#784 = STYLED_ITEM ( 'NONE', ( #862 ), #122 ) ;
#785 = EDGE_LOOP ( 'NONE', ( #561, #1028, #282, #677 ) ) ;
#786 = DIRECTION ( 'NONE',  ( 0.000000000000000000, -1.000000000000000000, 0.000000000000000000 ) ) ;
#787 = EDGE_CURVE ( 'NONE', #1213, #754, #29, .T. ) ;
#788 = FACE_OUTER_BOUND ( 'NONE', #568, .T. ) ;
#789 = VERTEX_POINT ( 'NONE', #7 ) ;
#790 = DIRECTION ( 'NONE',  ( 1.000000000000000000, -0.000000000000000000, -1.355252715606880789E-16 ) ) ;
#791 = ORIENTED_EDGE ( 'NONE', *, *, #514, .T. ) ;
#792 = DIRECTION ( 'NONE',  ( 0.000000000000000000, 0.000000000000000000, -1.000000000000000000 ) ) ;
#793 = CYLINDRICAL_SURFACE ( 'NONE', #1264, 0.07999999999999998779 ) ;
#794 = VERTEX_POINT ( 'NONE', #243 ) ;
#795 = AXIS2_PLACEMENT_3D ( 'NONE', #1118, #136, #443 ) ;
#796 = DIRECTION ( 'NONE',  ( 1.000000000000000000, 0.000000000000000000, 1.355252715606880789E-16 ) ) ;
#797 = EDGE_LOOP ( 'NONE', ( #156, #9, #164, #588 ) ) ;
#798 = DIRECTION ( 'NONE',  ( 1.000000000000000000, 0.000000000000000000, -0.000000000000000000 ) ) ;
#799 = FILL_AREA_STYLE_COLOUR ( '', #814 ) ;
#800 = ORIENTED_EDGE ( 'NONE', *, *, #1164, .F. ) ;
#801 = ORIENTED_EDGE ( 'NONE', *, *, #520, .T. ) ;
#802 = CARTESIAN_POINT ( 'NONE',  ( -1.100000000000000089, 1.719999999999999973, 0.7200000000000003064 ) ) ;
#803 = EDGE_CURVE ( 'NONE', #992, #366, #884, .T. ) ;
#804 = VERTEX_POINT ( 'NONE', #83 ) ;
#805 = VECTOR ( 'NONE', #706, 1000.000000000000000 ) ;
#806 = ORIENTED_EDGE ( 'NONE', *, *, #98, .F. ) ;
#807 = VERTEX_POINT ( 'NONE', #764 ) ;
#808 = EDGE_CURVE ( 'NONE', #1206, #1177, #47, .T. ) ;
#809 = VECTOR ( 'NONE', #585, 1000.000000000000000 ) ;
#810 = CARTESIAN_POINT ( 'NONE',  ( -1.520000000000000018, 0.08000000000000000167, 0.7200000000000003064 ) ) ;
#811 = EDGE_LOOP ( 'NONE', ( #169, #833, #1011, #1163 ) ) ;
#812 = CARTESIAN_POINT ( 'NONE',  ( -1.520000000000000018, 1.719999999999999973, 0.7200000000000003064 ) ) ;
#813 = CARTESIAN_POINT ( 'NONE',  ( -1.520000000000000240, 0.08000000000000000167, -0.7199999999999995293 ) ) ;
#814 = COLOUR_RGB ( '',0.4862745098039215619, 0.2352941176470588203, 0.01568627450980392135 ) ;
#815 = EDGE_LOOP ( 'NONE', ( #1125, #582, #1273, #1235 ) ) ;
#816 = CIRCLE ( 'NONE', #962, 0.07999999999999998779 ) ;
#817 = ORIENTED_EDGE ( 'NONE', *, *, #405, .F. ) ;
#818 = DIRECTION ( 'NONE',  ( 0.000000000000000000, 0.000000000000000000, 1.000000000000000000 ) ) ;
#819 = AXIS2_PLACEMENT_3D ( 'NONE', #420, #23, #603 ) ;
#820 = COLOUR_RGB ( '',0.7921568627450980005, 0.8196078431372548767, 0.9333333333333333481 ) ;
#821 = ORIENTED_EDGE ( 'NONE', *, *, #255, .F. ) ;
#822 = PRESENTATION_STYLE_ASSIGNMENT (( #889 ) ) ;
#823 = CARTESIAN_POINT ( 'NONE',  ( 1.600000000000000089, 0.07999999999999998779, 0.8000000000000002665 ) ) ;
#824 = ORIENTED_EDGE ( 'NONE', *, *, #359, .F. ) ;
#825 = DIRECTION ( 'NONE',  ( 0.000000000000000000, 1.000000000000000000, 0.000000000000000000 ) ) ;
#826 = PRODUCT ( '3.21.61.80.5', '3.21.61.80.5', '', ( #567 ) ) ;
#827 = LINE ( 'NONE', #506, #809 ) ;
#828 = ORIENTED_EDGE ( 'NONE', *, *, #1230, .T. ) ;
#829 = ORIENTED_EDGE ( 'NONE', *, *, #1130, .T. ) ;
#830 = ORIENTED_EDGE ( 'NONE', *, *, #942, .T. ) ;
#831 = EDGE_CURVE ( 'NONE', #220, #1250, #461, .T. ) ;
#832 = CIRCLE ( 'NONE', #926, 0.07999999999999998779 ) ;
#833 = ORIENTED_EDGE ( 'NONE', *, *, #87, .F. ) ;
#834 = PRESENTATION_LAYER_ASSIGNMENT (  '', '', ( #1102 ) ) ;
#835 = VECTOR ( 'NONE', #273, 1000.000000000000000 ) ;
#836 = ORIENTED_EDGE ( 'NONE', *, *, #328, .F. ) ;
#837 = DIRECTION ( 'NONE',  ( 1.000000000000000000, 0.000000000000000000, 0.000000000000000000 ) ) ;
#838 = DIRECTION ( 'NONE',  ( 1.000000000000000000, 0.000000000000000000, 1.355252715606880789E-16 ) ) ;
#839 = LINE ( 'NONE', #760, #440 ) ;
#840 = VERTEX_POINT ( 'NONE', #96 ) ;
#841 =( GEOMETRIC_REPRESENTATION_CONTEXT ( 3 ) GLOBAL_UNCERTAINTY_ASSIGNED_CONTEXT ( ( #308 ) ) GLOBAL_UNIT_ASSIGNED_CONTEXT ( ( #44, #1204, #61 ) ) REPRESENTATION_CONTEXT ( 'NONE', 'WORKASPACE' ) );
#842 = VECTOR ( 'NONE', #655, 1000.000000000000000 ) ;
#843 = ORIENTED_EDGE ( 'NONE', *, *, #608, .T. ) ;
#844 = AXIS2_PLACEMENT_3D ( 'NONE', #275, #508, #283 ) ;
#845 = DIRECTION ( 'NONE',  ( 0.000000000000000000, -1.000000000000000000, 0.000000000000000000 ) ) ;
#846 = ORIENTED_EDGE ( 'NONE', *, *, #75, .F. ) ;
#847 = ORIENTED_EDGE ( 'NONE', *, *, #12, .F. ) ;
#848 = DIRECTION ( 'NONE',  ( 0.000000000000000000, 1.000000000000000000, 0.000000000000000000 ) ) ;
#849 = CARTESIAN_POINT ( 'NONE',  ( 1.100000000000000089, 1.719999999999999973, 0.8000000000000002665 ) ) ;
#850 = ORIENTED_EDGE ( 'NONE', *, *, #1254, .F. ) ;
#851 = APPLICATION_CONTEXT ( 'automotive_design' ) ;
#852 = ADVANCED_FACE ( 'NONE', ( #458 ), #569, .F. ) ;
#853 = EDGE_CURVE ( 'NONE', #992, #307, #45, .T. ) ;
#854 = DIRECTION ( 'NONE',  ( 0.000000000000000000, 0.000000000000000000, -1.000000000000000000 ) ) ;
#855 = DIRECTION ( 'NONE',  ( -1.000000000000000000, -0.000000000000000000, 8.673617379884039170E-17 ) ) ;
#856 = VERTEX_POINT ( 'NONE', #657 ) ;
#857 = CARTESIAN_POINT ( 'NONE',  ( -1.600000000000000089, 1.719999999999999973, 0.7200000000000003064 ) ) ;
#858 = DIRECTION ( 'NONE',  ( -1.000000000000000000, 0.000000000000000000, 0.000000000000000000 ) ) ;
#859 = AXIS2_PLACEMENT_3D ( 'NONE', #996, #231, #33 ) ;
#860 = ORIENTED_EDGE ( 'NONE', *, *, #94, .T. ) ;
#861 = DIRECTION ( 'NONE',  ( 0.000000000000000000, 0.000000000000000000, 1.000000000000000000 ) ) ;
#862 = PRESENTATION_STYLE_ASSIGNMENT (( #166 ) ) ;
#863 = AXIS2_PLACEMENT_3D ( 'NONE', #1065, #1144, #994 ) ;
#864 = EDGE_LOOP ( 'NONE', ( #1116, #836, #383, #821 ) ) ;
#865 = CARTESIAN_POINT ( 'NONE',  ( 1.520000000000000240, 0.08000000000000000167, -0.7199999999999995293 ) ) ;
#866 = ADVANCED_FACE ( 'NONE', ( #49 ), #753, .F. ) ;
#867 = FACE_OUTER_BOUND ( 'NONE', #419, .T. ) ;
#868 = CYLINDRICAL_SURFACE ( 'NONE', #1136, 0.07999999999999998779 ) ;
#869 =( LENGTH_UNIT ( ) NAMED_UNIT ( * ) SI_UNIT ( .MILLI., .METRE. ) );
#870 = SURFACE_SIDE_STYLE ('',( #1257 ) ) ;
#871 = LINE ( 'NONE', #688, #26 ) ;
#872 = CIRCLE ( 'NONE', #601, 0.07999999999999998779 ) ;
#873 = EDGE_CURVE ( 'NONE', #754, #761, #63, .T. ) ;
#874 = FACE_OUTER_BOUND ( 'NONE', #1114, .T. ) ;
#875 =( LENGTH_UNIT ( ) NAMED_UNIT ( * ) SI_UNIT ( .MILLI., .METRE. ) );
#876 = CARTESIAN_POINT ( 'NONE',  ( 0.000000000000000000, 0.000000000000000000, 0.7200000000000003064 ) ) ;
#877 = DIRECTION ( 'NONE',  ( 0.000000000000000000, 0.000000000000000000, 1.000000000000000000 ) ) ;
#878 = CARTESIAN_POINT ( 'NONE',  ( 1.520000000000000018, 0.08000000000000000167, 0.7200000000000003064 ) ) ;
#879 = ADVANCED_FACE ( 'NONE', ( #886 ), #40, .T. ) ;
#880 = VECTOR ( 'NONE', #489, 1000.000000000000000 ) ;
#881 = VECTOR ( 'NONE', #17, 1000.000000000000000 ) ;
#882 = AXIS2_PLACEMENT_3D ( 'NONE', #998, #204, #924 ) ;
#883 = FACE_OUTER_BOUND ( 'NONE', #1219, .T. ) ;
#884 = CIRCLE ( 'NONE', #918, 0.07999999999999998779 ) ;
#885 = CIRCLE ( 'NONE', #92, 0.07999999999999998779 ) ;
#886 = FACE_OUTER_BOUND ( 'NONE', #785, .T. ) ;
#887 = CARTESIAN_POINT ( 'NONE',  ( 1.520000000000000240, 1.719999999999999973, -0.7199999999999995293 ) ) ;
#888 = LINE ( 'NONE', #596, #462 ) ;
#889 = SURFACE_STYLE_USAGE ( .BOTH. , #870 ) ;
#890 = LINE ( 'NONE', #769, #881 ) ;
#891 = AXIS2_PLACEMENT_3D ( 'NONE', #812, #1095, #1089 ) ;
#892 = VECTOR ( 'NONE', #974, 1000.000000000000000 ) ;
#893 = VECTOR ( 'NONE', #31, 1000.000000000000000 ) ;
#894 = FILL_AREA_STYLE ('',( #920 ) ) ;
#895 = VECTOR ( 'NONE', #400, 1000.000000000000000 ) ;
#896 = CARTESIAN_POINT ( 'NONE',  ( -1.100000000000000311, 1.773333333333333428, -0.7199999999999995293 ) ) ;
#897 = CYLINDRICAL_SURFACE ( 'NONE', #1239, 0.05333333333333329512 ) ;
#898 = CARTESIAN_POINT ( 'NONE',  ( 1.100000000000000089, 0.07999999999999998779, 0.8000000000000002665 ) ) ;
#899 = CIRCLE ( 'NONE', #371, 0.07999999999999998779 ) ;
#900 = FACE_OUTER_BOUND ( 'NONE', #592, .T. ) ;
#901 = ADVANCED_FACE ( 'NONE', ( #18 ), #501, .F. ) ;
#902 = LINE ( 'NONE', #935, #893 ) ;
#903 = FACE_OUTER_BOUND ( 'NONE', #558, .T. ) ;
#904 = SPHERICAL_SURFACE ( 'NONE', #583, 0.08000000000000000167 ) ;
#905 = PLANE ( 'NONE',  #80 ) ;
#906 = CARTESIAN_POINT ( 'NONE',  ( -1.600000000000000311, 0.07999999999999998779, -0.7199999999999995293 ) ) ;
#907 = EDGE_CURVE ( 'NONE', #377, #840, #21, .T. ) ;
#908 = CARTESIAN_POINT ( 'NONE',  ( 1.100000000000000089, 0.07999999999999998779, 0.7200000000000003064 ) ) ;
#909 = AXIS2_PLACEMENT_3D ( 'NONE', #1085, #286, #668 ) ;
#910 = VECTOR ( 'NONE', #150, 1000.000000000000000 ) ;
#911 = CARTESIAN_POINT ( 'NONE',  ( 1.100000000000000311, 0.07999999999999998779, -0.7199999999999995293 ) ) ;
#912 = ADVANCED_FACE ( 'NONE', ( #439 ), #868, .T. ) ;
#913 = PRODUCT_RELATED_PRODUCT_CATEGORY ( 'part', '', ( #826 ) ) ;
#914 = LINE ( 'NONE', #1088, #466 ) ;
#915 = AXIS2_PLACEMENT_3D ( 'NONE', #1097, #244, #59 ) ;
#916 = DIRECTION ( 'NONE',  ( 1.000000000000000000, 0.000000000000000000, 0.000000000000000000 ) ) ;
#917 = DIRECTION ( 'NONE',  ( 0.000000000000000000, 0.000000000000000000, 1.000000000000000000 ) ) ;
#918 = AXIS2_PLACEMENT_3D ( 'NONE', #635, #235, #248 ) ;
#919 = DIRECTION ( 'NONE',  ( -1.000000000000000000, 0.000000000000000000, 0.000000000000000000 ) ) ;
#920 = FILL_AREA_STYLE_COLOUR ( '', #277 ) ;
#921 = DIRECTION ( 'NONE',  ( 0.000000000000000000, 0.000000000000000000, -1.000000000000000000 ) ) ;
#922 = DIRECTION ( 'NONE',  ( -1.000000000000000000, 0.000000000000000000, 1.355252715606882022E-16 ) ) ;
#923 = FILL_AREA_STYLE ('',( #799 ) ) ;
#924 = DIRECTION ( 'NONE',  ( 0.000000000000000000, 0.000000000000000000, 1.000000000000000000 ) ) ;
#925 =( GEOMETRIC_REPRESENTATION_CONTEXT ( 3 ) GLOBAL_UNCERTAINTY_ASSIGNED_CONTEXT ( ( #702 ) ) GLOBAL_UNIT_ASSIGNED_CONTEXT ( ( #875, #642, #241 ) ) REPRESENTATION_CONTEXT ( 'NONE', 'WORKASPACE' ) );
#926 = AXIS2_PLACEMENT_3D ( 'NONE', #223, #1082, #148 ) ;
#927 = VECTOR ( 'NONE', #593, 1000.000000000000000 ) ;
#928 = DIRECTION ( 'NONE',  ( 0.000000000000000000, 0.000000000000000000, 1.000000000000000000 ) ) ;
#929 = CARTESIAN_POINT ( 'NONE',  ( -1.100000000000000311, 0.07999999999999998779, -0.7199999999999995293 ) ) ;
#930 = DIRECTION ( 'NONE',  ( -1.000000000000000000, 0.000000000000000000, -1.355252715606880789E-16 ) ) ;
#931 = CIRCLE ( 'NONE', #449, 0.05333333333333329512 ) ;
#932 = EDGE_CURVE ( 'NONE', #1112, #1135, #463, .T. ) ;
#933 = DIRECTION ( 'NONE',  ( 1.000000000000000000, 0.000000000000000000, 1.355252715606880789E-16 ) ) ;
#934 = AXIS2_PLACEMENT_3D ( 'NONE', #638, #960, #1132 ) ;
#935 = CARTESIAN_POINT ( 'NONE',  ( -1.520000000000000018, 1.800000000000000044, 0.8000000000000002665 ) ) ;
#936 = CARTESIAN_POINT ( 'NONE',  ( 500000.0000000000582, 0.07999999999999998779, 0.7199999999566321085 ) ) ;
#937 = ADVANCED_FACE ( 'NONE', ( #900 ), #971, .F. ) ;
#938 = CARTESIAN_POINT ( 'NONE',  ( -1.520000000000000018, 0.07999999999999998779, 0.7200000000000003064 ) ) ;
#939 = AXIS2_PLACEMENT_3D ( 'NONE', #325, #1034, #230 ) ;
#940 = CARTESIAN_POINT ( 'NONE',  ( -1.100000000000000311, 1.800000000000000044, -0.7999999999999994893 ) ) ;
#941 = EDGE_CURVE ( 'NONE', #307, #1213, #441, .T. ) ;
#942 = EDGE_CURVE ( 'NONE', #1217, #339, #446, .T. ) ;
#943 = DIRECTION ( 'NONE',  ( -1.000000000000000000, 0.000000000000000000, 0.000000000000000000 ) ) ;
#944 = ADVANCED_FACE ( 'NONE', ( #475 ), #488, .T. ) ;
#945 = EDGE_CURVE ( 'NONE', #804, #997, #914, .T. ) ;
#946 = CARTESIAN_POINT ( 'NONE',  ( 1.100000000000000311, 1.800000000000000044, -0.7999999999999994893 ) ) ;
#947 = DIRECTION ( 'NONE',  ( -1.000000000000000000, -0.000000000000000000, 8.673617379884039170E-17 ) ) ;
#948 = STYLED_ITEM ( 'NONE', ( #822 ), #534 ) ;
#949 = CARTESIAN_POINT ( 'NONE',  ( -1.600000000000000089, 1.800000000000000044, 0.8000000000000002665 ) ) ;
#950 = CIRCLE ( 'NONE', #939, 0.07999999999999998779 ) ;
#951 = DIRECTION ( 'NONE',  ( -1.000000000000000000, -0.000000000000000000, -0.000000000000000000 ) ) ;
#952 = CARTESIAN_POINT ( 'NONE',  ( 0.000000000000000000, 0.000000000000000000, -0.7199999999999995293 ) ) ;
#953 = MECHANICAL_DESIGN_GEOMETRIC_PRESENTATION_REPRESENTATION (  '', ( #784 ), #925 ) ;
#954 = CARTESIAN_POINT ( 'NONE',  ( 0.000000000000000000, 0.000000000000000000, 0.000000000000000000 ) ) ;
#955 = EDGE_CURVE ( 'NONE', #198, #366, #902, .T. ) ;
#957 = DIRECTION ( 'NONE',  ( 1.355252715606880789E-16, 0.000000000000000000, -1.000000000000000000 ) ) ;
#956 = CIRCLE ( 'NONE', #965, 0.05333333333333339921 ) ;
#958 = PLANE ( 'NONE',  #155 ) ;
#959 = FACE_OUTER_BOUND ( 'NONE', #779, .T. ) ;
#960 = DIRECTION ( 'NONE',  ( 0.000000000000000000, 1.000000000000000000, -0.000000000000000000 ) ) ;
#961 = CARTESIAN_POINT ( 'NONE',  ( 1.100000000000000311, 1.800000000000000044, -0.7199999999999995293 ) ) ;
#962 = AXIS2_PLACEMENT_3D ( 'NONE', #289, #1016, #118 ) ;
#963 = ADVANCED_FACE ( 'NONE', ( #478 ), #904, .T. ) ;
#964 = VECTOR ( 'NONE', #1267, 1000.000000000000000 ) ;
#965 = AXIS2_PLACEMENT_3D ( 'NONE', #533, #680, #543 ) ;
#967 = DIRECTION ( 'NONE',  ( 0.000000000000000000, -1.000000000000000000, -0.000000000000000000 ) ) ;
#966 = CYLINDRICAL_SURFACE ( 'NONE', #173, 0.07999999999999998779 ) ;
#968 = CARTESIAN_POINT ( 'NONE',  ( 1.520000000000000018, 1.719999999999999973, 0.7200000000000003064 ) ) ;
#969 =( NAMED_UNIT ( * ) PLANE_ANGLE_UNIT ( ) SI_UNIT ( $, .RADIAN. ) );
#971 = PLANE ( 'NONE',  #863 ) ;
#970 = LINE ( 'NONE', #647, #964 ) ;
#972 = DIRECTION ( 'NONE',  ( 1.000000000000000000, 0.000000000000000000, 0.000000000000000000 ) ) ;
#973 = LINE ( 'NONE', #1122, #121 ) ;
#974 = DIRECTION ( 'NONE',  ( -1.000000000000000000, -0.000000000000000000, -0.000000000000000000 ) ) ;
#975 = AXIS2_PLACEMENT_3D ( 'NONE', #968, #266, #1077 ) ;
#976 = CYLINDRICAL_SURFACE ( 'NONE', #669, 0.07999999999999998779 ) ;
#977 =( NAMED_UNIT ( * ) SI_UNIT ( $, .STERADIAN. ) SOLID_ANGLE_UNIT ( ) );
#978 = CIRCLE ( 'NONE', #246, 0.05333333333333329512 ) ;
#979 = EDGE_CURVE ( 'NONE', #1061, #256, #57, .T. ) ;
#981 = CARTESIAN_POINT ( 'NONE',  ( -1.600000000000000089, 1.800000000000000044, 0.7200000000000001954 ) ) ;
#980 = FACE_OUTER_BOUND ( 'NONE', #358, .T. ) ;
#982 = DIRECTION ( 'NONE',  ( 0.000000000000000000, 0.000000000000000000, 1.000000000000000000 ) ) ;
#983 = EDGE_CURVE ( 'NONE', #574, #388, #871, .T. ) ;
#984 = CARTESIAN_POINT ( 'NONE',  ( 1.600000000000000089, 0.07999999999999998779, 0.7200000000000003064 ) ) ;
#985 = LINE ( 'NONE', #1203, #555 ) ;
#986 = CIRCLE ( 'NONE', #336, 0.07999999999999998779 ) ;
#987 = CARTESIAN_POINT ( 'NONE',  ( -1.100000000000000311, 0.02666666666666666491, 0.7199999999999997513 ) ) ;
#988 = EDGE_LOOP ( 'NONE', ( #320, #1189, #607, #373 ) ) ;
#989 = DIRECTION ( 'NONE',  ( 1.000000000000000000, 0.000000000000000000, 0.000000000000000000 ) ) ;
#990 = ORIENTED_EDGE ( 'NONE', *, *, #787, .T. ) ;
#991 = CARTESIAN_POINT ( 'NONE',  ( 500000.0000000000582, 0.07999999999999998779, -0.7200000000433677272 ) ) ;
#992 = VERTEX_POINT ( 'NONE', #775 ) ;
#993 = EDGE_CURVE ( 'NONE', #789, #1201, #931, .T. ) ;
#995 = ORIENTED_EDGE ( 'NONE', *, *, #1225, .T. ) ;
#994 = DIRECTION ( 'NONE',  ( -8.673617379884036705E-17, 0.000000000000000000, -1.000000000000000000 ) ) ;
#996 = CARTESIAN_POINT ( 'NONE',  ( 0.000000000000000000, 1.719999999999999973, 0.7200000000000003064 ) ) ;
#997 = VERTEX_POINT ( 'NONE', #104 ) ;
#998 = CARTESIAN_POINT ( 'NONE',  ( 1.600000000000000311, 0.07999999999999998779, -0.7199999999999995293 ) ) ;
#999 = EDGE_CURVE ( 'NONE', #1236, #198, #82, .T. ) ;
#1000 = EDGE_LOOP ( 'NONE', ( #1022, #579, #609, #315 ) ) ;
#1001 = ADVANCED_FACE ( 'NONE', ( #499 ), #905, .T. ) ;
#1002 = DIRECTION ( 'NONE',  ( 0.000000000000000000, 0.000000000000000000, 1.000000000000000000 ) ) ;
#1003 = EDGE_LOOP ( 'NONE', ( #1052, #615, #415, #193 ) ) ;
#1005 = ORIENTED_EDGE ( 'NONE', *, *, #621, .T. ) ;
#1004 = CARTESIAN_POINT ( 'NONE',  ( -1.600000000000000311, 0.07999999999999998779, -0.7199999999999995293 ) ) ;
#1006 = CARTESIAN_POINT ( 'NONE',  ( 1.100000000008094503, 1.773333333333333428, -0.7200000001111301895 ) ) ;
#1007 = DIRECTION ( 'NONE',  ( -1.000000000000000000, -0.000000000000000000, -0.000000000000000000 ) ) ;
#1008 = ORIENTED_EDGE ( 'NONE', *, *, #720, .T. ) ;
#1009 = EDGE_LOOP ( 'NONE', ( #1258, #586, #565, #687 ) ) ;
#1010 = DIRECTION ( 'NONE',  ( 0.000000000000000000, 0.000000000000000000, 1.000000000000000000 ) ) ;
#1011 = ORIENTED_EDGE ( 'NONE', *, *, #297, .F. ) ;
#1012 = PRESENTATION_LAYER_ASSIGNMENT (  '', '', ( #784 ) ) ;
#1014 = ORIENTED_EDGE ( 'NONE', *, *, #1126, .F. ) ;
#1013 = DIRECTION ( 'NONE',  ( -1.355252715606880789E-16, 0.000000000000000000, 1.000000000000000000 ) ) ;
#1015 = DIRECTION ( 'NONE',  ( 1.000000000000000000, 0.000000000000000000, -8.673617379884036705E-17 ) ) ;
#1016 = DIRECTION ( 'NONE',  ( -1.000000000000000000, 0.000000000000000000, 0.000000000000000000 ) ) ;
#1017 = EDGE_CURVE ( 'NONE', #997, #684, #88, .T. ) ;
#1018 = VERTEX_POINT ( 'NONE', #117 ) ;
#1019 = CARTESIAN_POINT ( 'NONE',  ( 1.100000000121781341, 0.08000000000000043188, 0.7733333333333333171 ) ) ;
#1020 = ORIENTED_EDGE ( 'NONE', *, *, #168, .T. ) ;
#1021 = AXIS2_PLACEMENT_3D ( 'NONE', #938, #1092, #228 ) ;
#1022 = ORIENTED_EDGE ( 'NONE', *, *, #650, .T. ) ;
#1023 = CARTESIAN_POINT ( 'NONE',  ( -1.100000000000000089, 0.07999999999999998779, 0.8000000000000002665 ) ) ;
#1024 = CARTESIAN_POINT ( 'NONE',  ( 1.100000000008094503, 0.07999999999999998779, 0.7200000000000000844 ) ) ;
#1025 = VERTEX_POINT ( 'NONE', #191 ) ;
#1026 = DIRECTION ( 'NONE',  ( -1.000000000000000000, -0.000000000000000000, 8.673617379884039170E-17 ) ) ;
#1027 = ORIENTED_EDGE ( 'NONE', *, *, #873, .F. ) ;
#1028 = ORIENTED_EDGE ( 'NONE', *, *, #523, .F. ) ;
#1029 = CARTESIAN_POINT ( 'NONE',  ( -1.520000000000000240, 1.719999999999999973, 2.059984127722459411E-16 ) ) ;
#1030 = VERTEX_POINT ( 'NONE', #295 ) ;
#1031 = APPLICATION_PROTOCOL_DEFINITION ( 'draft international standard', 'automotive_design', 1998, #3 ) ;
#1032 = ORIENTED_EDGE ( 'NONE', *, *, #424, .F. ) ;
#1033 = DIRECTION ( 'NONE',  ( -1.000000000000000000, 0.000000000000000000, 0.000000000000000000 ) ) ;
#1034 = DIRECTION ( 'NONE',  ( 0.000000000000000000, -1.000000000000000000, -0.000000000000000000 ) ) ;
#1035 = DIRECTION ( 'NONE',  ( 1.000000000000000000, 0.000000000000000000, 1.355252715606880789E-16 ) ) ;
#1036 = ORIENTED_EDGE ( 'NONE', *, *, #993, .T. ) ;
#1037 = EDGE_CURVE ( 'NONE', #339, #401, #74, .T. ) ;
#1038 = ADVANCED_FACE ( 'NONE', ( #497 ), #490, .T. ) ;
#1039 = ORIENTED_EDGE ( 'NONE', *, *, #494, .T. ) ;
#1040 = AXIS2_PLACEMENT_3D ( 'NONE', #954, #861, #1228 ) ;
#1041 = DIRECTION ( 'NONE',  ( 1.000000000000000000, 0.000000000000000000, -8.673617379884036705E-17 ) ) ;
#1042 = ORIENTED_EDGE ( 'NONE', *, *, #242, .T. ) ;
#1043 = ORIENTED_EDGE ( 'NONE', *, *, #493, .F. ) ;
#1044 = DIRECTION ( 'NONE',  ( 0.000000000000000000, 0.000000000000000000, 1.000000000000000000 ) ) ;
#1045 = APPLICATION_PROTOCOL_DEFINITION ( 'draft international standard', 'automotive_design', 1998, #851 ) ;
#1046 = ORIENTED_EDGE ( 'NONE', *, *, #770, .F. ) ;
#1047 = ADVANCED_FACE ( 'NONE', ( #66 ), #288, .F. ) ;
#1048 = AXIS2_PLACEMENT_3D ( 'NONE', #810, #113, #1076 ) ;
#1049 = CARTESIAN_POINT ( 'NONE',  ( 1.100000000000000311, 1.800000000000000044, -0.7999999999999994893 ) ) ;
#1050 = CARTESIAN_POINT ( 'NONE',  ( 1.600000000000000311, 1.719999999999999973, -0.7999999999999994893 ) ) ;
#1051 = ORIENTED_EDGE ( 'NONE', *, *, #137, .F. ) ;
#1052 = ORIENTED_EDGE ( 'NONE', *, *, #94, .F. ) ;
#1053 = CARTESIAN_POINT ( 'NONE',  ( -1.100000000000000311, 1.719999999999999529, -0.7733333333333327619 ) ) ;
#1054 = CARTESIAN_POINT ( 'NONE',  ( 1.520000000000000240, 1.800000000000000044, -0.7199999999999995293 ) ) ;
#1055 = EDGE_CURVE ( 'NONE', #856, #1025, #495, .T. ) ;
#1056 = VERTEX_POINT ( 'NONE', #1004 ) ;
#1057 =( NAMED_UNIT ( * ) SI_UNIT ( $, .STERADIAN. ) SOLID_ANGLE_UNIT ( ) );
#1058 = EDGE_LOOP ( 'NONE', ( #843, #138, #143 ) ) ;
#1059 = CARTESIAN_POINT ( 'NONE',  ( -1.600000000000000311, 1.800000000000000044, -0.7199999999999995293 ) ) ;
#1060 = ADVANCED_FACE ( 'NONE', ( #116 ), #530, .T. ) ;
#1061 = VERTEX_POINT ( 'NONE', #1094 ) ;
#1062 = DIRECTION ( 'NONE',  ( -1.000000000000000000, -0.000000000000000000, -0.000000000000000000 ) ) ;
#1063 = AXIS2_PLACEMENT_3D ( 'NONE', #991, #188, #270 ) ;
#1064 = ORIENTED_EDGE ( 'NONE', *, *, #192, .T. ) ;
#1065 = CARTESIAN_POINT ( 'NONE',  ( -1.100000000000000311, 1.719999999999999973, -0.7199999999999995293 ) ) ;
#1066 = DIRECTION ( 'NONE',  ( 1.000000000000000000, 0.000000000000000000, -8.673617379884039170E-17 ) ) ;
#1067 = ORIENTED_EDGE ( 'NONE', *, *, #666, .T. ) ;
#1068 = ORIENTED_EDGE ( 'NONE', *, *, #297, .T. ) ;
#1069 = CARTESIAN_POINT ( 'NONE',  ( 1.100000000000000089, 0.000000000000000000, 0.7199999999999997513 ) ) ;
#1070 = PLANE ( 'NONE',  #498 ) ;
#1071 = CARTESIAN_POINT ( 'NONE',  ( 1.520000000000000240, 1.800000000000000044, -0.7999999999999994893 ) ) ;
#1072 = DIRECTION ( 'NONE',  ( -1.000000000000000000, 0.000000000000000000, 0.000000000000000000 ) ) ;
#1073 = ORIENTED_EDGE ( 'NONE', *, *, #983, .T. ) ;
#1074 = DIRECTION ( 'NONE',  ( 0.000000000000000000, 1.000000000000000000, 0.000000000000000000 ) ) ;
#1075 = AXIS2_PLACEMENT_3D ( 'NONE', #1190, #41, #427 ) ;
#1076 = DIRECTION ( 'NONE',  ( 1.000000000000000000, 0.000000000000000000, 0.000000000000000000 ) ) ;
#1077 = DIRECTION ( 'NONE',  ( 0.000000000000000000, 0.000000000000000000, 1.000000000000000000 ) ) ;
#1078 = ADVANCED_FACE ( 'NONE', ( #552 ), #976, .T. ) ;
#1079 = AXIS2_PLACEMENT_3D ( 'NONE', #245, #352, #734 ) ;
#1080 = CARTESIAN_POINT ( 'NONE',  ( -1.100000000000000311, 1.719999999999999973, -0.7999999999999994893 ) ) ;
#1081 = DIRECTION ( 'NONE',  ( 1.355252715606880789E-16, -0.000000000000000000, -1.000000000000000000 ) ) ;
#1082 = DIRECTION ( 'NONE',  ( 0.000000000000000000, 1.000000000000000000, 0.000000000000000000 ) ) ;
#1083 =( GEOMETRIC_REPRESENTATION_CONTEXT ( 3 ) GLOBAL_UNCERTAINTY_ASSIGNED_CONTEXT ( ( #546 ) ) GLOBAL_UNIT_ASSIGNED_CONTEXT ( ( #19, #111, #977 ) ) REPRESENTATION_CONTEXT ( 'NONE', 'WORKASPACE' ) );
#1084 = CARTESIAN_POINT ( 'NONE',  ( 1.100000000000000089, 1.800000000000000044, 0.7199999999999997513 ) ) ;
#1085 = CARTESIAN_POINT ( 'NONE',  ( -1.520000000000000240, 0.07999999999999998779, -0.7199999999999995293 ) ) ;
#1086 = ADVANCED_FACE ( 'NONE', ( #959 ), #966, .T. ) ;
#1087 = EDGE_CURVE ( 'NONE', #1206, #211, #950, .T. ) ;
#1088 = CARTESIAN_POINT ( 'NONE',  ( 1.520000000000000018, 1.800000000000000044, 0.8000000000000002665 ) ) ;
#1089 = DIRECTION ( 'NONE',  ( 1.000000000000000000, 0.000000000000000000, 0.000000000000000000 ) ) ;
#1090 = SURFACE_STYLE_USAGE ( .BOTH. , #125 ) ;
#1091 = AXIS2_PLACEMENT_3D ( 'NONE', #929, #1015, #51 ) ;
#1092 = DIRECTION ( 'NONE',  ( 0.000000000000000000, -1.000000000000000000, 0.000000000000000000 ) ) ;
#1093 = AXIS2_PLACEMENT_3D ( 'NONE', #434, #933, #71 ) ;
#1094 = CARTESIAN_POINT ( 'NONE',  ( 1.100000000121781341, 0.02666666666666668573, 0.7199999999999995293 ) ) ;
#1095 = DIRECTION ( 'NONE',  ( -0.000000000000000000, 0.000000000000000000, -1.000000000000000000 ) ) ;
#1096 =( GEOMETRIC_REPRESENTATION_CONTEXT ( 3 ) GLOBAL_UNCERTAINTY_ASSIGNED_CONTEXT ( ( #1131 ) ) GLOBAL_UNIT_ASSIGNED_CONTEXT ( ( #735, #969, #11 ) ) REPRESENTATION_CONTEXT ( 'NONE', 'WORKASPACE' ) );
#1097 = CARTESIAN_POINT ( 'NONE',  ( 1.520000000000000018, 0.08000000000000000167, 0.7200000000000003064 ) ) ;
#1098 = CARTESIAN_POINT ( 'NONE',  ( 1.520000000000000240, 0.08000000000000000167, -0.7199999999999995293 ) ) ;
#1099 = CARTESIAN_POINT ( 'NONE',  ( -1.100000000000000311, 0.07999999999999998779, -0.7999999999999994893 ) ) ;
#1100 = DIRECTION ( 'NONE',  ( 0.000000000000000000, 0.000000000000000000, -1.000000000000000000 ) ) ;
#1101 = EDGE_CURVE ( 'NONE', #256, #794, #978, .T. ) ;
#1102 = STYLED_ITEM ( 'NONE', ( #710 ), #62 ) ;
#1103 = PLANE ( 'NONE',  #551 ) ;
#1104 = AXIS2_PLACEMENT_3D ( 'NONE', #936, #68, #917 ) ;
#1105 = ORIENTED_EDGE ( 'NONE', *, *, #328, .T. ) ;
#1106 = DIRECTION ( 'NONE',  ( 0.000000000000000000, 0.000000000000000000, -1.000000000000000000 ) ) ;
#1107 = ORIENTED_EDGE ( 'NONE', *, *, #476, .F. ) ;
#1108 = ORIENTED_EDGE ( 'NONE', *, *, #942, .F. ) ;
#1109 = ADVANCED_FACE ( 'NONE', ( #115 ), #337, .F. ) ;
#1110 = CARTESIAN_POINT ( 'NONE',  ( -1.100000000000000311, 0.07999999999999998779, -0.7733333333333327619 ) ) ;
#1111 = EDGE_LOOP ( 'NONE', ( #259, #253, #363, #355 ) ) ;
#1112 = VERTEX_POINT ( 'NONE', #697 ) ;
#1113 = CARTESIAN_POINT ( 'NONE',  ( 1.520000000000000240, 1.719999999999999973, -0.7199999999999995293 ) ) ;
#1114 = EDGE_LOOP ( 'NONE', ( #746, #1067, #335, #1275 ) ) ;
#1115 = ORIENTED_EDGE ( 'NONE', *, *, #666, .F. ) ;
#1116 = ORIENTED_EDGE ( 'NONE', *, *, #540, .T. ) ;
#1117 = CARTESIAN_POINT ( 'NONE',  ( -1.100000000000000311, 1.719999999999999973, 0.7200000000000003064 ) ) ;
#1118 = CARTESIAN_POINT ( 'NONE',  ( -1.520000000000000240, 0.08000000000000000167, -0.7199999999999995293 ) ) ;
#1119 = AXIS2_PLACEMENT_3D ( 'NONE', #813, #825, #516 ) ;
#1120 = ORIENTED_EDGE ( 'NONE', *, *, #1225, .F. ) ;
#1121 = ORIENTED_EDGE ( 'NONE', *, *, #808, .F. ) ;
#1122 = CARTESIAN_POINT ( 'NONE',  ( 500000.0000000000582, 0.08000000000000043188, 0.7733333332899653412 ) ) ;
#1123 = DIRECTION ( 'NONE',  ( 0.000000000000000000, -0.000000000000000000, 1.000000000000000000 ) ) ;
#1124 = ORIENTED_EDGE ( 'NONE', *, *, #1277, .T. ) ;
#1125 = ORIENTED_EDGE ( 'NONE', *, *, #1161, .T. ) ;
#1126 = EDGE_CURVE ( 'NONE', #435, #1236, #535, .T. ) ;
#1127 = DIRECTION ( 'NONE',  ( 0.000000000000000000, -0.000000000000000000, 1.000000000000000000 ) ) ;
#1128 = DIRECTION ( 'NONE',  ( -1.355252715606880789E-16, 0.000000000000000000, 1.000000000000000000 ) ) ;
#1129 = EDGE_LOOP ( 'NONE', ( #613, #1073, #185, #1181 ) ) ;
#1130 = EDGE_CURVE ( 'NONE', #1232, #379, #956, .T. ) ;
#1131 = UNCERTAINTY_MEASURE_WITH_UNIT (LENGTH_MEASURE( 1.000000000000000082E-05 ), #735, 'distance_accuracy_value', 'NONE');
#1132 = DIRECTION ( 'NONE',  ( 0.000000000000000000, 0.000000000000000000, 1.000000000000000000 ) ) ;
#1133 = DIRECTION ( 'NONE',  ( 0.000000000000000000, 1.000000000000000000, 0.000000000000000000 ) ) ;
#1134 = ADVANCED_FACE ( 'NONE', ( #980 ), #133, .T. ) ;
#1135 = VERTEX_POINT ( 'NONE', #447 ) ;
#1136 = AXIS2_PLACEMENT_3D ( 'NONE', #549, #957, #576 ) ;
#1137 = DIRECTION ( 'NONE',  ( -1.000000000000000000, 0.000000000000000000, 1.355252715606880789E-16 ) ) ;
#1138 = CARTESIAN_POINT ( 'NONE',  ( -1.600000000000000311, 1.800000000000000044, -0.7999999999999994893 ) ) ;
#1139 = ORIENTED_EDGE ( 'NONE', *, *, #656, .T. ) ;
#1140 = EDGE_LOOP ( 'NONE', ( #1229, #147, #1105, #408 ) ) ;
#1141 = DIRECTION ( 'NONE',  ( 0.000000000000000000, 0.000000000000000000, 1.000000000000000000 ) ) ;
#1142 = ADVANCED_FACE ( 'NONE', ( #545 ), #238, .F. ) ;
#1143 = EDGE_CURVE ( 'NONE', #1025, #205, #114, .T. ) ;
#1144 = DIRECTION ( 'NONE',  ( 1.000000000000000000, 0.000000000000000000, -8.673617379884036705E-17 ) ) ;
#1145 = CARTESIAN_POINT ( 'NONE',  ( -1.100000000000000311, 1.773333333333333428, -0.7199999999999995293 ) ) ;
#1146 = MECHANICAL_DESIGN_GEOMETRIC_PRESENTATION_REPRESENTATION (  '', ( #1102 ), #1083 ) ;
#1147 = CIRCLE ( 'NONE', #103, 0.07999999999999998779 ) ;
#1148 = FILL_AREA_STYLE ('',( #564 ) ) ;
#1149 = CYLINDRICAL_SURFACE ( 'NONE', #1063, 0.05333333333333329512 ) ;
#1150 = LINE ( 'NONE', #224, #329 ) ;
#1151 = DIRECTION ( 'NONE',  ( 1.000000000000000000, 0.000000000000000000, 0.000000000000000000 ) ) ;
#1152 = AXIS2_PLACEMENT_3D ( 'NONE', #513, #158, #1127 ) ;
#1153 = VECTOR ( 'NONE', #1026, 1000.000000000000000 ) ;
#1154 = DIRECTION ( 'NONE',  ( 0.000000000000000000, 0.000000000000000000, -1.000000000000000000 ) ) ;
#1155 = CIRCLE ( 'NONE', #1021, 0.07999999999999998779 ) ;
#1156 = DIRECTION ( 'NONE',  ( -1.355252715606880789E-16, 0.000000000000000000, 1.000000000000000000 ) ) ;
#1157 = EDGE_CURVE ( 'NONE', #1250, #366, #538, .T. ) ;
#1158 = LINE ( 'NONE', #730, #771 ) ;
#1159 = CIRCLE ( 'NONE', #795, 0.07999999999999998779 ) ;
#1160 = ORIENTED_EDGE ( 'NONE', *, *, #945, .T. ) ;
#1161 = EDGE_CURVE ( 'NONE', #709, #630, #547, .T. ) ;
#1162 = FACE_OUTER_BOUND ( 'NONE', #707, .T. ) ;
#1163 = ORIENTED_EDGE ( 'NONE', *, *, #999, .F. ) ;
#1164 = EDGE_CURVE ( 'NONE', #616, #1244, #985, .T. ) ;
#1165 = DIRECTION ( 'NONE',  ( 0.000000000000000000, -1.000000000000000000, 0.000000000000000000 ) ) ;
#1166 = DIRECTION ( 'NONE',  ( 0.000000000000000000, -1.000000000000000000, 0.000000000000000000 ) ) ;
#1167 = FACE_OUTER_BOUND ( 'NONE', #187, .T. ) ;
#1168 = DIRECTION ( 'NONE',  ( 0.000000000000000000, 0.000000000000000000, 1.000000000000000000 ) ) ;
#1169 = LINE ( 'NONE', #987, #1180 ) ;
#1170 = ORIENTED_EDGE ( 'NONE', *, *, #493, .T. ) ;
#1171 = MECHANICAL_DESIGN_GEOMETRIC_PRESENTATION_REPRESENTATION (  '', ( #184 ), #841 ) ;
#1172 = CIRCLE ( 'NONE', #233, 0.07999999999999998779 ) ;
#1173 = ORIENTED_EDGE ( 'NONE', *, *, #808, .T. ) ;
#1174 = DIRECTION ( 'NONE',  ( 1.000000000000000000, -0.000000000000000000, -0.000000000000000000 ) ) ;
#1175 = MECHANICAL_DESIGN_GEOMETRIC_PRESENTATION_REPRESENTATION (  '', ( #948 ), #1096 ) ;
#1176 = LINE ( 'NONE', #492, #763 ) ;
#1177 = VERTEX_POINT ( 'NONE', #215 ) ;
#1178 = DIRECTION ( 'NONE',  ( -1.000000000000000000, 0.000000000000000000, 0.000000000000000000 ) ) ;
#1179 = PLANE ( 'NONE',  #368 ) ;
#1180 = VECTOR ( 'NONE', #766, 1000.000000000000000 ) ;
#1181 = ORIENTED_EDGE ( 'NONE', *, *, #646, .T. ) ;
#1182 = PLANE ( 'NONE',  #1216 ) ;
#1183 = CYLINDRICAL_SURFACE ( 'NONE', #213, 0.07999999999999998779 ) ;
#1184 = ORIENTED_EDGE ( 'NONE', *, *, #135, .F. ) ;
#1185 = AXIS2_PLACEMENT_3D ( 'NONE', #946, #67, #313 ) ;
#1186 = CIRCLE ( 'NONE', #637, 0.07999999999999998779 ) ;
#1187 = ORIENTED_EDGE ( 'NONE', *, *, #1101, .T. ) ;
#1188 = LINE ( 'NONE', #236, #739 ) ;
#1189 = ORIENTED_EDGE ( 'NONE', *, *, #724, .T. ) ;
#1190 = CARTESIAN_POINT ( 'NONE',  ( -1.520000000000000240, 1.800000000000000044, -0.7199999999999995293 ) ) ;
#1191 = CARTESIAN_POINT ( 'NONE',  ( 1.100000000000000089, 1.719999999999999973, 0.7200000000000003064 ) ) ;
#1192 = CARTESIAN_POINT ( 'NONE',  ( -1.600000000000000311, 1.719999999999999973, -0.7199999999999995293 ) ) ;
#1193 = LINE ( 'NONE', #90, #326 ) ;
#1194 = EDGE_LOOP ( 'NONE', ( #167, #330, #1108, #263 ) ) ;
#1195 = AXIS2_PLACEMENT_3D ( 'NONE', #529, #216, #698 ) ;
#1196 = VECTOR ( 'NONE', #321, 1000.000000000000000 ) ;
#1197 = ORIENTED_EDGE ( 'NONE', *, *, #252, .T. ) ;
#1198 = FACE_OUTER_BOUND ( 'NONE', #773, .T. ) ;
#1199 = ORIENTED_EDGE ( 'NONE', *, *, #137, .T. ) ;
#1200 = CARTESIAN_POINT ( 'NONE',  ( 500000.0000000000582, 1.773333333333333428, 0.7199999999566311093 ) ) ;
#1201 = VERTEX_POINT ( 'NONE', #611 ) ;
#1202 = CARTESIAN_POINT ( 'NONE',  ( 1.520000000000000240, 1.800000000000000044, -0.7199999999999995293 ) ) ;
#1203 = CARTESIAN_POINT ( 'NONE',  ( 1.100000000000000311, 0.000000000000000000, -0.7999999999999994893 ) ) ;
#1204 =( NAMED_UNIT ( * ) PLANE_ANGLE_UNIT ( ) SI_UNIT ( $, .RADIAN. ) );
#1205 = CIRCLE ( 'NONE', #685, 0.07999999999999998779 ) ;
#1206 = VERTEX_POINT ( 'NONE', #689 ) ;
#1207 = VECTOR ( 'NONE', #178, 1000.000000000000000 ) ;
#1208 = EDGE_LOOP ( 'NONE', ( #1259, #402, #806 ) ) ;
#1209 = EDGE_CURVE ( 'NONE', #1018, #765, #526, .T. ) ;
#1210 = EDGE_CURVE ( 'NONE', #574, #686, #986, .T. ) ;
#1211 = EDGE_LOOP ( 'NONE', ( #704, #390, #729, #6 ) ) ;
#1212 = DIRECTION ( 'NONE',  ( -1.000000000000000000, 0.000000000000000000, 0.000000000000000000 ) ) ;
#1213 = VERTEX_POINT ( 'NONE', #1023 ) ;
#1214 = FACE_OUTER_BOUND ( 'NONE', #1271, .T. ) ;
#1215 = VERTEX_POINT ( 'NONE', #1099 ) ;
#1216 = AXIS2_PLACEMENT_3D ( 'NONE', #674, #1074, #1168 ) ;
#1217 = VERTEX_POINT ( 'NONE', #459 ) ;
#1218 = CIRCLE ( 'NONE', #653, 0.07999999999999998779 ) ;
#1219 = EDGE_LOOP ( 'NONE', ( #391, #1039, #850 ) ) ;
#1220 = CARTESIAN_POINT ( 'NONE',  ( 1.100000000000000089, 1.800000000000000044, 0.7200000000000003064 ) ) ;
#1221 = ADVANCED_FACE ( 'NONE', ( #110 ), #60, .F. ) ;
#1222 = SPHERICAL_SURFACE ( 'NONE', #1119, 0.08000000000000000167 ) ;
#1223 = ORIENTED_EDGE ( 'NONE', *, *, #651, .T. ) ;
#1224 = CARTESIAN_POINT ( 'NONE',  ( 1.600000000000000311, 1.800000000000000044, -0.7999999999999994893 ) ) ;
#1225 = EDGE_CURVE ( 'NONE', #1250, #992, #532, .T. ) ;
#1226 = ORIENTED_EDGE ( 'NONE', *, *, #514, .F. ) ;
#1227 = EDGE_CURVE ( 'NONE', #686, #807, #970, .T. ) ;
#1228 = DIRECTION ( 'NONE',  ( 1.000000000000000000, 0.000000000000000000, 0.000000000000000000 ) ) ;
#1229 = ORIENTED_EDGE ( 'NONE', *, *, #663, .T. ) ;
#1230 = EDGE_CURVE ( 'NONE', #217, #789, #973, .T. ) ;
#1231 = LINE ( 'NONE', #658, #835 ) ;
#1232 = VERTEX_POINT ( 'NONE', #1053 ) ;
#1233 = CARTESIAN_POINT ( 'NONE',  ( 500000.0000000000582, 1.719999999999999973, 0.7199999999566321085 ) ) ;
#1234 = CIRCLE ( 'NONE', #287, 0.05333333333333329512 ) ;
#1235 = ORIENTED_EDGE ( 'NONE', *, *, #194, .T. ) ;
#1236 = VERTEX_POINT ( 'NONE', #78 ) ;
#1237 = DIRECTION ( 'NONE',  ( -1.355252715606880789E-16, -0.000000000000000000, -1.000000000000000000 ) ) ;
#1238 = DIRECTION ( 'NONE',  ( 0.000000000000000000, 0.000000000000000000, 1.000000000000000000 ) ) ;
#1239 = AXIS2_PLACEMENT_3D ( 'NONE', #554, #947, #496 ) ;
#1240 = LINE ( 'NONE', #162, #389 ) ;
#1241 = ORIENTED_EDGE ( 'NONE', *, *, #932, .F. ) ;
#1242 = ORIENTED_EDGE ( 'NONE', *, *, #134, .F. ) ;
#1243 = CYLINDRICAL_SURFACE ( 'NONE', #1104, 0.05333333333333329512 ) ;
#1244 = VERTEX_POINT ( 'NONE', #161 ) ;
#1245 = CLOSED_SHELL ( 'NONE', ( #318, #901, #852, #1109, #741, #572, #201, #294, #455, #1134, #944, #380, #1086, #879, #351, #1038, #507, #1060 ) ) ;
#1246 = CIRCLE ( 'NONE', #975, 0.07999999999999998779 ) ;
#1247 = EDGE_LOOP ( 'NONE', ( #1020, #1068, #1256 ) ) ;
#1248 = CARTESIAN_POINT ( 'NONE',  ( -1.100000000000000089, 0.07999999999999998779, 0.7200000000000003064 ) ) ;
#1249 = CARTESIAN_POINT ( 'NONE',  ( 1.100000000008094503, 0.07999999999999998779, -0.7733333333333329840 ) ) ;
#1250 = VERTEX_POINT ( 'NONE', #857 ) ;
#1251 = SHAPE_DEFINITION_REPRESENTATION ( #10, #122 ) ;
#1252 = FACE_OUTER_BOUND ( 'NONE', #682, .T. ) ;
#1253 = ORIENTED_EDGE ( 'NONE', *, *, #907, .T. ) ;
#1254 = EDGE_CURVE ( 'NONE', #804, #174, #102, .T. ) ;
#1255 = CARTESIAN_POINT ( 'NONE',  ( 500000.0000000000582, 1.719999999999999973, 0.7733333332899653412 ) ) ;
#1256 = ORIENTED_EDGE ( 'NONE', *, *, #540, .F. ) ;
#1257 = SURFACE_STYLE_FILL_AREA ( #1148 ) ;
#1258 = ORIENTED_EDGE ( 'NONE', *, *, #983, .F. ) ;
#1259 = ORIENTED_EDGE ( 'NONE', *, *, #504, .F. ) ;
#1260 = VECTOR ( 'NONE', #1007, 1000.000000000000000 ) ;
#1261 = EDGE_LOOP ( 'NONE', ( #634, #345, #801, #860, #791, #404, #1187, #206 ) ) ;
#1262 = DIRECTION ( 'NONE',  ( 1.000000000000000000, -0.000000000000000000, -1.355252715606880789E-16 ) ) ;
#1263 = CARTESIAN_POINT ( 'NONE',  ( 1.100000000121781341, 0.02666666666666666491, -0.7199999999999993072 ) ) ;
#1264 = AXIS2_PLACEMENT_3D ( 'NONE', #632, #226, #1100 ) ;
#1265 = ORIENTED_EDGE ( 'NONE', *, *, #1274, .F. ) ;
#1266 = ORIENTED_EDGE ( 'NONE', *, *, #134, .T. ) ;
#1267 = DIRECTION ( 'NONE',  ( -0.000000000000000000, 1.000000000000000000, -0.000000000000000000 ) ) ;
#1268 = DIRECTION ( 'NONE',  ( 0.000000000000000000, 0.000000000000000000, 1.000000000000000000 ) ) ;
#1269 = CYLINDRICAL_SURFACE ( 'NONE', #197, 0.07999999999999998779 ) ;
#1270 = ORIENTED_EDGE ( 'NONE', *, *, #633, .T. ) ;
#1271 = EDGE_LOOP ( 'NONE', ( #1226, #828, #1036, #1279 ) ) ;
#1272 = CYLINDRICAL_SURFACE ( 'NONE', #859, 0.07999999999999998779 ) ;
#1273 = ORIENTED_EDGE ( 'NONE', *, *, #1254, .T. ) ;
#1274 = EDGE_CURVE ( 'NONE', #584, #840, #130, .T. ) ;
#1275 = ORIENTED_EDGE ( 'NONE', *, *, #591, .T. ) ;
#1276 = DIRECTION ( 'NONE',  ( -1.355252715606880789E-16, 0.000000000000000000, -1.000000000000000000 ) ) ;
#1277 = EDGE_CURVE ( 'NONE', #997, #686, #542, .T. ) ;
#1278 = LINE ( 'NONE', #250, #880 ) ;
#1279 = ORIENTED_EDGE ( 'NONE', *, *, #192, .F. ) ;
#1280 = CARTESIAN_POINT ( 'NONE',  ( 1.600000000000000311, 0.07999999999999998779, -0.7999999999999994893 ) ) ;
ENDSEC;
END-ISO-10303-21;
